<svg width="23" height="20" viewBox="0 0 23 20" fill="none" xmlns="http://www.w3.org/2000/svg">
<path fill-rule="evenodd" clip-rule="evenodd" d="M18.1923 6.36527C18.6166 4.69358 19.1499 1.59361 17.2698 0.542619C15.3985 -0.503788 12.9633 1.50132 11.6774 2.70488C10.3953 1.51331 7.89172 -0.483223 6.01321 0.571104C4.14262 1.62102 4.71947 4.6696 5.15317 6.35177C3.40822 6.8323 0.416992 7.8673 0.416992 9.98192C0.416992 12.0905 3.40511 13.2166 5.13973 13.6967C4.70443 15.3881 4.15646 18.3932 6.02944 19.4408C7.91497 20.4949 10.4107 18.5459 11.7085 17.3291C13.0027 18.5398 15.4144 20.5016 17.2861 19.451C19.1637 18.3972 18.6747 15.3388 18.241 13.6469C19.9225 13.1657 22.917 12.0642 22.917 9.98192C22.917 7.88762 19.9097 6.84422 18.1923 6.36527ZM17.9791 12.7502C17.6944 11.8762 17.31 10.9467 16.8398 9.98657C17.2886 9.04907 17.6581 8.1316 17.9349 7.26317C19.1939 7.6171 21.9559 8.42597 21.9559 9.98192C21.9559 11.5525 19.3054 12.369 17.9791 12.7502ZM16.8045 18.6445C15.408 19.4282 13.3336 17.5522 12.3778 16.6607C13.0119 15.9883 13.6455 15.2066 14.2639 14.3387C15.3517 14.2451 16.3792 14.0921 17.3112 13.8833C17.6164 15.08 18.2071 17.8572 16.8045 18.6445ZM6.50971 18.6333C5.11306 17.8525 5.75143 15.1709 6.07167 13.925C6.99325 14.1227 8.01344 14.2649 9.10379 14.3506C9.72622 15.1999 10.3782 15.9806 11.0352 16.6643C10.2235 17.4256 7.91287 19.4177 6.50971 18.6333ZM1.37811 9.98192C1.37811 8.4055 4.12354 7.60247 5.41127 7.24945C5.69287 8.13737 6.0622 9.0658 6.50791 10.0047C6.05643 10.9574 5.68182 11.9006 5.39763 12.799C4.16976 12.4582 1.37811 11.5593 1.37811 9.98192ZM6.49477 1.37765C7.89712 0.590619 10.073 2.50737 11.0039 3.3701C10.3503 4.05065 9.70432 4.82545 9.08722 5.66987C8.02904 5.76497 7.01605 5.91767 6.08481 6.12227C5.73543 4.76553 5.09393 2.16384 6.49477 1.37765ZM14.9515 6.68282C15.6694 6.77065 16.3572 6.8875 17.003 7.03045C16.8091 7.633 16.5675 8.26307 16.2829 8.90897C15.8703 8.14997 15.4274 7.4062 14.9515 6.68282ZM11.6777 4.03607C12.121 4.50173 12.565 5.02172 13.0018 5.58587C12.1159 5.54522 11.2285 5.54507 10.3425 5.58527C10.7797 5.02636 11.2275 4.50713 11.6777 4.03607ZM7.05937 8.9083C6.77946 8.26465 6.53998 7.6318 6.34441 7.02062C6.98638 6.88135 7.67099 6.7675 8.38424 6.6811C7.90694 7.4029 7.46482 8.14637 7.05937 8.9083ZM8.40472 13.3493C7.66792 13.2695 6.97294 13.1615 6.33116 13.026C6.52982 12.4041 6.77458 11.7576 7.06046 11.1001C7.47149 11.87 7.92037 12.6206 8.40472 13.3493ZM11.7043 15.9936C11.2488 15.517 10.7944 14.9898 10.3506 14.4228C11.2416 14.4567 12.1343 14.4568 13.0252 14.4182C12.5871 14.9956 12.1447 15.5235 11.7043 15.9936ZM16.292 11.0666C16.5928 11.7313 16.8463 12.3743 17.0476 12.9857C16.3952 13.13 15.6909 13.2463 14.9488 13.3326C15.4282 12.5955 15.8782 11.8402 16.292 11.0666ZM13.7275 13.4456C12.3646 13.54 10.9932 13.5389 9.62984 13.4533C8.85517 12.3561 8.16554 11.2022 7.57027 10.0043C8.16269 8.80892 8.84729 7.6573 9.61829 6.56185C10.9826 6.46187 12.3553 6.46157 13.7197 6.56245C14.4841 7.65782 15.1676 8.80645 15.7738 9.99107C15.1748 11.1859 14.4866 12.3398 13.7275 13.4456ZM16.7897 1.34995C18.1924 2.1344 17.5681 4.92044 17.2616 6.13195C16.3282 5.92307 15.3145 5.76767 14.2532 5.67107C13.6349 4.81753 12.9943 4.04138 12.3513 3.36962C13.2941 2.48831 15.4006 0.573167 16.7897 1.34995Z" fill="#53C1DE"/>
</svg>
