<svg width="21" height="21" viewBox="0 0 21 21" fill="none" xmlns="http://www.w3.org/2000/svg">
<path d="M16.9997 13C16.4088 13.0039 15.8262 13.1386 15.2937 13.3945C14.7611 13.6504 14.2919 14.0211 13.9197 14.48L8.81966 12.13C9.05945 11.3957 9.05945 10.6042 8.81966 9.86999L13.9197 7.51999C14.5213 8.24596 15.36 8.73607 16.2878 8.90383C17.2156 9.07159 18.1729 8.90622 18.9906 8.4369C19.8084 7.96757 20.434 7.22447 20.7572 6.33874C21.0804 5.453 21.0803 4.48157 20.757 3.5959C20.4336 2.71022 19.8078 1.96724 18.99 1.49806C18.1722 1.02889 17.2149 0.863686 16.2871 1.03162C15.3593 1.19955 14.5207 1.68981 13.9192 2.41589C13.3177 3.14196 12.992 4.05717 12.9997 4.99999C13.0027 5.23822 13.0261 5.47576 13.0697 5.70999L7.78966 8.13999C7.22674 7.58957 6.51391 7.21751 5.74047 7.07042C4.96703 6.92333 4.16738 7.00776 3.44171 7.31312C2.71604 7.61849 2.09662 8.13121 1.66106 8.78705C1.2255 9.4429 0.993164 10.2127 0.993164 11C0.993164 11.7873 1.2255 12.5571 1.66106 13.2129C2.09662 13.8688 2.71604 14.3815 3.44171 14.6869C4.16738 14.9922 4.96703 15.0767 5.74047 14.9296C6.51391 14.7825 7.22674 14.4104 7.78966 13.86L13.0697 16.29C13.0261 16.5242 13.0027 16.7618 12.9997 17C12.9997 17.7911 13.2343 18.5645 13.6738 19.2223C14.1133 19.8801 14.738 20.3928 15.4689 20.6955C16.1998 20.9983 17.0041 21.0775 17.78 20.9231C18.5559 20.7688 19.2687 20.3878 19.8281 19.8284C20.3875 19.269 20.7685 18.5563 20.9228 17.7804C21.0771 17.0044 20.9979 16.2002 20.6952 15.4693C20.3924 14.7384 19.8797 14.1136 19.2219 13.6741C18.5641 13.2346 17.7908 13 16.9997 13ZM16.9997 2.99999C17.3952 2.99999 17.7819 3.11729 18.1108 3.33705C18.4397 3.55682 18.696 3.86917 18.8474 4.23463C18.9988 4.60008 19.0384 5.00221 18.9612 5.39017C18.8841 5.77813 18.6936 6.1345 18.4139 6.41421C18.1342 6.69391 17.7778 6.88439 17.3898 6.96156C17.0019 7.03873 16.5997 6.99913 16.2343 6.84775C15.8688 6.69638 15.5565 6.44003 15.3367 6.11113C15.117 5.78223 14.9997 5.39556 14.9997 4.99999C14.9997 4.46956 15.2104 3.96085 15.5854 3.58578C15.9605 3.21071 16.4692 2.99999 16.9997 2.99999ZM4.99966 13C4.6041 13 4.21742 12.8827 3.88852 12.6629C3.55962 12.4432 3.30328 12.1308 3.1519 11.7654C3.00053 11.3999 2.96092 10.9978 3.03809 10.6098C3.11526 10.2218 3.30574 9.86548 3.58545 9.58578C3.86515 9.30607 4.22152 9.11559 4.60948 9.03842C4.99744 8.96125 5.39958 9.00086 5.76503 9.15223C6.13048 9.30361 6.44284 9.55995 6.6626 9.88885C6.88236 10.2178 6.99966 10.6044 6.99966 11C6.99966 11.5304 6.78895 12.0391 6.41388 12.4142C6.0388 12.7893 5.5301 13 4.99966 13ZM16.9997 19C16.6041 19 16.2174 18.8827 15.8885 18.6629C15.5596 18.4432 15.3033 18.1308 15.1519 17.7654C15.0005 17.3999 14.9609 16.9978 15.0381 16.6098C15.1153 16.2218 15.3057 15.8655 15.5854 15.5858C15.8652 15.3061 16.2215 15.1156 16.6095 15.0384C16.9974 14.9613 17.3996 15.0009 17.765 15.1522C18.1305 15.3036 18.4428 15.56 18.6626 15.8889C18.8824 16.2177 18.9997 16.6044 18.9997 17C18.9997 17.5304 18.7889 18.0391 18.4139 18.4142C18.0388 18.7893 17.5301 19 16.9997 19Z" fill="#219FDB"/>
</svg>
