<svg width="25" height="24" viewBox="0 0 25 24" fill="none" xmlns="http://www.w3.org/2000/svg">
<path d="M17.5959 8.999C16.7007 8.99862 15.8193 9.22006 15.0305 9.64353C14.9585 9.45396 14.8306 9.29077 14.6636 9.17564C14.4967 9.06052 14.2987 8.99891 14.0959 8.999H10.0959C9.96457 8.99893 9.83451 9.02474 9.71315 9.07497C9.59179 9.1252 9.48152 9.19885 9.38864 9.29173C9.29577 9.3846 9.22211 9.49487 9.17189 9.61623C9.12166 9.73759 9.09584 9.86766 9.09592 9.999V21.999C9.09584 22.1303 9.12166 22.2604 9.17188 22.3818C9.22211 22.5031 9.29577 22.6134 9.38864 22.7063C9.48151 22.7992 9.59178 22.8728 9.71314 22.923C9.8345 22.9733 9.96457 22.9991 10.0959 22.999H14.0959C14.2273 22.9991 14.3573 22.9733 14.4787 22.923C14.6001 22.8728 14.7103 22.7992 14.8032 22.7063C14.8961 22.6134 14.9697 22.5031 15.02 22.3818C15.0702 22.2604 15.096 22.1303 15.0959 21.999V16.499C15.0959 16.2338 15.2013 15.9794 15.3888 15.7919C15.5763 15.6044 15.8307 15.499 16.0959 15.499C16.3611 15.499 16.6155 15.6044 16.803 15.7919C16.9906 15.9794 17.0959 16.2338 17.0959 16.499V21.999C17.0958 22.1303 17.1217 22.2604 17.1719 22.3818C17.2221 22.5031 17.2958 22.6134 17.3886 22.7063C17.4815 22.7992 17.5918 22.8728 17.7131 22.923C17.8345 22.9733 17.9646 22.9991 18.0959 22.999H22.0959C22.2273 22.9991 22.3573 22.9733 22.4787 22.923C22.6001 22.8728 22.7103 22.7992 22.8032 22.7063C22.8961 22.6134 22.9697 22.5031 23.02 22.3818C23.0702 22.2604 23.096 22.1303 23.0959 21.999V14.499C23.0941 13.0409 22.5141 11.643 21.483 10.6119C20.4519 9.58086 19.0541 9.00081 17.5959 8.999ZM21.0959 20.999H19.0959V16.499C19.0959 15.7034 18.7798 14.9403 18.2172 14.3777C17.6546 13.8151 16.8916 13.499 16.0959 13.499C15.3003 13.499 14.5372 13.8151 13.9746 14.3777C13.412 14.9403 13.0959 15.7034 13.0959 16.499V20.999H11.0959V10.999H13.0959V11.7021C13.096 11.9093 13.1605 12.1114 13.2804 12.2804C13.4002 12.4494 13.5696 12.577 13.7652 12.6456C13.9607 12.7142 14.1727 12.7204 14.3718 12.6634C14.571 12.6063 14.7476 12.4888 14.8772 12.3271C15.3259 11.7572 15.9415 11.3416 16.6379 11.1384C17.3343 10.9352 18.0768 10.9545 18.7616 11.1937C19.4465 11.4329 20.0396 11.88 20.4581 12.4726C20.8766 13.0651 21.0996 13.7736 21.0959 14.499V20.999ZM7.09592 8.999H3.09592C2.96458 8.99893 2.83451 9.02474 2.71315 9.07497C2.59179 9.1252 2.48152 9.19885 2.38864 9.29173C2.29577 9.3846 2.22211 9.49487 2.17189 9.61623C2.12166 9.73759 2.09584 9.86766 2.09592 9.999V21.999C2.09584 22.1303 2.12166 22.2604 2.17188 22.3818C2.22211 22.5031 2.29577 22.6134 2.38864 22.7063C2.48152 22.7992 2.59178 22.8728 2.71314 22.923C2.8345 22.9733 2.96457 22.9991 3.09592 22.999H7.09592C7.22726 22.9991 7.35733 22.9733 7.47869 22.923C7.60005 22.8728 7.71032 22.7992 7.80319 22.7063C7.89607 22.6134 7.96973 22.5031 8.01995 22.3818C8.07018 22.2604 8.09599 22.1303 8.09592 21.999V9.999C8.09599 9.86766 8.07018 9.73759 8.01995 9.61623C7.96972 9.49487 7.89607 9.3846 7.80319 9.29173C7.71032 9.19885 7.60005 9.1252 7.47869 9.07497C7.35733 9.02474 7.22726 8.99893 7.09592 8.999ZM6.09592 20.999H4.09592V10.999H6.09592V20.999ZM5.11057 1.542C4.67293 1.5158 4.23453 1.5789 3.82204 1.72745C3.40955 1.87599 3.03159 2.10689 2.71114 2.40609C2.39068 2.7053 2.13443 3.06656 1.95798 3.4679C1.78152 3.86924 1.68854 4.30229 1.68469 4.74069C1.68085 5.1791 1.76621 5.61371 1.9356 6.01808C2.10499 6.42246 2.35486 6.78816 2.67002 7.09294C2.98517 7.39772 3.35903 7.63522 3.76885 7.79098C4.17867 7.94674 4.61589 8.01752 5.05392 7.999H5.08224C5.52104 8.02506 5.96054 7.96138 6.37389 7.81185C6.78725 7.66232 7.16577 7.43007 7.48634 7.12931C7.8069 6.82854 8.06278 6.46557 8.23833 6.06258C8.41387 5.65958 8.50541 5.22503 8.50734 4.78546C8.50926 4.34589 8.42154 3.91055 8.24954 3.50603C8.07753 3.10151 7.82485 2.73631 7.50694 2.43275C7.18902 2.12918 6.81255 1.89363 6.40052 1.74047C5.9885 1.58732 5.54957 1.51979 5.11056 1.542H5.11057ZM5.08225 5.999H5.05392C4.88099 6.02 4.70556 6.00378 4.53941 5.95143C4.37326 5.89908 4.22022 5.81181 4.09056 5.69547C3.9609 5.57912 3.85762 5.4364 3.78763 5.27688C3.71765 5.11735 3.68258 4.9447 3.68479 4.77051C3.68479 4.02441 4.24436 3.54199 5.11057 3.54199C5.28527 3.5187 5.46293 3.53312 5.63158 3.58428C5.80024 3.63543 5.95598 3.72213 6.0883 3.83854C6.22063 3.95495 6.32647 4.09837 6.39871 4.25913C6.47094 4.41989 6.50788 4.59427 6.50705 4.77051C6.50705 5.5166 5.94748 5.999 5.08225 5.999Z" fill="white"/>
</svg>
