<svg width="24" height="24" viewBox="0 0 24 24" fill="none" xmlns="http://www.w3.org/2000/svg">
<path d="M20.4705 1.99999H3.53055C3.34013 1.99734 3.15105 2.03223 2.97411 2.10267C2.79718 2.17311 2.63585 2.27771 2.49934 2.4105C2.36284 2.54329 2.25383 2.70167 2.17854 2.8766C2.10325 3.05152 2.06316 3.23957 2.06055 3.42999V20.57C2.06316 20.7604 2.10325 20.9485 2.17854 21.1234C2.25383 21.2983 2.36284 21.4567 2.49934 21.5895C2.63585 21.7223 2.79718 21.8269 2.97411 21.8973C3.15105 21.9677 3.34013 22.0026 3.53055 22H20.4705C20.661 22.0026 20.85 21.9677 21.027 21.8973C21.2039 21.8269 21.3652 21.7223 21.5017 21.5895C21.6383 21.4567 21.7473 21.2983 21.8226 21.1234C21.8978 20.9485 21.9379 20.7604 21.9405 20.57V3.42999C21.9379 3.23957 21.8978 3.05152 21.8226 2.8766C21.7473 2.70167 21.6383 2.54329 21.5017 2.4105C21.3652 2.27771 21.2039 2.17311 21.027 2.10267C20.85 2.03223 20.661 1.99734 20.4705 1.99999ZM8.09055 18.74H5.09055V9.73999H8.09055V18.74ZM6.59055 8.47999C6.17681 8.47999 5.78002 8.31563 5.48746 8.02307C5.1949 7.73052 5.03055 7.33372 5.03055 6.91999C5.03055 6.50625 5.1949 6.10946 5.48746 5.8169C5.78002 5.52434 6.17681 5.35999 6.59055 5.35999C6.81024 5.33507 7.03272 5.35684 7.24342 5.42387C7.45412 5.4909 7.64829 5.60168 7.8132 5.74895C7.97812 5.89622 8.11007 6.07667 8.20042 6.27847C8.29076 6.48027 8.33746 6.69888 8.33746 6.91999C8.33746 7.14109 8.29076 7.3597 8.20042 7.5615C8.11007 7.76331 7.97812 7.94375 7.8132 8.09103C7.64829 8.2383 7.45412 8.34907 7.24342 8.4161C7.03272 8.48313 6.81024 8.5049 6.59055 8.47999ZM18.9105 18.74H15.9105V13.91C15.9105 12.7 15.4805 11.91 14.3905 11.91C14.0532 11.9125 13.7247 12.0183 13.4494 12.2132C13.174 12.4081 12.965 12.6827 12.8505 13C12.7723 13.235 12.7384 13.4826 12.7505 13.73V18.73H9.75055C9.75055 18.73 9.75055 10.55 9.75055 9.72999H12.7505V11C13.0231 10.5271 13.4195 10.1375 13.897 9.87319C14.3745 9.60887 14.9151 9.47984 15.4605 9.49999C17.4605 9.49999 18.9105 10.79 18.9105 13.56V18.74Z" fill="black"/>
</svg>
