<svg width="12" height="12" viewBox="0 0 12 12" fill="none" xmlns="http://www.w3.org/2000/svg">
<path d="M11.7099 5.29002L6.70994 0.290018C6.61484 0.198978 6.50269 0.127613 6.37994 0.0800184C6.13648 -0.0199996 5.8634 -0.0199996 5.61994 0.0800184C5.49719 0.127613 5.38505 0.198978 5.28994 0.290018L0.289941 5.29002C0.196703 5.38326 0.122742 5.49395 0.0722818 5.61577C0.0218215 5.73759 -0.00415039 5.86816 -0.00415039 6.00002C-0.00415039 6.26632 0.101638 6.52172 0.289941 6.71002C0.478245 6.89832 0.73364 7.00411 0.999941 7.00411C1.26624 7.00411 1.52164 6.89832 1.70994 6.71002L4.99994 3.41002V11C4.99994 11.2652 5.1053 11.5196 5.29283 11.7071C5.48037 11.8947 5.73472 12 5.99994 12C6.26516 12 6.51951 11.8947 6.70705 11.7071C6.89458 11.5196 6.99994 11.2652 6.99994 11V3.41002L10.2899 6.71002C10.3829 6.80375 10.4935 6.87814 10.6154 6.92891C10.7372 6.97968 10.8679 7.00582 10.9999 7.00582C11.132 7.00582 11.2627 6.97968 11.3845 6.92891C11.5064 6.87814 11.617 6.80375 11.7099 6.71002C11.8037 6.61706 11.8781 6.50645 11.9288 6.3846C11.9796 6.26274 12.0057 6.13203 12.0057 6.00002C12.0057 5.86801 11.9796 5.7373 11.9288 5.61544C11.8781 5.49358 11.8037 5.38298 11.7099 5.29002Z" fill="white"/>
</svg>
