<svg width="19" height="20" viewBox="0 0 19 20" fill="none" xmlns="http://www.w3.org/2000/svg">
<path d="M16.2379 10.42L10.0579 16.61C9.24769 17.33 8.19302 17.7132 7.1096 17.6814C6.02617 17.6495 4.99587 17.2048 4.22945 16.4384C3.46302 15.672 3.01838 14.6417 2.98649 13.5582C2.9546 12.4748 3.33786 11.4202 4.05787 10.61L12.0579 2.60997C12.5355 2.15627 13.1691 1.9033 13.8279 1.9033C14.4866 1.9033 15.1203 2.15627 15.5979 2.60997C16.0632 3.08156 16.3241 3.71744 16.3241 4.37997C16.3241 5.0425 16.0632 5.67838 15.5979 6.14997L8.69787 13.04C8.62959 13.1135 8.54748 13.1729 8.45625 13.2147C8.36502 13.2565 8.26645 13.2799 8.16616 13.2836C8.06587 13.2874 7.96583 13.2713 7.87176 13.2363C7.77769 13.2014 7.69141 13.1483 7.61787 13.08C7.54433 13.0117 7.48496 12.9296 7.44315 12.8383C7.40134 12.7471 7.37791 12.6485 7.3742 12.5483C7.37048 12.448 7.38656 12.3479 7.42151 12.2539C7.45645 12.1598 7.50959 12.0735 7.57787 12L12.7079 6.87997C12.8962 6.69166 13.002 6.43627 13.002 6.16997C13.002 5.90367 12.8962 5.64827 12.7079 5.45997C12.5196 5.27166 12.2642 5.16588 11.9979 5.16588C11.7316 5.16588 11.4762 5.27166 11.2879 5.45997L6.15787 10.6C5.90118 10.8547 5.69744 11.1577 5.55841 11.4915C5.41937 11.8253 5.34779 12.1834 5.34779 12.545C5.34779 12.9066 5.41937 13.2646 5.55841 13.5984C5.69744 13.9323 5.90118 14.2353 6.15787 14.49C6.68225 14.9895 7.37868 15.2681 8.10287 15.2681C8.82707 15.2681 9.5235 14.9895 10.0479 14.49L16.9379 7.58997C17.7328 6.73692 18.1655 5.60864 18.1449 4.44283C18.1244 3.27703 17.6521 2.16472 16.8276 1.34024C16.0031 0.515759 14.8908 0.0434872 13.725 0.0229179C12.5592 0.00234858 11.4309 0.435088 10.5779 1.22997L2.57787 9.22997C1.49907 10.4248 0.922903 11.9898 0.969408 13.5989C1.01591 15.2081 1.68151 16.7372 2.82751 17.8677C3.97352 18.9983 5.51155 19.643 7.12116 19.6677C8.73077 19.6923 10.2878 19.0949 11.4679 18L17.6579 11.82C17.7511 11.7267 17.8251 11.616 17.8755 11.4942C17.926 11.3724 17.952 11.2418 17.952 11.11C17.952 10.9781 17.926 10.8475 17.8755 10.7257C17.8251 10.6039 17.7511 10.4932 17.6579 10.4C17.5646 10.3067 17.4539 10.2328 17.3321 10.1823C17.2103 10.1318 17.0797 10.1059 16.9479 10.1059C16.816 10.1059 16.6854 10.1318 16.5636 10.1823C16.4418 10.2328 16.3311 10.3067 16.2379 10.4V10.42Z" fill="black"/>
</svg>
