<?xml version="1.0" standalone="no"?>
<!DOCTYPE svg PUBLIC "-//W3C//DTD SVG 20010904//EN"
 "http://www.w3.org/TR/2001/REC-SVG-20010904/DTD/svg10.dtd">
<svg version="1.0" xmlns="http://www.w3.org/2000/svg"
 width="128.000000pt" height="128.000000pt" viewBox="0 0 128.000000 128.000000"
 preserveAspectRatio="xMidYMid meet">
<metadata>
Created by potrace 1.14, written by Peter Selinger 2001-2017
</metadata>
<g transform="translate(0.000000,128.000000) scale(0.100000,-0.100000)"
fill="#000000" stroke="none">
<path d="M145 1257 c-59 -28 -96 -63 -122 -115 -17 -34 -18 -73 -21 -481 -3
-498 -1 -517 64 -584 73 -74 54 -72 579 -72 l470 0 45 28 c55 35 95 89 110
148 7 30 10 188 8 484 -3 487 -2 478 -70 544 -69 67 -56 66 -558 69 l-455 2
-50 -23z"/>
</g>
</svg>
