<svg width="1060" height="174" viewBox="0 0 1060 174" fill="none" xmlns="http://www.w3.org/2000/svg">
<g opacity="0.5">
<mask id="path-1-outside-1_2789_8373" maskUnits="userSpaceOnUse" x="0.228027" y="0.823975" width="1060" height="173" fill="black">
<rect fill="white" x="0.228027" y="0.823975" width="1060" height="173"/>
<path d="M2.22803 171L74.048 11.4H103.232L175.28 171H144.272L82.484 27.132H94.34L32.78 171H2.22803ZM35.288 134.064L43.268 110.808H129.452L137.432 134.064H35.288ZM260.329 172.596C249.993 172.596 240.797 170.316 232.741 165.756C224.685 161.196 218.301 154.356 213.589 145.236C209.029 135.964 206.749 124.26 206.749 110.124C206.749 95.836 209.105 84.132 213.817 75.012C218.681 65.892 225.141 59.128 233.197 54.72C241.405 50.16 250.449 47.88 260.329 47.88C272.337 47.88 282.901 50.464 292.021 55.632C301.293 60.8 308.589 68.02 313.909 77.292C319.381 86.564 322.117 97.508 322.117 110.124C322.117 122.74 319.381 133.684 313.909 142.956C308.589 152.228 301.293 159.524 292.021 164.844C282.901 170.012 272.337 172.596 260.329 172.596ZM192.841 171V1.82397H221.341V77.52L219.061 109.896L219.973 142.272V171H192.841ZM257.137 148.2C263.977 148.2 270.057 146.68 275.377 143.64C280.849 140.6 285.181 136.192 288.373 130.416C291.565 124.64 293.161 117.876 293.161 110.124C293.161 102.22 291.565 95.456 288.373 89.832C285.181 84.056 280.849 79.648 275.377 76.608C270.057 73.568 263.977 72.048 257.137 72.048C250.297 72.048 244.141 73.568 238.669 76.608C233.197 79.648 228.865 84.056 225.673 89.832C222.481 95.456 220.885 102.22 220.885 110.124C220.885 117.876 222.481 124.64 225.673 130.416C228.865 136.192 233.197 140.6 238.669 143.64C244.141 146.68 250.297 148.2 257.137 148.2ZM403.866 172.596C391.402 172.596 380.306 169.936 370.578 164.616C360.85 159.144 353.174 151.696 347.55 142.272C341.926 132.848 339.114 122.132 339.114 110.124C339.114 97.964 341.926 87.248 347.55 77.976C353.174 68.552 360.85 61.18 370.578 55.86C380.306 50.54 391.402 47.88 403.866 47.88C416.482 47.88 427.654 50.54 437.382 55.86C447.262 61.18 454.938 68.476 460.41 77.748C466.034 87.02 468.846 97.812 468.846 110.124C468.846 122.132 466.034 132.848 460.41 142.272C454.938 151.696 447.262 159.144 437.382 164.616C427.654 169.936 416.482 172.596 403.866 172.596ZM403.866 148.2C410.858 148.2 417.09 146.68 422.562 143.64C428.034 140.6 432.29 136.192 435.33 130.416C438.522 124.64 440.118 117.876 440.118 110.124C440.118 102.22 438.522 95.456 435.33 89.832C432.29 84.056 428.034 79.648 422.562 76.608C417.09 73.568 410.934 72.048 404.094 72.048C397.102 72.048 390.87 73.568 385.398 76.608C380.078 79.648 375.822 84.056 372.63 89.832C369.438 95.456 367.842 102.22 367.842 110.124C367.842 117.876 369.438 124.64 372.63 130.416C375.822 136.192 380.078 140.6 385.398 143.64C390.87 146.68 397.026 148.2 403.866 148.2ZM547.627 172.596C537.291 172.596 528.171 170.696 520.267 166.896C512.363 162.944 506.207 157.016 501.799 149.112C497.391 141.056 495.187 130.948 495.187 118.788V49.248H523.687V114.912C523.687 125.856 526.119 134.064 530.983 139.536C535.999 144.856 543.067 147.516 552.187 147.516C558.875 147.516 564.651 146.148 569.515 143.412C574.531 140.676 578.407 136.572 581.143 131.1C584.031 125.628 585.475 118.864 585.475 110.808V49.248H613.975V171H586.843V138.168L591.631 148.2C587.527 156.104 581.523 162.184 573.619 166.44C565.715 170.544 557.051 172.596 547.627 172.596ZM697.119 172.596C683.743 172.596 673.407 169.176 666.111 162.336C658.815 155.344 655.167 145.084 655.167 131.556V22.344H683.667V130.872C683.667 136.648 685.111 141.132 687.999 144.324C691.039 147.516 695.219 149.112 700.539 149.112C706.923 149.112 712.243 147.44 716.499 144.096L724.479 164.388C721.135 167.124 717.031 169.176 712.167 170.544C707.303 171.912 702.287 172.596 697.119 172.596ZM635.103 72.96V50.16H716.271V72.96H635.103ZM862.463 172.596C852.127 172.596 843.007 170.696 835.103 166.896C827.199 162.944 821.043 157.016 816.635 149.112C812.227 141.056 810.023 130.948 810.023 118.788V49.248H838.523V114.912C838.523 125.856 840.955 134.064 845.819 139.536C850.835 144.856 857.903 147.516 867.023 147.516C873.711 147.516 879.487 146.148 884.351 143.412C889.367 140.676 893.243 136.572 895.979 131.1C898.867 125.628 900.311 118.864 900.311 110.808V49.248H928.811V171H901.679V138.168L906.467 148.2C902.363 156.104 896.359 162.184 888.455 166.44C880.551 170.544 871.887 172.596 862.463 172.596ZM1003.75 172.596C993.562 172.596 983.759 171.304 974.335 168.72C965.063 165.984 957.69 162.716 952.219 158.916L963.163 137.256C968.635 140.752 975.171 143.64 982.771 145.92C990.37 148.2 997.971 149.34 1005.57 149.34C1014.54 149.34 1021 148.124 1024.95 145.692C1029.05 143.26 1031.11 139.992 1031.11 135.888C1031.11 132.544 1029.74 130.036 1027 128.364C1024.27 126.54 1020.69 125.172 1016.29 124.26C1011.88 123.348 1006.94 122.512 1001.47 121.752C996.147 120.992 990.75 120.004 985.279 118.788C979.958 117.42 975.095 115.52 970.687 113.088C966.279 110.504 962.707 107.084 959.971 102.828C957.234 98.572 955.867 92.948 955.867 85.956C955.867 78.204 958.07 71.516 962.479 65.892C966.887 60.116 973.043 55.708 980.947 52.668C989.003 49.476 998.503 47.88 1009.45 47.88C1017.65 47.88 1025.94 48.792 1034.3 50.616C1042.66 52.44 1049.57 55.024 1055.05 58.368L1044.1 80.028C1038.33 76.532 1032.47 74.176 1026.55 72.96C1020.77 71.592 1014.99 70.908 1009.22 70.908C1000.55 70.908 994.094 72.2 989.839 74.784C985.734 77.368 983.683 80.636 983.683 84.588C983.683 88.236 985.05 90.972 987.786 92.796C990.523 94.62 994.094 96.064 998.503 97.128C1002.91 98.192 1007.77 99.104 1013.09 99.864C1018.57 100.472 1023.96 101.46 1029.28 102.828C1034.6 104.196 1039.47 106.096 1043.87 108.528C1048.43 110.808 1052.08 114.076 1054.82 118.332C1057.55 122.588 1058.92 128.136 1058.92 134.976C1058.92 142.576 1056.64 149.188 1052.08 154.812C1047.67 160.436 1041.37 164.844 1033.16 168.036C1024.95 171.076 1015.15 172.596 1003.75 172.596Z"/>
</mask>
<path d="M2.22803 171L74.048 11.4H103.232L175.28 171H144.272L82.484 27.132H94.34L32.78 171H2.22803ZM35.288 134.064L43.268 110.808H129.452L137.432 134.064H35.288ZM260.329 172.596C249.993 172.596 240.797 170.316 232.741 165.756C224.685 161.196 218.301 154.356 213.589 145.236C209.029 135.964 206.749 124.26 206.749 110.124C206.749 95.836 209.105 84.132 213.817 75.012C218.681 65.892 225.141 59.128 233.197 54.72C241.405 50.16 250.449 47.88 260.329 47.88C272.337 47.88 282.901 50.464 292.021 55.632C301.293 60.8 308.589 68.02 313.909 77.292C319.381 86.564 322.117 97.508 322.117 110.124C322.117 122.74 319.381 133.684 313.909 142.956C308.589 152.228 301.293 159.524 292.021 164.844C282.901 170.012 272.337 172.596 260.329 172.596ZM192.841 171V1.82397H221.341V77.52L219.061 109.896L219.973 142.272V171H192.841ZM257.137 148.2C263.977 148.2 270.057 146.68 275.377 143.64C280.849 140.6 285.181 136.192 288.373 130.416C291.565 124.64 293.161 117.876 293.161 110.124C293.161 102.22 291.565 95.456 288.373 89.832C285.181 84.056 280.849 79.648 275.377 76.608C270.057 73.568 263.977 72.048 257.137 72.048C250.297 72.048 244.141 73.568 238.669 76.608C233.197 79.648 228.865 84.056 225.673 89.832C222.481 95.456 220.885 102.22 220.885 110.124C220.885 117.876 222.481 124.64 225.673 130.416C228.865 136.192 233.197 140.6 238.669 143.64C244.141 146.68 250.297 148.2 257.137 148.2ZM403.866 172.596C391.402 172.596 380.306 169.936 370.578 164.616C360.85 159.144 353.174 151.696 347.55 142.272C341.926 132.848 339.114 122.132 339.114 110.124C339.114 97.964 341.926 87.248 347.55 77.976C353.174 68.552 360.85 61.18 370.578 55.86C380.306 50.54 391.402 47.88 403.866 47.88C416.482 47.88 427.654 50.54 437.382 55.86C447.262 61.18 454.938 68.476 460.41 77.748C466.034 87.02 468.846 97.812 468.846 110.124C468.846 122.132 466.034 132.848 460.41 142.272C454.938 151.696 447.262 159.144 437.382 164.616C427.654 169.936 416.482 172.596 403.866 172.596ZM403.866 148.2C410.858 148.2 417.09 146.68 422.562 143.64C428.034 140.6 432.29 136.192 435.33 130.416C438.522 124.64 440.118 117.876 440.118 110.124C440.118 102.22 438.522 95.456 435.33 89.832C432.29 84.056 428.034 79.648 422.562 76.608C417.09 73.568 410.934 72.048 404.094 72.048C397.102 72.048 390.87 73.568 385.398 76.608C380.078 79.648 375.822 84.056 372.63 89.832C369.438 95.456 367.842 102.22 367.842 110.124C367.842 117.876 369.438 124.64 372.63 130.416C375.822 136.192 380.078 140.6 385.398 143.64C390.87 146.68 397.026 148.2 403.866 148.2ZM547.627 172.596C537.291 172.596 528.171 170.696 520.267 166.896C512.363 162.944 506.207 157.016 501.799 149.112C497.391 141.056 495.187 130.948 495.187 118.788V49.248H523.687V114.912C523.687 125.856 526.119 134.064 530.983 139.536C535.999 144.856 543.067 147.516 552.187 147.516C558.875 147.516 564.651 146.148 569.515 143.412C574.531 140.676 578.407 136.572 581.143 131.1C584.031 125.628 585.475 118.864 585.475 110.808V49.248H613.975V171H586.843V138.168L591.631 148.2C587.527 156.104 581.523 162.184 573.619 166.44C565.715 170.544 557.051 172.596 547.627 172.596ZM697.119 172.596C683.743 172.596 673.407 169.176 666.111 162.336C658.815 155.344 655.167 145.084 655.167 131.556V22.344H683.667V130.872C683.667 136.648 685.111 141.132 687.999 144.324C691.039 147.516 695.219 149.112 700.539 149.112C706.923 149.112 712.243 147.44 716.499 144.096L724.479 164.388C721.135 167.124 717.031 169.176 712.167 170.544C707.303 171.912 702.287 172.596 697.119 172.596ZM635.103 72.96V50.16H716.271V72.96H635.103ZM862.463 172.596C852.127 172.596 843.007 170.696 835.103 166.896C827.199 162.944 821.043 157.016 816.635 149.112C812.227 141.056 810.023 130.948 810.023 118.788V49.248H838.523V114.912C838.523 125.856 840.955 134.064 845.819 139.536C850.835 144.856 857.903 147.516 867.023 147.516C873.711 147.516 879.487 146.148 884.351 143.412C889.367 140.676 893.243 136.572 895.979 131.1C898.867 125.628 900.311 118.864 900.311 110.808V49.248H928.811V171H901.679V138.168L906.467 148.2C902.363 156.104 896.359 162.184 888.455 166.44C880.551 170.544 871.887 172.596 862.463 172.596ZM1003.75 172.596C993.562 172.596 983.759 171.304 974.335 168.72C965.063 165.984 957.69 162.716 952.219 158.916L963.163 137.256C968.635 140.752 975.171 143.64 982.771 145.92C990.37 148.2 997.971 149.34 1005.57 149.34C1014.54 149.34 1021 148.124 1024.95 145.692C1029.05 143.26 1031.11 139.992 1031.11 135.888C1031.11 132.544 1029.74 130.036 1027 128.364C1024.27 126.54 1020.69 125.172 1016.29 124.26C1011.88 123.348 1006.94 122.512 1001.47 121.752C996.147 120.992 990.75 120.004 985.279 118.788C979.958 117.42 975.095 115.52 970.687 113.088C966.279 110.504 962.707 107.084 959.971 102.828C957.234 98.572 955.867 92.948 955.867 85.956C955.867 78.204 958.07 71.516 962.479 65.892C966.887 60.116 973.043 55.708 980.947 52.668C989.003 49.476 998.503 47.88 1009.45 47.88C1017.65 47.88 1025.94 48.792 1034.3 50.616C1042.66 52.44 1049.57 55.024 1055.05 58.368L1044.1 80.028C1038.33 76.532 1032.47 74.176 1026.55 72.96C1020.77 71.592 1014.99 70.908 1009.22 70.908C1000.55 70.908 994.094 72.2 989.839 74.784C985.734 77.368 983.683 80.636 983.683 84.588C983.683 88.236 985.05 90.972 987.786 92.796C990.523 94.62 994.094 96.064 998.503 97.128C1002.91 98.192 1007.77 99.104 1013.09 99.864C1018.57 100.472 1023.96 101.46 1029.28 102.828C1034.6 104.196 1039.47 106.096 1043.87 108.528C1048.43 110.808 1052.08 114.076 1054.82 118.332C1057.55 122.588 1058.92 128.136 1058.92 134.976C1058.92 142.576 1056.64 149.188 1052.08 154.812C1047.67 160.436 1041.37 164.844 1033.16 168.036C1024.95 171.076 1015.15 172.596 1003.75 172.596Z" stroke="#56CCF2" stroke-width="2" mask="url(#path-1-outside-1_2789_8373)"/>
</g>
</svg>
