<svg width="28" height="28" viewBox="0 0 28 28" fill="none" xmlns="http://www.w3.org/2000/svg">
<path d="M8.66669 24.6667H4.66669C4.31307 24.6667 3.97393 24.5262 3.72388 24.2761C3.47383 24.0261 3.33335 23.687 3.33335 23.3333V19.3333C3.33335 18.9797 3.19288 18.6406 2.94283 18.3905C2.69278 18.1405 2.35364 18 2.00002 18C1.6464 18 1.30726 18.1405 1.05721 18.3905C0.807163 18.6406 0.666687 18.9797 0.666687 19.3333V23.3333C0.666687 24.3942 1.08811 25.4116 1.83826 26.1618C2.58841 26.9119 3.60582 27.3333 4.66669 27.3333H8.66669C9.02031 27.3333 9.35945 27.1929 9.6095 26.9428C9.85954 26.6928 10 26.3536 10 26C10 25.6464 9.85954 25.3072 9.6095 25.0572C9.35945 24.8071 9.02031 24.6667 8.66669 24.6667ZM2.00002 10C2.35364 10 2.69278 9.85953 2.94283 9.60948C3.19288 9.35943 3.33335 9.02029 3.33335 8.66667V4.66667C3.33335 4.31305 3.47383 3.97391 3.72388 3.72386C3.97393 3.47381 4.31307 3.33334 4.66669 3.33334H8.66669C9.02031 3.33334 9.35945 3.19286 9.6095 2.94281C9.85954 2.69277 10 2.35363 10 2.00001C10 1.64638 9.85954 1.30724 9.6095 1.0572C9.35945 0.807147 9.02031 0.666672 8.66669 0.666672H4.66669C3.60582 0.666672 2.58841 1.0881 1.83826 1.83824C1.08811 2.58839 0.666687 3.60581 0.666687 4.66667V8.66667C0.666687 9.02029 0.807163 9.35943 1.05721 9.60948C1.30726 9.85953 1.6464 10 2.00002 10ZM23.3334 0.666672H19.3334C18.9797 0.666672 18.6406 0.807147 18.3905 1.0572C18.1405 1.30724 18 1.64638 18 2.00001C18 2.35363 18.1405 2.69277 18.3905 2.94281C18.6406 3.19286 18.9797 3.33334 19.3334 3.33334H23.3334C23.687 3.33334 24.0261 3.47381 24.2762 3.72386C24.5262 3.97391 24.6667 4.31305 24.6667 4.66667V8.66667C24.6667 9.02029 24.8072 9.35943 25.0572 9.60948C25.3073 9.85953 25.6464 10 26 10C26.3536 10 26.6928 9.85953 26.9428 9.60948C27.1929 9.35943 27.3334 9.02029 27.3334 8.66667V4.66667C27.3334 3.60581 26.9119 2.58839 26.1618 1.83824C25.4116 1.0881 24.3942 0.666672 23.3334 0.666672ZM19.3334 14C19.3334 13.6464 19.1929 13.3072 18.9428 13.0572C18.6928 12.8071 18.3536 12.6667 18 12.6667H15.3334V10C15.3334 9.64638 15.1929 9.30725 14.9428 9.0572C14.6928 8.80715 14.3536 8.66667 14 8.66667C13.6464 8.66667 13.3073 8.80715 13.0572 9.0572C12.8072 9.30725 12.6667 9.64638 12.6667 10V12.6667H10C9.6464 12.6667 9.30726 12.8071 9.05721 13.0572C8.80716 13.3072 8.66669 13.6464 8.66669 14C8.66669 14.3536 8.80716 14.6928 9.05721 14.9428C9.30726 15.1929 9.6464 15.3333 10 15.3333H12.6667V18C12.6667 18.3536 12.8072 18.6928 13.0572 18.9428C13.3073 19.1929 13.6464 19.3333 14 19.3333C14.3536 19.3333 14.6928 19.1929 14.9428 18.9428C15.1929 18.6928 15.3334 18.3536 15.3334 18V15.3333H18C18.3536 15.3333 18.6928 15.1929 18.9428 14.9428C19.1929 14.6928 19.3334 14.3536 19.3334 14ZM26 18C25.6464 18 25.3073 18.1405 25.0572 18.3905C24.8072 18.6406 24.6667 18.9797 24.6667 19.3333V23.3333C24.6667 23.687 24.5262 24.0261 24.2762 24.2761C24.0261 24.5262 23.687 24.6667 23.3334 24.6667H19.3334C18.9797 24.6667 18.6406 24.8071 18.3905 25.0572C18.1405 25.3072 18 25.6464 18 26C18 26.3536 18.1405 26.6928 18.3905 26.9428C18.6406 27.1929 18.9797 27.3333 19.3334 27.3333H23.3334C24.3942 27.3333 25.4116 26.9119 26.1618 26.1618C26.9119 25.4116 27.3334 24.3942 27.3334 23.3333V19.3333C27.3334 18.9797 27.1929 18.6406 26.9428 18.3905C26.6928 18.1405 26.3536 18 26 18Z" fill="#3FC1FF"/>
</svg>
