<svg width="38" height="22" viewBox="0 0 38 22" fill="none" xmlns="http://www.w3.org/2000/svg">
<path d="M28.3337 7.8L31.4003 2.5C31.667 1.98333 31.467 1.35 30.967 1.08333C30.4837 0.833331 29.8837 0.983331 29.5837 1.45L26.4503 6.85C21.6837 4.83333 16.317 4.83333 11.5503 6.85L8.41699 1.45C8.10033 0.966664 7.45033 0.816664 6.96699 1.11666C6.50033 1.41666 6.35033 2.01666 6.60032 2.5L9.66699 7.8C4.50033 10.75 1.13366 16.0667 0.666992 22H37.3337C36.867 16.0667 33.5003 10.75 28.3337 7.8ZM10.667 17.4167C9.51699 17.4167 8.58366 16.4833 8.58366 15.3333C8.58366 14.1833 9.51699 13.25 10.667 13.25C11.817 13.25 12.7503 14.1833 12.7503 15.3333C12.7503 16.4833 11.817 17.4167 10.667 17.4167ZM27.3337 17.4167C26.1837 17.4167 25.2503 16.4833 25.2503 15.3333C25.2503 14.1833 26.1837 13.25 27.3337 13.25C28.4837 13.25 29.417 14.1833 29.417 15.3333C29.417 16.4833 28.4837 17.4167 27.3337 17.4167Z" fill="#105475"/>
</svg>
