<svg width="16" height="18" viewBox="0 0 16 18" fill="none" xmlns="http://www.w3.org/2000/svg">
<path d="M15.8933 8.49293C15.8299 8.32926 15.7347 8.17973 15.6133 8.05293L8.94667 1.38626C8.82235 1.26194 8.67476 1.16333 8.51233 1.09605C8.3499 1.02877 8.17581 0.994141 8 0.994141C7.64493 0.994141 7.30441 1.13519 7.05333 1.38626C6.92902 1.51058 6.8304 1.65817 6.76312 1.8206C6.69584 1.98303 6.66121 2.15712 6.66121 2.33293C6.66121 2.688 6.80226 3.02852 7.05333 3.2796L11.4533 7.66626H1.33333C0.979711 7.66626 0.640573 7.80674 0.390525 8.05679C0.140476 8.30684 0 8.64597 0 8.9996C0 9.35322 0.140476 9.69236 0.390525 9.9424C0.640573 10.1925 0.979711 10.3329 1.33333 10.3329H11.4533L7.05333 14.7196C6.92836 14.8435 6.82917 14.991 6.76148 15.1535C6.69379 15.316 6.65894 15.4902 6.65894 15.6663C6.65894 15.8423 6.69379 16.0166 6.76148 16.179C6.82917 16.3415 6.92836 16.489 7.05333 16.6129C7.17728 16.7379 7.32475 16.8371 7.48723 16.9048C7.64971 16.9725 7.82398 17.0073 8 17.0073C8.17602 17.0073 8.35029 16.9725 8.51277 16.9048C8.67525 16.8371 8.82272 16.7379 8.94667 16.6129L15.6133 9.94626C15.7347 9.81946 15.8299 9.66993 15.8933 9.50626C16.0267 9.18165 16.0267 8.81754 15.8933 8.49293Z" fill="white"/>
</svg>
