<svg width="13" height="14" viewBox="0 0 13 14" fill="none" xmlns="http://www.w3.org/2000/svg">
<path d="M12.42 6.61994C12.3724 6.49719 12.301 6.38505 12.21 6.28994L7.21 1.28994C7.11676 1.1967 7.00607 1.12274 6.88425 1.07228C6.76243 1.02182 6.63186 0.99585 6.5 0.99585C6.2337 0.99585 5.9783 1.10164 5.79 1.28994C5.69676 1.38318 5.6228 1.49387 5.57234 1.61569C5.52188 1.73751 5.49591 1.86808 5.49591 1.99994C5.49591 2.26624 5.6017 2.52164 5.79 2.70994L9.09 5.99994H1.5C1.23478 5.99994 0.98043 6.1053 0.792893 6.29283C0.605357 6.48037 0.5 6.73472 0.5 6.99994C0.5 7.26516 0.605357 7.51951 0.792893 7.70705C0.98043 7.89458 1.23478 7.99994 1.5 7.99994H9.09L5.79 11.2899C5.69627 11.3829 5.62188 11.4935 5.57111 11.6154C5.52034 11.7372 5.4942 11.8679 5.4942 11.9999C5.4942 12.132 5.52034 12.2627 5.57111 12.3845C5.62188 12.5064 5.69627 12.617 5.79 12.7099C5.88296 12.8037 5.99356 12.8781 6.11542 12.9288C6.23728 12.9796 6.36799 13.0057 6.5 13.0057C6.63201 13.0057 6.76272 12.9796 6.88458 12.9288C7.00644 12.8781 7.11704 12.8037 7.21 12.7099L12.21 7.70994C12.301 7.61484 12.3724 7.50269 12.42 7.37994C12.52 7.13648 12.52 6.8634 12.42 6.61994Z" fill="#219FDB"/>
</svg>
