<svg width="1034" height="167" viewBox="0 0 1034 167" fill="none" xmlns="http://www.w3.org/2000/svg">
<g opacity="0.5">
<mask id="path-1-outside-1_2789_8385" maskUnits="userSpaceOnUse" x="0.274658" y="0.120117" width="1034" height="167" fill="black">
<rect fill="white" x="0.274658" y="0.120117" width="1034" height="167"/>
<path d="M86.5467 165.28C74.3867 165.28 63.0627 163.304 52.5747 159.352C42.2387 155.248 33.1947 149.548 25.4427 142.252C17.8427 134.804 11.9147 126.064 7.65866 116.032C3.40266 106 1.27466 95.0561 1.27466 83.2001C1.27466 71.3441 3.40266 60.4001 7.65866 50.3681C11.9147 40.3361 17.9187 31.6721 25.6707 24.3761C33.4227 16.9281 42.4667 11.2281 52.8027 7.27612C63.1387 3.17212 74.4627 1.12012 86.7747 1.12012C99.8467 1.12012 111.779 3.40012 122.571 7.96012C133.363 12.3681 142.483 18.9801 149.931 27.7961L130.779 45.8081C125.003 39.5761 118.543 34.9401 111.399 31.9001C104.255 28.7081 96.5027 27.1121 88.1427 27.1121C79.7827 27.1121 72.1067 28.4801 65.1147 31.2161C58.2747 33.9521 52.2707 37.8281 47.1027 42.8441C42.0867 47.8601 38.1347 53.7881 35.2467 60.6281C32.5107 67.4681 31.1427 74.9921 31.1427 83.2001C31.1427 91.4081 32.5107 98.9321 35.2467 105.772C38.1347 112.612 42.0867 118.54 47.1027 123.556C52.2707 128.572 58.2747 132.448 65.1147 135.184C72.1067 137.92 79.7827 139.288 88.1427 139.288C96.5027 139.288 104.255 137.768 111.399 134.728C118.543 131.536 125.003 126.748 130.779 120.364L149.931 138.604C142.483 147.268 133.363 153.88 122.571 158.44C111.779 163 99.7707 165.28 86.5467 165.28ZM225.639 164.596C213.175 164.596 202.079 161.936 192.351 156.616C182.623 151.144 174.947 143.696 169.323 134.272C163.699 124.848 160.887 114.132 160.887 102.124C160.887 89.9641 163.699 79.2481 169.323 69.9761C174.947 60.5521 182.623 53.1801 192.351 47.8601C202.079 42.5401 213.175 39.8801 225.639 39.8801C238.255 39.8801 249.427 42.5401 259.155 47.8601C269.035 53.1801 276.711 60.4761 282.183 69.7481C287.807 79.0201 290.619 89.8121 290.619 102.124C290.619 114.132 287.807 124.848 282.183 134.272C276.711 143.696 269.035 151.144 259.155 156.616C249.427 161.936 238.255 164.596 225.639 164.596ZM225.639 140.2C232.631 140.2 238.863 138.68 244.335 135.64C249.807 132.6 254.063 128.192 257.103 122.416C260.295 116.64 261.891 109.876 261.891 102.124C261.891 94.2201 260.295 87.4561 257.103 81.8321C254.063 76.0561 249.807 71.6481 244.335 68.6081C238.863 65.5681 232.707 64.0481 225.867 64.0481C218.875 64.0481 212.643 65.5681 207.171 68.6081C201.851 71.6481 197.595 76.0561 194.403 81.8321C191.211 87.4561 189.615 94.2201 189.615 102.124C189.615 109.876 191.211 116.64 194.403 122.416C197.595 128.192 201.851 132.6 207.171 135.64C212.643 138.68 218.799 140.2 225.639 140.2ZM386.956 39.8801C396.684 39.8801 405.348 41.7801 412.948 45.5801C420.7 49.3801 426.78 55.2321 431.188 63.1361C435.596 70.8881 437.8 80.9201 437.8 93.2321V163H409.3V96.8801C409.3 86.0881 406.716 78.0321 401.548 72.7121C396.532 67.3921 389.464 64.7321 380.344 64.7321C373.656 64.7321 367.728 66.1001 362.56 68.8361C357.392 71.5721 353.364 75.6761 350.476 81.1481C347.74 86.4681 346.372 93.2321 346.372 101.44V163H317.872V41.2481H345.004V74.0801L340.216 64.0481C344.472 56.2961 350.628 50.3681 358.684 46.2641C366.892 42.0081 376.316 39.8801 386.956 39.8801ZM519.782 164.596C506.406 164.596 496.07 161.176 488.774 154.336C481.478 147.344 477.83 137.084 477.83 123.556V14.3441H506.33V122.872C506.33 128.648 507.774 133.132 510.662 136.324C513.702 139.516 517.882 141.112 523.202 141.112C529.586 141.112 534.906 139.44 539.162 136.096L547.142 156.388C543.798 159.124 539.694 161.176 534.83 162.544C529.966 163.912 524.95 164.596 519.782 164.596ZM457.766 64.9601V42.1601H538.934V64.9601H457.766ZM645.599 163V138.376L644.003 133.132V90.0401C644.003 81.6801 641.495 75.2201 636.479 70.6601C631.463 65.9481 623.863 63.5921 613.679 63.5921C606.839 63.5921 600.075 64.6561 593.387 66.7841C586.851 68.9121 581.303 71.8761 576.743 75.6761L565.571 54.9281C572.107 49.9121 579.859 46.1881 588.827 43.7561C597.947 41.1721 607.371 39.8801 617.099 39.8801C634.731 39.8801 648.335 44.1361 657.911 52.6481C667.639 61.0081 672.503 74.0041 672.503 91.6361V163H645.599ZM607.295 164.596C598.175 164.596 590.195 163.076 583.355 160.036C576.515 156.844 571.195 152.512 567.395 147.04C563.747 141.416 561.923 135.108 561.923 128.116C561.923 121.276 563.519 115.12 566.711 109.648C570.055 104.176 575.451 99.8441 582.899 96.6521C590.347 93.4601 600.227 91.8641 612.539 91.8641H647.879V110.788H614.591C604.863 110.788 598.327 112.384 594.983 115.576C591.639 118.616 589.967 122.416 589.967 126.976C589.967 132.144 592.019 136.248 596.123 139.288C600.227 142.328 605.927 143.848 613.223 143.848C620.215 143.848 626.447 142.252 631.919 139.06C637.543 135.868 641.571 131.156 644.003 124.924L648.791 142.024C646.055 149.168 641.115 154.716 633.971 158.668C626.979 162.62 618.087 164.596 607.295 164.596ZM765.162 164.596C752.394 164.596 740.994 161.936 730.962 156.616C721.082 151.144 713.33 143.696 707.706 134.272C702.082 124.848 699.27 114.132 699.27 102.124C699.27 89.9641 702.082 79.2481 707.706 69.9761C713.33 60.5521 721.082 53.1801 730.962 47.8601C740.994 42.5401 752.394 39.8801 765.162 39.8801C777.018 39.8801 787.43 42.3121 796.398 47.1761C805.518 51.8881 812.434 58.8801 817.146 68.1521L795.258 80.9201C791.61 75.1441 787.126 70.8881 781.806 68.1521C776.638 65.4161 771.014 64.0481 764.934 64.0481C757.942 64.0481 751.634 65.5681 746.01 68.6081C740.386 71.6481 735.978 76.0561 732.786 81.8321C729.594 87.4561 727.998 94.2201 727.998 102.124C727.998 110.028 729.594 116.868 732.786 122.644C735.978 128.268 740.386 132.6 746.01 135.64C751.634 138.68 757.942 140.2 764.934 140.2C771.014 140.2 776.638 138.832 781.806 136.096C787.126 133.36 791.61 129.104 795.258 123.328L817.146 136.096C812.434 145.216 805.518 152.284 796.398 157.3C787.43 162.164 777.018 164.596 765.162 164.596ZM889.169 164.596C875.793 164.596 865.457 161.176 858.161 154.336C850.865 147.344 847.217 137.084 847.217 123.556V14.3441H875.717V122.872C875.717 128.648 877.161 133.132 880.049 136.324C883.089 139.516 887.269 141.112 892.589 141.112C898.973 141.112 904.293 139.44 908.549 136.096L916.529 156.388C913.185 159.124 909.081 161.176 904.217 162.544C899.353 163.912 894.337 164.596 889.169 164.596ZM827.153 64.9601V42.1601H908.321V64.9601H827.153ZM977.594 164.596C967.41 164.596 957.606 163.304 948.182 160.72C938.91 157.984 931.538 154.716 926.066 150.916L937.01 129.256C942.482 132.752 949.018 135.64 956.618 137.92C964.218 140.2 971.818 141.34 979.418 141.34C988.386 141.34 994.846 140.124 998.798 137.692C1002.9 135.26 1004.95 131.992 1004.95 127.888C1004.95 124.544 1003.59 122.036 1000.85 120.364C998.114 118.54 994.542 117.172 990.134 116.26C985.726 115.348 980.786 114.512 975.314 113.752C969.994 112.992 964.598 112.004 959.126 110.788C953.806 109.42 948.942 107.52 944.534 105.088C940.126 102.504 936.554 99.0841 933.818 94.8281C931.082 90.5721 929.714 84.9481 929.714 77.9561C929.714 70.2041 931.918 63.5161 936.326 57.8921C940.734 52.1161 946.89 47.7081 954.794 44.6681C962.85 41.4761 972.35 39.8801 983.294 39.8801C991.502 39.8801 999.786 40.7921 1008.15 42.6161C1016.51 44.4401 1023.42 47.0241 1028.89 50.3681L1017.95 72.0281C1012.17 68.5321 1006.32 66.1761 1000.39 64.9601C994.618 63.5921 988.842 62.9081 983.066 62.9081C974.402 62.9081 967.942 64.2001 963.686 66.7841C959.582 69.3681 957.53 72.6361 957.53 76.5881C957.53 80.2361 958.898 82.9721 961.634 84.7961C964.37 86.6201 967.942 88.0641 972.35 89.1281C976.758 90.1921 981.622 91.1041 986.942 91.8641C992.414 92.4721 997.81 93.4601 1003.13 94.8281C1008.45 96.1961 1013.31 98.0961 1017.72 100.528C1022.28 102.808 1025.93 106.076 1028.67 110.332C1031.4 114.588 1032.77 120.136 1032.77 126.976C1032.77 134.576 1030.49 141.188 1025.93 146.812C1021.52 152.436 1015.21 156.844 1007.01 160.036C998.798 163.076 988.994 164.596 977.594 164.596Z"/>
</mask>
<path d="M86.5467 165.28C74.3867 165.28 63.0627 163.304 52.5747 159.352C42.2387 155.248 33.1947 149.548 25.4427 142.252C17.8427 134.804 11.9147 126.064 7.65866 116.032C3.40266 106 1.27466 95.0561 1.27466 83.2001C1.27466 71.3441 3.40266 60.4001 7.65866 50.3681C11.9147 40.3361 17.9187 31.6721 25.6707 24.3761C33.4227 16.9281 42.4667 11.2281 52.8027 7.27612C63.1387 3.17212 74.4627 1.12012 86.7747 1.12012C99.8467 1.12012 111.779 3.40012 122.571 7.96012C133.363 12.3681 142.483 18.9801 149.931 27.7961L130.779 45.8081C125.003 39.5761 118.543 34.9401 111.399 31.9001C104.255 28.7081 96.5027 27.1121 88.1427 27.1121C79.7827 27.1121 72.1067 28.4801 65.1147 31.2161C58.2747 33.9521 52.2707 37.8281 47.1027 42.8441C42.0867 47.8601 38.1347 53.7881 35.2467 60.6281C32.5107 67.4681 31.1427 74.9921 31.1427 83.2001C31.1427 91.4081 32.5107 98.9321 35.2467 105.772C38.1347 112.612 42.0867 118.54 47.1027 123.556C52.2707 128.572 58.2747 132.448 65.1147 135.184C72.1067 137.92 79.7827 139.288 88.1427 139.288C96.5027 139.288 104.255 137.768 111.399 134.728C118.543 131.536 125.003 126.748 130.779 120.364L149.931 138.604C142.483 147.268 133.363 153.88 122.571 158.44C111.779 163 99.7707 165.28 86.5467 165.28ZM225.639 164.596C213.175 164.596 202.079 161.936 192.351 156.616C182.623 151.144 174.947 143.696 169.323 134.272C163.699 124.848 160.887 114.132 160.887 102.124C160.887 89.9641 163.699 79.2481 169.323 69.9761C174.947 60.5521 182.623 53.1801 192.351 47.8601C202.079 42.5401 213.175 39.8801 225.639 39.8801C238.255 39.8801 249.427 42.5401 259.155 47.8601C269.035 53.1801 276.711 60.4761 282.183 69.7481C287.807 79.0201 290.619 89.8121 290.619 102.124C290.619 114.132 287.807 124.848 282.183 134.272C276.711 143.696 269.035 151.144 259.155 156.616C249.427 161.936 238.255 164.596 225.639 164.596ZM225.639 140.2C232.631 140.2 238.863 138.68 244.335 135.64C249.807 132.6 254.063 128.192 257.103 122.416C260.295 116.64 261.891 109.876 261.891 102.124C261.891 94.2201 260.295 87.4561 257.103 81.8321C254.063 76.0561 249.807 71.6481 244.335 68.6081C238.863 65.5681 232.707 64.0481 225.867 64.0481C218.875 64.0481 212.643 65.5681 207.171 68.6081C201.851 71.6481 197.595 76.0561 194.403 81.8321C191.211 87.4561 189.615 94.2201 189.615 102.124C189.615 109.876 191.211 116.64 194.403 122.416C197.595 128.192 201.851 132.6 207.171 135.64C212.643 138.68 218.799 140.2 225.639 140.2ZM386.956 39.8801C396.684 39.8801 405.348 41.7801 412.948 45.5801C420.7 49.3801 426.78 55.2321 431.188 63.1361C435.596 70.8881 437.8 80.9201 437.8 93.2321V163H409.3V96.8801C409.3 86.0881 406.716 78.0321 401.548 72.7121C396.532 67.3921 389.464 64.7321 380.344 64.7321C373.656 64.7321 367.728 66.1001 362.56 68.8361C357.392 71.5721 353.364 75.6761 350.476 81.1481C347.74 86.4681 346.372 93.2321 346.372 101.44V163H317.872V41.2481H345.004V74.0801L340.216 64.0481C344.472 56.2961 350.628 50.3681 358.684 46.2641C366.892 42.0081 376.316 39.8801 386.956 39.8801ZM519.782 164.596C506.406 164.596 496.07 161.176 488.774 154.336C481.478 147.344 477.83 137.084 477.83 123.556V14.3441H506.33V122.872C506.33 128.648 507.774 133.132 510.662 136.324C513.702 139.516 517.882 141.112 523.202 141.112C529.586 141.112 534.906 139.44 539.162 136.096L547.142 156.388C543.798 159.124 539.694 161.176 534.83 162.544C529.966 163.912 524.95 164.596 519.782 164.596ZM457.766 64.9601V42.1601H538.934V64.9601H457.766ZM645.599 163V138.376L644.003 133.132V90.0401C644.003 81.6801 641.495 75.2201 636.479 70.6601C631.463 65.9481 623.863 63.5921 613.679 63.5921C606.839 63.5921 600.075 64.6561 593.387 66.7841C586.851 68.9121 581.303 71.8761 576.743 75.6761L565.571 54.9281C572.107 49.9121 579.859 46.1881 588.827 43.7561C597.947 41.1721 607.371 39.8801 617.099 39.8801C634.731 39.8801 648.335 44.1361 657.911 52.6481C667.639 61.0081 672.503 74.0041 672.503 91.6361V163H645.599ZM607.295 164.596C598.175 164.596 590.195 163.076 583.355 160.036C576.515 156.844 571.195 152.512 567.395 147.04C563.747 141.416 561.923 135.108 561.923 128.116C561.923 121.276 563.519 115.12 566.711 109.648C570.055 104.176 575.451 99.8441 582.899 96.6521C590.347 93.4601 600.227 91.8641 612.539 91.8641H647.879V110.788H614.591C604.863 110.788 598.327 112.384 594.983 115.576C591.639 118.616 589.967 122.416 589.967 126.976C589.967 132.144 592.019 136.248 596.123 139.288C600.227 142.328 605.927 143.848 613.223 143.848C620.215 143.848 626.447 142.252 631.919 139.06C637.543 135.868 641.571 131.156 644.003 124.924L648.791 142.024C646.055 149.168 641.115 154.716 633.971 158.668C626.979 162.62 618.087 164.596 607.295 164.596ZM765.162 164.596C752.394 164.596 740.994 161.936 730.962 156.616C721.082 151.144 713.33 143.696 707.706 134.272C702.082 124.848 699.27 114.132 699.27 102.124C699.27 89.9641 702.082 79.2481 707.706 69.9761C713.33 60.5521 721.082 53.1801 730.962 47.8601C740.994 42.5401 752.394 39.8801 765.162 39.8801C777.018 39.8801 787.43 42.3121 796.398 47.1761C805.518 51.8881 812.434 58.8801 817.146 68.1521L795.258 80.9201C791.61 75.1441 787.126 70.8881 781.806 68.1521C776.638 65.4161 771.014 64.0481 764.934 64.0481C757.942 64.0481 751.634 65.5681 746.01 68.6081C740.386 71.6481 735.978 76.0561 732.786 81.8321C729.594 87.4561 727.998 94.2201 727.998 102.124C727.998 110.028 729.594 116.868 732.786 122.644C735.978 128.268 740.386 132.6 746.01 135.64C751.634 138.68 757.942 140.2 764.934 140.2C771.014 140.2 776.638 138.832 781.806 136.096C787.126 133.36 791.61 129.104 795.258 123.328L817.146 136.096C812.434 145.216 805.518 152.284 796.398 157.3C787.43 162.164 777.018 164.596 765.162 164.596ZM889.169 164.596C875.793 164.596 865.457 161.176 858.161 154.336C850.865 147.344 847.217 137.084 847.217 123.556V14.3441H875.717V122.872C875.717 128.648 877.161 133.132 880.049 136.324C883.089 139.516 887.269 141.112 892.589 141.112C898.973 141.112 904.293 139.44 908.549 136.096L916.529 156.388C913.185 159.124 909.081 161.176 904.217 162.544C899.353 163.912 894.337 164.596 889.169 164.596ZM827.153 64.9601V42.1601H908.321V64.9601H827.153ZM977.594 164.596C967.41 164.596 957.606 163.304 948.182 160.72C938.91 157.984 931.538 154.716 926.066 150.916L937.01 129.256C942.482 132.752 949.018 135.64 956.618 137.92C964.218 140.2 971.818 141.34 979.418 141.34C988.386 141.34 994.846 140.124 998.798 137.692C1002.9 135.26 1004.95 131.992 1004.95 127.888C1004.95 124.544 1003.59 122.036 1000.85 120.364C998.114 118.54 994.542 117.172 990.134 116.26C985.726 115.348 980.786 114.512 975.314 113.752C969.994 112.992 964.598 112.004 959.126 110.788C953.806 109.42 948.942 107.52 944.534 105.088C940.126 102.504 936.554 99.0841 933.818 94.8281C931.082 90.5721 929.714 84.9481 929.714 77.9561C929.714 70.2041 931.918 63.5161 936.326 57.8921C940.734 52.1161 946.89 47.7081 954.794 44.6681C962.85 41.4761 972.35 39.8801 983.294 39.8801C991.502 39.8801 999.786 40.7921 1008.15 42.6161C1016.51 44.4401 1023.42 47.0241 1028.89 50.3681L1017.95 72.0281C1012.17 68.5321 1006.32 66.1761 1000.39 64.9601C994.618 63.5921 988.842 62.9081 983.066 62.9081C974.402 62.9081 967.942 64.2001 963.686 66.7841C959.582 69.3681 957.53 72.6361 957.53 76.5881C957.53 80.2361 958.898 82.9721 961.634 84.7961C964.37 86.6201 967.942 88.0641 972.35 89.1281C976.758 90.1921 981.622 91.1041 986.942 91.8641C992.414 92.4721 997.81 93.4601 1003.13 94.8281C1008.45 96.1961 1013.31 98.0961 1017.72 100.528C1022.28 102.808 1025.93 106.076 1028.67 110.332C1031.4 114.588 1032.77 120.136 1032.77 126.976C1032.77 134.576 1030.49 141.188 1025.93 146.812C1021.52 152.436 1015.21 156.844 1007.01 160.036C998.798 163.076 988.994 164.596 977.594 164.596Z" stroke="#56CCF2" stroke-width="2" mask="url(#path-1-outside-1_2789_8385)"/>
</g>
</svg>
