<svg width="27" height="28" viewBox="0 0 27 28" fill="none" xmlns="http://www.w3.org/2000/svg">
<path d="M1.65563 10.0005C1.48052 10.0005 1.30712 10.0349 1.14533 10.1019C0.98354 10.1689 0.836536 10.2671 0.712715 10.3909C0.588894 10.5147 0.490683 10.6617 0.423694 10.8235C0.356704 10.9853 0.322249 11.1587 0.322296 11.3338V16.6672C0.322296 17.0208 0.462772 17.3599 0.71282 17.61C0.962869 17.86 1.30201 18.0005 1.65563 18.0005C2.00925 18.0005 2.34839 17.86 2.59844 17.61C2.84849 17.3599 2.98896 17.0208 2.98896 16.6672V11.3338C2.98901 11.1587 2.95455 10.9853 2.88757 10.8235C2.82058 10.6617 2.72236 10.5147 2.59854 10.3909C2.47472 10.2671 2.32772 10.1689 2.16593 10.1019C2.00414 10.0349 1.83074 10.0005 1.65563 10.0005V10.0005ZM25.6556 10.0005C25.4805 10.0005 25.3071 10.0349 25.1453 10.1019C24.9835 10.1689 24.8365 10.2671 24.7127 10.3909C24.5889 10.5147 24.4907 10.6617 24.4237 10.8235C24.3567 10.9853 24.3222 11.1587 24.3223 11.3338V16.6672C24.3223 17.0208 24.4628 17.3599 24.7128 17.61C24.9629 17.86 25.302 18.0005 25.6556 18.0005C26.0093 18.0005 26.3484 17.86 26.5984 17.61C26.8485 17.3599 26.989 17.0208 26.989 16.6672V11.3338C26.989 11.1587 26.9546 10.9853 26.8876 10.8235C26.8206 10.6617 26.7224 10.5147 26.5985 10.3909C26.4747 10.2671 26.3277 10.1689 26.1659 10.1019C26.0041 10.0349 25.8307 10.0005 25.6556 10.0005ZM20.1433 2.66717C20.2314 2.51556 20.2888 2.34804 20.3121 2.17421C20.3354 2.00038 20.3242 1.82365 20.2791 1.65417C20.234 1.48469 20.1559 1.32577 20.0492 1.18653C19.9426 1.04729 19.8095 0.930467 19.6576 0.842751C19.5058 0.755035 19.3381 0.698152 19.1642 0.675363C18.9903 0.652574 18.8136 0.664327 18.6442 0.709948C18.4749 0.755568 18.3162 0.83416 18.1773 0.941219C18.0384 1.04828 17.9219 1.1817 17.8347 1.33384L17.0158 2.75034C15.9645 2.25652 14.8172 2.0005 13.6556 2.0005C12.4941 2.0005 11.3468 2.25652 10.2954 2.75034L9.47659 1.33384C9.38933 1.1817 9.2729 1.04828 9.13398 0.941219C8.99506 0.83416 8.83638 0.755568 8.66703 0.709948C8.49768 0.664327 8.321 0.652574 8.1471 0.675363C7.9732 0.698152 7.80551 0.755035 7.65363 0.842751C7.50176 0.930467 7.36868 1.04729 7.26204 1.18653C7.1554 1.32577 7.07728 1.48469 7.03217 1.65417C6.98705 1.82365 6.97583 2.00038 6.99914 2.17421C7.02245 2.34804 7.07983 2.51556 7.168 2.66717L8.09134 4.26442C7.32095 5.00797 6.70824 5.89909 6.28976 6.8846C5.87128 7.87011 5.65562 8.92982 5.65563 10.0005V20.6672C5.65558 20.8423 5.69004 21.0157 5.75703 21.1775C5.82402 21.3393 5.92223 21.4863 6.04605 21.6101C6.16987 21.7339 6.31688 21.8321 6.47866 21.8991C6.64045 21.9661 6.81385 22.0005 6.98896 22.0005H9.65563V26.0005C9.65563 26.3541 9.79611 26.6933 10.0462 26.9433C10.2962 27.1934 10.6353 27.3338 10.989 27.3338C11.3426 27.3338 11.6817 27.1934 11.9318 26.9433C12.1818 26.6933 12.3223 26.3541 12.3223 26.0005V22.0005H14.989V26.0005C14.989 26.3541 15.1294 26.6933 15.3795 26.9433C15.6295 27.1934 15.9687 27.3338 16.3223 27.3338C16.6759 27.3338 17.0151 27.1934 17.2651 26.9433C17.5152 26.6933 17.6556 26.3541 17.6556 26.0005V22.0005H20.3223C20.4974 22.0005 20.6708 21.9661 20.8326 21.8991C20.9944 21.8321 21.1414 21.7339 21.2652 21.6101C21.389 21.4863 21.4872 21.3393 21.5542 21.1775C21.6212 21.0157 21.6557 20.8423 21.6556 20.6672V10.0005C21.6556 8.92982 21.44 7.87011 21.0215 6.8846C20.603 5.89909 19.9903 5.00797 19.2199 4.26442L20.1433 2.66717ZM18.989 19.3338H8.3223V12.6672H18.989V19.3338ZM8.3223 10.0005C8.3223 8.58601 8.8842 7.22946 9.88439 6.22927C10.8846 5.22907 12.2411 4.66717 13.6556 4.66717C15.0701 4.66717 16.4267 5.22907 17.4269 6.22927C18.4271 7.22946 18.989 8.58601 18.989 10.0005H8.3223Z" fill="#16DC7D"/>
</svg>
