<svg width="90" height="40" viewBox="0 0 90 40" fill="none" xmlns="http://www.w3.org/2000/svg">
<path d="M0.17268 9.84869C0.17268 6.67844 0.963431 4.24436 2.54492 2.54645C4.12641 0.848535 6.4988 -0.000283671 9.66208 7.11131e-08C12.8254 7.11131e-08 15.1979 0.847395 16.7797 2.54219C18.3615 4.23698 19.1522 6.66723 19.1519 9.83295V10.5893C19.1519 10.6514 19.1392 10.7129 19.1143 10.7703C19.0894 10.8277 19.0529 10.8798 19.0068 10.9237C18.9608 10.9677 18.9061 11.0025 18.8459 11.0262C18.7857 11.05 18.7212 11.0622 18.6561 11.0621H13.5556C13.4904 11.0622 13.4259 11.05 13.3657 11.0262C13.3056 11.0025 13.2509 10.9677 13.2049 10.9237C13.1588 10.8798 13.1223 10.8277 13.0974 10.7703C13.0725 10.7129 13.0597 10.6514 13.0598 10.5893V9.44011C13.0598 8.02508 12.7771 7.02858 12.2119 6.4506C11.6467 5.87262 10.8559 5.58405 9.83968 5.5849C8.82403 5.5849 8.03328 5.87347 7.46744 6.4506C6.9016 7.02773 6.61898 8.02423 6.61958 9.44011C6.61958 10.7808 6.93195 11.9633 7.55669 12.9876C8.2078 14.0453 8.99497 15.0213 9.89991 15.8928C10.837 16.8056 11.8426 17.718 12.9165 18.6299C13.9995 19.5526 15.008 20.5519 15.9331 21.6195C16.8702 22.7002 17.6513 23.9293 18.2764 25.3065C18.9014 26.6838 19.2138 28.3041 19.2135 30.1675C19.2135 33.3335 18.4032 35.7637 16.7828 37.4582C15.1623 39.1527 12.7703 40 9.60673 40C6.44375 40 4.05189 39.1613 2.43114 37.4838C0.810378 35.8063 2.01382e-07 33.386 2.01382e-07 30.2228V28.2935C-5.84944e-05 28.2314 0.0127141 28.1699 0.0376085 28.1125C0.0625028 28.0551 0.0990242 28.0029 0.145073 27.959C0.191122 27.9151 0.245788 27.8803 0.305965 27.8565C0.366142 27.8328 0.430648 27.8206 0.495771 27.8206H5.59322C5.6583 27.8206 5.72274 27.8329 5.78287 27.8566C5.84299 27.8804 5.89763 27.9153 5.94363 27.9592C5.98963 28.0031 6.0261 28.0552 6.05096 28.1126C6.07583 28.1699 6.08861 28.2314 6.08855 28.2935V30.6144C6.08855 32.03 6.39126 33.0168 6.99666 33.5749C7.60207 34.1331 8.41228 34.4124 9.42734 34.413C10.4427 34.413 11.2531 34.1335 11.8585 33.5745C12.4639 33.0155 12.7666 32.0267 12.7666 30.608C12.7666 29.2656 12.4542 28.081 11.8295 27.0541C11.1781 25.9955 10.3911 25.0183 9.48669 24.145C8.54899 23.2303 7.54345 22.3162 6.47008 21.4028C5.38588 20.4795 4.37726 19.4786 3.45303 18.4086C2.51592 17.327 1.73499 16.0961 1.11025 14.716C0.485508 13.3359 0.172978 11.7134 0.17268 9.84869Z" fill="#219FDB"/>
<path d="M21.2363 9.83243C21.2363 6.66773 22.0174 4.23761 23.5795 2.54205C25.1417 0.8465 27.3942 -0.000850541 30.3372 6.40629e-07C33.2805 6.40629e-07 35.5332 0.847351 37.0954 2.54205C38.6575 4.23676 39.4386 6.66688 39.4386 9.83243V30.168C39.4386 33.3338 38.6575 35.764 37.0954 37.4584C35.5332 39.1528 33.2805 40 30.3372 40C27.3945 40 25.142 39.1528 23.5795 37.4584C22.0171 35.764 21.2361 33.3338 21.2363 30.168V9.83243ZM27.231 30.5587C27.231 31.9742 27.5126 32.9704 28.0758 33.5472C28.6391 34.124 29.3929 34.4126 30.3372 34.4128C31.2819 34.4128 32.0358 34.1243 32.5991 33.5472C33.1623 32.9701 33.4439 31.9739 33.4439 30.5587V9.44173C33.4439 8.02678 33.1623 7.03033 32.5991 6.45238C32.0358 5.87443 31.2819 5.58588 30.3372 5.58673C29.392 5.58673 28.6382 5.87528 28.0758 6.45238C27.5134 7.02948 27.2318 8.02593 27.231 9.44173V30.5587Z" fill="#219FDB"/>
<path d="M42.9432 0H48.1184C48.2431 0.000113964 48.3628 0.050529 48.451 0.140179C48.5392 0.229829 48.5888 0.351388 48.589 0.478173V33.8078C48.589 33.9346 48.6385 34.0562 48.7266 34.1458C48.8148 34.2355 48.9344 34.2859 49.0591 34.286H58.1818C58.2436 34.286 58.3048 34.2983 58.3619 34.3223C58.419 34.3463 58.4709 34.3814 58.5146 34.4258C58.5583 34.4702 58.593 34.5229 58.6166 34.5808C58.6403 34.6388 58.6524 34.701 58.6524 34.7638V39.5223C58.6524 39.585 58.6403 39.6472 58.6166 39.7052C58.593 39.7632 58.5583 39.8159 58.5146 39.8602C58.4709 39.9046 58.419 39.9398 58.3619 39.9638C58.3048 39.9877 58.2436 40.0001 58.1818 40H42.9432C42.8815 40.0001 42.8203 39.9877 42.7632 39.9638C42.7061 39.9398 42.6542 39.9046 42.6105 39.8602C42.5668 39.8159 42.5322 39.7632 42.5085 39.7052C42.4848 39.6472 42.4727 39.585 42.4727 39.5223V0.478173C42.4727 0.415378 42.4848 0.3532 42.5085 0.295185C42.5321 0.23717 42.5668 0.184456 42.6105 0.140053C42.6542 0.0956506 42.7061 0.0604295 42.7632 0.036399C42.8202 0.0123685 42.8814 0 42.9432 0Z" fill="#219FDB"/>
<path d="M63.086 1.93052e-07H67.3644C67.4155 -5.61107e-05 67.466 0.0122039 67.5132 0.0360816C67.5604 0.0599592 67.6033 0.0949855 67.6395 0.139158C67.6756 0.18333 67.7043 0.235781 67.7238 0.293516C67.7434 0.35125 67.7534 0.413136 67.7534 0.475633V30.2936C67.7534 30.3561 67.7434 30.418 67.7238 30.4757C67.7043 30.5334 67.6756 30.5859 67.6395 30.6301C67.6033 30.6742 67.5604 30.7093 67.5132 30.7331C67.466 30.757 67.4155 30.7693 67.3644 30.7692H63.086C62.9829 30.7692 62.884 30.7191 62.8111 30.6299C62.7382 30.5407 62.6973 30.4197 62.6973 30.2936V0.475633C62.6973 0.349487 62.7382 0.228508 62.8111 0.139309C62.884 0.0501108 62.9829 1.93052e-07 63.086 1.93052e-07Z" fill="#219FDB"/>
<path d="M69.3813 36.4533L65.9688 39.8657C65.8828 39.9517 65.7661 40 65.6445 40C65.523 40 65.4064 39.9517 65.3204 39.8657L61.9078 36.4529C61.8652 36.4104 61.8314 36.3599 61.8083 36.3043C61.7853 36.2487 61.7734 36.1891 61.7734 36.1289C61.7734 36.0687 61.7853 36.0091 61.8083 35.9535C61.8314 35.8979 61.8652 35.8474 61.9078 35.8049L65.3204 32.3925C65.3629 32.3499 65.4134 32.3161 65.469 32.293C65.5246 32.2699 65.5842 32.2581 65.6443 32.2581C65.7045 32.2581 65.7641 32.2699 65.8197 32.293C65.8753 32.3161 65.9258 32.3499 65.9683 32.3925L69.3813 35.8049C69.4671 35.8909 69.5154 36.0075 69.5154 36.1291C69.5154 36.2507 69.4671 36.3672 69.3813 36.4533Z" fill="#00FF96"/>
<path d="M71.265 0H89.5227C89.6494 0 89.771 0.0503501 89.8606 0.139975C89.9503 0.2296 90.0006 0.351158 90.0006 0.477907V5.23589C90.0007 5.29868 89.9883 5.36087 89.9643 5.41891C89.9403 5.47694 89.9051 5.52967 89.8608 5.5741C89.8164 5.61852 89.7637 5.65376 89.7057 5.67781C89.6477 5.70185 89.5855 5.71422 89.5227 5.71422H83.98C83.9172 5.71422 83.855 5.7266 83.797 5.75065C83.739 5.77469 83.6863 5.80993 83.6419 5.85435C83.5975 5.89877 83.5623 5.95151 83.5383 6.00954C83.5144 6.06757 83.5021 6.12977 83.5021 6.19256V39.5217C83.5021 39.6485 83.4517 39.7702 83.362 39.8599C83.2723 39.9496 83.1507 40 83.0238 40H77.7639C77.6371 40 77.5154 39.9496 77.4257 39.8599C77.336 39.7702 77.2856 39.6485 77.2856 39.5217V6.19256C77.2857 6.12977 77.2733 6.06757 77.2494 6.00954C77.2254 5.95151 77.1902 5.89877 77.1458 5.85435C77.1014 5.80993 77.0487 5.77469 76.9907 5.75065C76.9327 5.7266 76.8705 5.71422 76.8078 5.71422H71.265C71.2022 5.71422 71.14 5.70185 71.082 5.67781C71.024 5.65376 70.9713 5.61852 70.9269 5.5741C70.8826 5.52967 70.8474 5.47694 70.8234 5.41891C70.7994 5.36087 70.7871 5.29868 70.7871 5.23589V0.477907C70.7871 0.351158 70.8375 0.2296 70.9271 0.139975C71.0167 0.0503501 71.1383 0 71.265 0Z" fill="#219FDB"/>
</svg>
