<svg width="28" height="28" viewBox="0 0 28 28" fill="none" xmlns="http://www.w3.org/2000/svg">
<path d="M8.66663 0.666672H1.99996C1.64634 0.666672 1.3072 0.807147 1.05715 1.0572C0.807102 1.30724 0.666626 1.64638 0.666626 2.00001V8.66667C0.666626 9.02029 0.807102 9.35943 1.05715 9.60948C1.3072 9.85953 1.64634 10 1.99996 10C2.35358 10 2.69272 9.85953 2.94277 9.60948C3.19282 9.35943 3.33329 9.02029 3.33329 8.66667V3.33334H8.66663C9.02025 3.33334 9.35939 3.19286 9.60944 2.94281C9.85948 2.69277 9.99996 2.35363 9.99996 2.00001C9.99996 1.64638 9.85948 1.30724 9.60944 1.0572C9.35939 0.807147 9.02025 0.666672 8.66663 0.666672ZM8.66663 24.6667H3.33329V19.3333C3.33329 18.9797 3.19282 18.6406 2.94277 18.3905C2.69272 18.1405 2.35358 18 1.99996 18C1.64634 18 1.3072 18.1405 1.05715 18.3905C0.807102 18.6406 0.666626 18.9797 0.666626 19.3333V26C0.666626 26.3536 0.807102 26.6928 1.05715 26.9428C1.3072 27.1929 1.64634 27.3333 1.99996 27.3333H8.66663C9.02025 27.3333 9.35939 27.1929 9.60944 26.9428C9.85948 26.6928 9.99996 26.3536 9.99996 26C9.99996 25.6464 9.85948 25.3072 9.60944 25.0572C9.35939 24.8071 9.02025 24.6667 8.66663 24.6667ZM26 0.666672H19.3333C18.9797 0.666672 18.6405 0.807147 18.3905 1.0572C18.1404 1.30724 18 1.64638 18 2.00001C18 2.35363 18.1404 2.69277 18.3905 2.94281C18.6405 3.19286 18.9797 3.33334 19.3333 3.33334H24.6666V8.66667C24.6666 9.02029 24.8071 9.35943 25.0571 9.60948C25.3072 9.85953 25.6463 10 26 10C26.3536 10 26.6927 9.85953 26.9428 9.60948C27.1928 9.35943 27.3333 9.02029 27.3333 8.66667V2.00001C27.3333 1.64638 27.1928 1.30724 26.9428 1.0572C26.6927 0.807147 26.3536 0.666672 26 0.666672ZM26 18C25.6463 18 25.3072 18.1405 25.0571 18.3905C24.8071 18.6406 24.6666 18.9797 24.6666 19.3333V24.6667H19.3333C18.9797 24.6667 18.6405 24.8071 18.3905 25.0572C18.1404 25.3072 18 25.6464 18 26C18 26.3536 18.1404 26.6928 18.3905 26.9428C18.6405 27.1929 18.9797 27.3333 19.3333 27.3333H26C26.3536 27.3333 26.6927 27.1929 26.9428 26.9428C27.1928 26.6928 27.3333 26.3536 27.3333 26V19.3333C27.3333 18.9797 27.1928 18.6406 26.9428 18.3905C26.6927 18.1405 26.3536 18 26 18Z" fill="white" fill-opacity="0.32"/>
</svg>
