<svg width="40" height="40" viewBox="0 0 40 40" fill="none" xmlns="http://www.w3.org/2000/svg">
<g id="u:mobile-android">
<path id="Vector" d="M21.1833 27.1502L20.9333 26.9502C20.8403 26.8871 20.7395 26.8366 20.6333 26.8002L20.3333 26.6668C20.063 26.6103 19.7829 26.6219 19.5181 26.7004C19.2534 26.779 19.0123 26.9221 18.8166 27.1168C18.6694 27.2788 18.551 27.4649 18.4666 27.6668C18.3405 27.9705 18.307 28.3047 18.3703 28.6274C18.4337 28.95 18.5911 29.2467 18.8227 29.4801C19.0544 29.7135 19.3499 29.8732 19.672 29.939C19.9942 30.0049 20.3286 29.974 20.6333 29.8502C20.8324 29.7535 21.0175 29.6302 21.1833 29.4835C21.4145 29.2491 21.5712 28.9515 21.6335 28.6282C21.6958 28.3049 21.6609 27.9703 21.5333 27.6668C21.4502 27.4741 21.3314 27.2988 21.1833 27.1502ZM26.6666 3.3335H13.3333C12.0072 3.3335 10.7354 3.86028 9.79772 4.79796C8.86004 5.73564 8.33325 7.00741 8.33325 8.3335V31.6668C8.33325 32.9929 8.86004 34.2647 9.79772 35.2024C10.7354 36.14 12.0072 36.6668 13.3333 36.6668H26.6666C27.9927 36.6668 29.2644 36.14 30.2021 35.2024C31.1398 34.2647 31.6666 32.9929 31.6666 31.6668V8.3335C31.6666 7.00741 31.1398 5.73564 30.2021 4.79796C29.2644 3.86028 27.9927 3.3335 26.6666 3.3335ZM28.3333 31.6668C28.3333 32.1089 28.1577 32.5328 27.8451 32.8453C27.5325 33.1579 27.1086 33.3335 26.6666 33.3335H13.3333C12.8912 33.3335 12.4673 33.1579 12.1547 32.8453C11.8422 32.5328 11.6666 32.1089 11.6666 31.6668V8.3335C11.6666 7.89147 11.8422 7.46755 12.1547 7.15499C12.4673 6.84242 12.8912 6.66683 13.3333 6.66683H26.6666C27.1086 6.66683 27.5325 6.84242 27.8451 7.15499C28.1577 7.46755 28.3333 7.89147 28.3333 8.3335V31.6668Z" fill="white"/>
</g>
</svg>
