<svg width="1453" height="225" viewBox="0 0 1453 225" fill="none" xmlns="http://www.w3.org/2000/svg">
<g opacity="0.5">
<mask id="path-1-outside-1_2789_8381" maskUnits="userSpaceOnUse" x="0.911377" y="0.983887" width="1452" height="224" fill="black">
<rect fill="white" x="0.911377" y="0.983887" width="1452" height="224"/>
<path d="M88.0954 180.28C75.6314 180.28 64.1554 178.228 53.6674 174.124C43.1794 170.02 34.0594 164.32 26.3074 157.024C18.5554 149.576 12.5514 140.912 8.29538 131.032C4.03938 121 1.91138 110.056 1.91138 98.1999C1.91138 86.3439 4.03938 75.4759 8.29538 65.5959C12.5514 55.5639 18.5554 46.8999 26.3074 39.6039C34.0594 32.1559 43.1794 26.3799 53.6674 22.2759C64.1554 18.1719 75.5554 16.1199 87.8674 16.1199C100.331 16.1199 111.731 18.1719 122.067 22.2759C132.555 26.3799 141.675 32.1559 149.427 39.6039C157.179 46.8999 163.183 55.5639 167.439 65.5959C171.695 75.4759 173.823 86.3439 173.823 98.1999C173.823 110.056 171.695 121 167.439 131.032C163.183 141.064 157.179 149.728 149.427 157.024C141.675 164.32 132.555 170.02 122.067 174.124C111.731 178.228 100.407 180.28 88.0954 180.28ZM87.8674 154.288C95.9234 154.288 103.371 152.92 110.211 150.184C117.051 147.448 122.979 143.572 127.995 138.556C133.011 133.388 136.887 127.46 139.623 120.772C142.511 113.932 143.955 106.408 143.955 98.1999C143.955 89.9919 142.511 82.5439 139.623 75.8559C136.887 69.0159 133.011 63.0879 127.995 58.0719C122.979 52.9039 117.051 48.9519 110.211 46.2159C103.371 43.4799 95.9234 42.1119 87.8674 42.1119C79.8114 42.1119 72.3634 43.4799 65.5234 46.2159C58.8354 48.9519 52.9074 52.9039 47.7394 58.0719C42.7234 63.0879 38.7714 69.0159 35.8834 75.8559C33.1474 82.5439 31.7794 89.9919 31.7794 98.1999C31.7794 106.256 33.1474 113.704 35.8834 120.544C38.7714 127.384 42.7234 133.388 47.7394 138.556C52.7554 143.572 58.6834 147.448 65.5234 150.184C72.3634 152.92 79.8114 154.288 87.8674 154.288ZM254.033 179.596C243.697 179.596 234.577 177.696 226.673 173.896C218.769 169.944 212.613 164.016 208.205 156.112C203.797 148.056 201.593 137.948 201.593 125.788V56.2479H230.093V121.912C230.093 132.856 232.525 141.064 237.389 146.536C242.405 151.856 249.473 154.516 258.593 154.516C265.281 154.516 271.057 153.148 275.921 150.412C280.937 147.676 284.813 143.572 287.549 138.1C290.437 132.628 291.881 125.864 291.881 117.808V56.2479H320.381V178H293.249V145.168L298.037 155.2C293.933 163.104 287.929 169.184 280.025 173.44C272.121 177.544 263.457 179.596 254.033 179.596ZM357.696 178V56.2479H384.828V89.7639L381.636 79.9599C385.284 71.7519 390.984 65.5199 398.736 61.2639C406.64 57.0079 416.444 54.8799 428.148 54.8799V82.0119C426.932 81.7079 425.792 81.5559 424.728 81.5559C423.664 81.4039 422.6 81.3279 421.536 81.3279C410.744 81.3279 402.156 84.5199 395.772 90.9039C389.388 97.1359 386.196 106.484 386.196 118.948V178H357.696ZM519.186 178V18.3999H584.85C598.986 18.3999 611.07 20.6799 621.102 25.2399C631.286 29.7999 639.114 36.3359 644.586 44.8479C650.058 53.3599 652.794 63.4679 652.794 75.1719C652.794 86.8759 650.058 96.9839 644.586 105.496C639.114 114.008 631.286 120.544 621.102 125.104C611.07 129.664 598.986 131.944 584.85 131.944H535.602L548.826 118.036V178H519.186ZM548.826 121.228L535.602 106.864H583.482C596.554 106.864 606.358 104.128 612.894 98.6559C619.582 93.0319 622.926 85.2039 622.926 75.1719C622.926 64.9879 619.582 57.1599 612.894 51.6879C606.358 46.2159 596.554 43.4799 583.482 43.4799H535.602L548.826 28.8879V121.228ZM678.544 178V56.2479H705.676V89.7639L702.484 79.9599C706.132 71.7519 711.832 65.5199 719.584 61.2639C727.488 57.0079 737.292 54.8799 748.996 54.8799V82.0119C747.78 81.7079 746.64 81.5559 745.576 81.5559C744.512 81.4039 743.448 81.3279 742.384 81.3279C731.592 81.3279 723.004 84.5199 716.62 90.9039C710.236 97.1359 707.044 106.484 707.044 118.948V178H678.544ZM826.78 179.596C814.316 179.596 803.22 176.936 793.492 171.616C783.764 166.144 776.088 158.696 770.464 149.272C764.84 139.848 762.028 129.132 762.028 117.124C762.028 104.964 764.84 94.2479 770.464 84.9759C776.088 75.5519 783.764 68.1799 793.492 62.8599C803.22 57.5399 814.316 54.8799 826.78 54.8799C839.396 54.8799 850.568 57.5399 860.296 62.8599C870.176 68.1799 877.852 75.4759 883.324 84.7479C888.948 94.0199 891.76 104.812 891.76 117.124C891.76 129.132 888.948 139.848 883.324 149.272C877.852 158.696 870.176 166.144 860.296 171.616C850.568 176.936 839.396 179.596 826.78 179.596ZM826.78 155.2C833.772 155.2 840.004 153.68 845.476 150.64C850.948 147.6 855.204 143.192 858.244 137.416C861.436 131.64 863.032 124.876 863.032 117.124C863.032 109.22 861.436 102.456 858.244 96.8319C855.204 91.0559 850.948 86.6479 845.476 83.6079C840.004 80.5679 833.848 79.0479 827.008 79.0479C820.016 79.0479 813.784 80.5679 808.312 83.6079C802.992 86.6479 798.736 91.0559 795.544 96.8319C792.352 102.456 790.756 109.22 790.756 117.124C790.756 124.876 792.352 131.64 795.544 137.416C798.736 143.192 802.992 147.6 808.312 150.64C813.784 153.68 819.94 155.2 826.78 155.2ZM906.473 223.828C901.153 223.828 896.137 223.22 891.425 222.004C886.561 220.94 882.457 219.192 879.113 216.76L887.321 195.556C891.729 198.748 897.277 200.344 903.965 200.344C909.133 200.344 913.161 198.672 916.049 195.328C918.937 192.136 920.381 187.348 920.381 180.964V56.2479H948.881V180.28C948.881 193.656 945.157 204.22 937.709 211.972C930.413 219.876 920.001 223.828 906.473 223.828ZM934.517 36.1839C929.197 36.1839 924.789 34.5119 921.293 31.1679C917.949 27.8239 916.277 23.7959 916.277 19.0839C916.277 14.2199 917.949 10.1919 921.293 6.99988C924.789 3.65588 929.197 1.98389 934.517 1.98389C939.837 1.98389 944.169 3.57988 947.513 6.77188C951.009 9.81189 952.757 13.6879 952.757 18.3999C952.757 23.4159 951.085 27.6719 947.741 31.1679C944.397 34.5119 939.989 36.1839 934.517 36.1839ZM1043.48 179.596C1029.96 179.596 1018.1 176.936 1007.92 171.616C997.883 166.144 990.055 158.696 984.431 149.272C978.959 139.848 976.223 129.132 976.223 117.124C976.223 104.964 978.883 94.2479 984.203 84.9759C989.675 75.5519 997.123 68.1799 1006.55 62.8599C1016.12 57.5399 1026.99 54.8799 1039.15 54.8799C1051.01 54.8799 1061.57 57.4639 1070.84 62.6319C1080.11 67.7999 1087.41 75.0959 1092.73 84.5199C1098.05 93.9439 1100.71 105.04 1100.71 117.808C1100.71 119.024 1100.64 120.392 1100.48 121.912C1100.48 123.432 1100.41 124.876 1100.26 126.244H998.795V107.32H1085.21L1074.04 113.248C1074.19 106.256 1072.74 100.1 1069.7 94.7799C1066.66 89.4599 1062.48 85.2799 1057.16 82.2399C1052 79.1999 1045.99 77.6799 1039.15 77.6799C1032.16 77.6799 1026 79.1999 1020.68 82.2399C1015.52 85.2799 1011.41 89.5359 1008.37 95.0079C1005.48 100.328 1004.04 106.636 1004.04 113.932V118.492C1004.04 125.788 1005.71 132.248 1009.06 137.872C1012.4 143.496 1017.11 147.828 1023.19 150.868C1029.27 153.908 1036.26 155.428 1044.17 155.428C1051.01 155.428 1057.16 154.364 1062.64 152.236C1068.11 150.108 1072.97 146.764 1077.23 142.204L1092.5 159.76C1087.03 166.144 1080.12 171.084 1071.76 174.58C1063.55 177.924 1054.12 179.596 1043.48 179.596ZM1183.95 179.596C1171.18 179.596 1159.78 176.936 1149.75 171.616C1139.87 166.144 1132.12 158.696 1126.49 149.272C1120.87 139.848 1118.06 129.132 1118.06 117.124C1118.06 104.964 1120.87 94.2479 1126.49 84.9759C1132.12 75.5519 1139.87 68.1799 1149.75 62.8599C1159.78 57.5399 1171.18 54.8799 1183.95 54.8799C1195.8 54.8799 1206.22 57.3119 1215.18 62.1759C1224.3 66.8879 1231.22 73.8799 1235.93 83.1519L1214.04 95.9199C1210.4 90.1439 1205.91 85.8879 1200.59 83.1519C1195.42 80.4159 1189.8 79.0479 1183.72 79.0479C1176.73 79.0479 1170.42 80.5679 1164.8 83.6079C1159.17 86.6479 1154.76 91.0559 1151.57 96.8319C1148.38 102.456 1146.78 109.22 1146.78 117.124C1146.78 125.028 1148.38 131.868 1151.57 137.644C1154.76 143.268 1159.17 147.6 1164.8 150.64C1170.42 153.68 1176.73 155.2 1183.72 155.2C1189.8 155.2 1195.42 153.832 1200.59 151.096C1205.91 148.36 1210.4 144.104 1214.04 138.328L1235.93 151.096C1231.22 160.216 1224.3 167.284 1215.18 172.3C1206.22 177.164 1195.8 179.596 1183.95 179.596ZM1307.95 179.596C1294.58 179.596 1284.24 176.176 1276.95 169.336C1269.65 162.344 1266 152.084 1266 138.556V29.3439H1294.5V137.872C1294.5 143.648 1295.95 148.132 1298.83 151.324C1301.87 154.516 1306.05 156.112 1311.37 156.112C1317.76 156.112 1323.08 154.44 1327.33 151.096L1335.31 171.388C1331.97 174.124 1327.87 176.176 1323 177.544C1318.14 178.912 1313.12 179.596 1307.95 179.596ZM1245.94 79.9599V57.1599H1327.11V79.9599H1245.94ZM1396.38 179.596C1386.2 179.596 1376.39 178.304 1366.97 175.72C1357.69 172.984 1350.32 169.716 1344.85 165.916L1355.79 144.256C1361.27 147.752 1367.8 150.64 1375.4 152.92C1383 155.2 1390.6 156.34 1398.2 156.34C1407.17 156.34 1413.63 155.124 1417.58 152.692C1421.69 150.26 1423.74 146.992 1423.74 142.888C1423.74 139.544 1422.37 137.036 1419.64 135.364C1416.9 133.54 1413.33 132.172 1408.92 131.26C1404.51 130.348 1399.57 129.512 1394.1 128.752C1388.78 127.992 1383.38 127.004 1377.91 125.788C1372.59 124.42 1367.73 122.52 1363.32 120.088C1358.91 117.504 1355.34 114.084 1352.6 109.828C1349.87 105.572 1348.5 99.9479 1348.5 92.9559C1348.5 85.2039 1350.7 78.5159 1355.11 72.8919C1359.52 67.1159 1365.67 62.7079 1373.58 59.6679C1381.64 56.4759 1391.14 54.8799 1402.08 54.8799C1410.29 54.8799 1418.57 55.7919 1426.93 57.6159C1435.29 59.4399 1442.21 62.0239 1447.68 65.3679L1436.73 87.0279C1430.96 83.5319 1425.11 81.1759 1419.18 79.9599C1413.4 78.5919 1407.63 77.9079 1401.85 77.9079C1393.19 77.9079 1386.73 79.1999 1382.47 81.7839C1378.37 84.3679 1376.31 87.6359 1376.31 91.5879C1376.31 95.2359 1377.68 97.9719 1380.42 99.7959C1383.15 101.62 1386.73 103.064 1391.14 104.128C1395.54 105.192 1400.41 106.104 1405.73 106.864C1411.2 107.472 1416.59 108.46 1421.91 109.828C1427.23 111.196 1432.1 113.096 1436.51 115.528C1441.07 117.808 1444.71 121.076 1447.45 125.332C1450.19 129.588 1451.55 135.136 1451.55 141.976C1451.55 149.576 1449.28 156.188 1444.71 161.812C1440.31 167.436 1434 171.844 1425.79 175.036C1417.58 178.076 1407.78 179.596 1396.38 179.596Z"/>
</mask>
<path d="M88.0954 180.28C75.6314 180.28 64.1554 178.228 53.6674 174.124C43.1794 170.02 34.0594 164.32 26.3074 157.024C18.5554 149.576 12.5514 140.912 8.29538 131.032C4.03938 121 1.91138 110.056 1.91138 98.1999C1.91138 86.3439 4.03938 75.4759 8.29538 65.5959C12.5514 55.5639 18.5554 46.8999 26.3074 39.6039C34.0594 32.1559 43.1794 26.3799 53.6674 22.2759C64.1554 18.1719 75.5554 16.1199 87.8674 16.1199C100.331 16.1199 111.731 18.1719 122.067 22.2759C132.555 26.3799 141.675 32.1559 149.427 39.6039C157.179 46.8999 163.183 55.5639 167.439 65.5959C171.695 75.4759 173.823 86.3439 173.823 98.1999C173.823 110.056 171.695 121 167.439 131.032C163.183 141.064 157.179 149.728 149.427 157.024C141.675 164.32 132.555 170.02 122.067 174.124C111.731 178.228 100.407 180.28 88.0954 180.28ZM87.8674 154.288C95.9234 154.288 103.371 152.92 110.211 150.184C117.051 147.448 122.979 143.572 127.995 138.556C133.011 133.388 136.887 127.46 139.623 120.772C142.511 113.932 143.955 106.408 143.955 98.1999C143.955 89.9919 142.511 82.5439 139.623 75.8559C136.887 69.0159 133.011 63.0879 127.995 58.0719C122.979 52.9039 117.051 48.9519 110.211 46.2159C103.371 43.4799 95.9234 42.1119 87.8674 42.1119C79.8114 42.1119 72.3634 43.4799 65.5234 46.2159C58.8354 48.9519 52.9074 52.9039 47.7394 58.0719C42.7234 63.0879 38.7714 69.0159 35.8834 75.8559C33.1474 82.5439 31.7794 89.9919 31.7794 98.1999C31.7794 106.256 33.1474 113.704 35.8834 120.544C38.7714 127.384 42.7234 133.388 47.7394 138.556C52.7554 143.572 58.6834 147.448 65.5234 150.184C72.3634 152.92 79.8114 154.288 87.8674 154.288ZM254.033 179.596C243.697 179.596 234.577 177.696 226.673 173.896C218.769 169.944 212.613 164.016 208.205 156.112C203.797 148.056 201.593 137.948 201.593 125.788V56.2479H230.093V121.912C230.093 132.856 232.525 141.064 237.389 146.536C242.405 151.856 249.473 154.516 258.593 154.516C265.281 154.516 271.057 153.148 275.921 150.412C280.937 147.676 284.813 143.572 287.549 138.1C290.437 132.628 291.881 125.864 291.881 117.808V56.2479H320.381V178H293.249V145.168L298.037 155.2C293.933 163.104 287.929 169.184 280.025 173.44C272.121 177.544 263.457 179.596 254.033 179.596ZM357.696 178V56.2479H384.828V89.7639L381.636 79.9599C385.284 71.7519 390.984 65.5199 398.736 61.2639C406.64 57.0079 416.444 54.8799 428.148 54.8799V82.0119C426.932 81.7079 425.792 81.5559 424.728 81.5559C423.664 81.4039 422.6 81.3279 421.536 81.3279C410.744 81.3279 402.156 84.5199 395.772 90.9039C389.388 97.1359 386.196 106.484 386.196 118.948V178H357.696ZM519.186 178V18.3999H584.85C598.986 18.3999 611.07 20.6799 621.102 25.2399C631.286 29.7999 639.114 36.3359 644.586 44.8479C650.058 53.3599 652.794 63.4679 652.794 75.1719C652.794 86.8759 650.058 96.9839 644.586 105.496C639.114 114.008 631.286 120.544 621.102 125.104C611.07 129.664 598.986 131.944 584.85 131.944H535.602L548.826 118.036V178H519.186ZM548.826 121.228L535.602 106.864H583.482C596.554 106.864 606.358 104.128 612.894 98.6559C619.582 93.0319 622.926 85.2039 622.926 75.1719C622.926 64.9879 619.582 57.1599 612.894 51.6879C606.358 46.2159 596.554 43.4799 583.482 43.4799H535.602L548.826 28.8879V121.228ZM678.544 178V56.2479H705.676V89.7639L702.484 79.9599C706.132 71.7519 711.832 65.5199 719.584 61.2639C727.488 57.0079 737.292 54.8799 748.996 54.8799V82.0119C747.78 81.7079 746.64 81.5559 745.576 81.5559C744.512 81.4039 743.448 81.3279 742.384 81.3279C731.592 81.3279 723.004 84.5199 716.62 90.9039C710.236 97.1359 707.044 106.484 707.044 118.948V178H678.544ZM826.78 179.596C814.316 179.596 803.22 176.936 793.492 171.616C783.764 166.144 776.088 158.696 770.464 149.272C764.84 139.848 762.028 129.132 762.028 117.124C762.028 104.964 764.84 94.2479 770.464 84.9759C776.088 75.5519 783.764 68.1799 793.492 62.8599C803.22 57.5399 814.316 54.8799 826.78 54.8799C839.396 54.8799 850.568 57.5399 860.296 62.8599C870.176 68.1799 877.852 75.4759 883.324 84.7479C888.948 94.0199 891.76 104.812 891.76 117.124C891.76 129.132 888.948 139.848 883.324 149.272C877.852 158.696 870.176 166.144 860.296 171.616C850.568 176.936 839.396 179.596 826.78 179.596ZM826.78 155.2C833.772 155.2 840.004 153.68 845.476 150.64C850.948 147.6 855.204 143.192 858.244 137.416C861.436 131.64 863.032 124.876 863.032 117.124C863.032 109.22 861.436 102.456 858.244 96.8319C855.204 91.0559 850.948 86.6479 845.476 83.6079C840.004 80.5679 833.848 79.0479 827.008 79.0479C820.016 79.0479 813.784 80.5679 808.312 83.6079C802.992 86.6479 798.736 91.0559 795.544 96.8319C792.352 102.456 790.756 109.22 790.756 117.124C790.756 124.876 792.352 131.64 795.544 137.416C798.736 143.192 802.992 147.6 808.312 150.64C813.784 153.68 819.94 155.2 826.78 155.2ZM906.473 223.828C901.153 223.828 896.137 223.22 891.425 222.004C886.561 220.94 882.457 219.192 879.113 216.76L887.321 195.556C891.729 198.748 897.277 200.344 903.965 200.344C909.133 200.344 913.161 198.672 916.049 195.328C918.937 192.136 920.381 187.348 920.381 180.964V56.2479H948.881V180.28C948.881 193.656 945.157 204.22 937.709 211.972C930.413 219.876 920.001 223.828 906.473 223.828ZM934.517 36.1839C929.197 36.1839 924.789 34.5119 921.293 31.1679C917.949 27.8239 916.277 23.7959 916.277 19.0839C916.277 14.2199 917.949 10.1919 921.293 6.99988C924.789 3.65588 929.197 1.98389 934.517 1.98389C939.837 1.98389 944.169 3.57988 947.513 6.77188C951.009 9.81189 952.757 13.6879 952.757 18.3999C952.757 23.4159 951.085 27.6719 947.741 31.1679C944.397 34.5119 939.989 36.1839 934.517 36.1839ZM1043.48 179.596C1029.96 179.596 1018.1 176.936 1007.92 171.616C997.883 166.144 990.055 158.696 984.431 149.272C978.959 139.848 976.223 129.132 976.223 117.124C976.223 104.964 978.883 94.2479 984.203 84.9759C989.675 75.5519 997.123 68.1799 1006.55 62.8599C1016.12 57.5399 1026.99 54.8799 1039.15 54.8799C1051.01 54.8799 1061.57 57.4639 1070.84 62.6319C1080.11 67.7999 1087.41 75.0959 1092.73 84.5199C1098.05 93.9439 1100.71 105.04 1100.71 117.808C1100.71 119.024 1100.64 120.392 1100.48 121.912C1100.48 123.432 1100.41 124.876 1100.26 126.244H998.795V107.32H1085.21L1074.04 113.248C1074.19 106.256 1072.74 100.1 1069.7 94.7799C1066.66 89.4599 1062.48 85.2799 1057.16 82.2399C1052 79.1999 1045.99 77.6799 1039.15 77.6799C1032.16 77.6799 1026 79.1999 1020.68 82.2399C1015.52 85.2799 1011.41 89.5359 1008.37 95.0079C1005.48 100.328 1004.04 106.636 1004.04 113.932V118.492C1004.04 125.788 1005.71 132.248 1009.06 137.872C1012.4 143.496 1017.11 147.828 1023.19 150.868C1029.27 153.908 1036.26 155.428 1044.17 155.428C1051.01 155.428 1057.16 154.364 1062.64 152.236C1068.11 150.108 1072.97 146.764 1077.23 142.204L1092.5 159.76C1087.03 166.144 1080.12 171.084 1071.76 174.58C1063.55 177.924 1054.12 179.596 1043.48 179.596ZM1183.95 179.596C1171.18 179.596 1159.78 176.936 1149.75 171.616C1139.87 166.144 1132.12 158.696 1126.49 149.272C1120.87 139.848 1118.06 129.132 1118.06 117.124C1118.06 104.964 1120.87 94.2479 1126.49 84.9759C1132.12 75.5519 1139.87 68.1799 1149.75 62.8599C1159.78 57.5399 1171.18 54.8799 1183.95 54.8799C1195.8 54.8799 1206.22 57.3119 1215.18 62.1759C1224.3 66.8879 1231.22 73.8799 1235.93 83.1519L1214.04 95.9199C1210.4 90.1439 1205.91 85.8879 1200.59 83.1519C1195.42 80.4159 1189.8 79.0479 1183.72 79.0479C1176.73 79.0479 1170.42 80.5679 1164.8 83.6079C1159.17 86.6479 1154.76 91.0559 1151.57 96.8319C1148.38 102.456 1146.78 109.22 1146.78 117.124C1146.78 125.028 1148.38 131.868 1151.57 137.644C1154.76 143.268 1159.17 147.6 1164.8 150.64C1170.42 153.68 1176.73 155.2 1183.72 155.2C1189.8 155.2 1195.42 153.832 1200.59 151.096C1205.91 148.36 1210.4 144.104 1214.04 138.328L1235.93 151.096C1231.22 160.216 1224.3 167.284 1215.18 172.3C1206.22 177.164 1195.8 179.596 1183.95 179.596ZM1307.95 179.596C1294.58 179.596 1284.24 176.176 1276.95 169.336C1269.65 162.344 1266 152.084 1266 138.556V29.3439H1294.5V137.872C1294.5 143.648 1295.95 148.132 1298.83 151.324C1301.87 154.516 1306.05 156.112 1311.37 156.112C1317.76 156.112 1323.08 154.44 1327.33 151.096L1335.31 171.388C1331.97 174.124 1327.87 176.176 1323 177.544C1318.14 178.912 1313.12 179.596 1307.95 179.596ZM1245.94 79.9599V57.1599H1327.11V79.9599H1245.94ZM1396.38 179.596C1386.2 179.596 1376.39 178.304 1366.97 175.72C1357.69 172.984 1350.32 169.716 1344.85 165.916L1355.79 144.256C1361.27 147.752 1367.8 150.64 1375.4 152.92C1383 155.2 1390.6 156.34 1398.2 156.34C1407.17 156.34 1413.63 155.124 1417.58 152.692C1421.69 150.26 1423.74 146.992 1423.74 142.888C1423.74 139.544 1422.37 137.036 1419.64 135.364C1416.9 133.54 1413.33 132.172 1408.92 131.26C1404.51 130.348 1399.57 129.512 1394.1 128.752C1388.78 127.992 1383.38 127.004 1377.91 125.788C1372.59 124.42 1367.73 122.52 1363.32 120.088C1358.91 117.504 1355.34 114.084 1352.6 109.828C1349.87 105.572 1348.5 99.9479 1348.5 92.9559C1348.5 85.2039 1350.7 78.5159 1355.11 72.8919C1359.52 67.1159 1365.67 62.7079 1373.58 59.6679C1381.64 56.4759 1391.14 54.8799 1402.08 54.8799C1410.29 54.8799 1418.57 55.7919 1426.93 57.6159C1435.29 59.4399 1442.21 62.0239 1447.68 65.3679L1436.73 87.0279C1430.96 83.5319 1425.11 81.1759 1419.18 79.9599C1413.4 78.5919 1407.63 77.9079 1401.85 77.9079C1393.19 77.9079 1386.73 79.1999 1382.47 81.7839C1378.37 84.3679 1376.31 87.6359 1376.31 91.5879C1376.31 95.2359 1377.68 97.9719 1380.42 99.7959C1383.15 101.62 1386.73 103.064 1391.14 104.128C1395.54 105.192 1400.41 106.104 1405.73 106.864C1411.2 107.472 1416.59 108.46 1421.91 109.828C1427.23 111.196 1432.1 113.096 1436.51 115.528C1441.07 117.808 1444.71 121.076 1447.45 125.332C1450.19 129.588 1451.55 135.136 1451.55 141.976C1451.55 149.576 1449.28 156.188 1444.71 161.812C1440.31 167.436 1434 171.844 1425.79 175.036C1417.58 178.076 1407.78 179.596 1396.38 179.596Z" stroke="#56CCF2" stroke-width="2" mask="url(#path-1-outside-1_2789_8381)"/>
</g>
</svg>
