<svg width="40" height="40" viewBox="0 0 40 40" fill="none" xmlns="http://www.w3.org/2000/svg">
<g id="php">
<path id="Vector" d="M7.90731 15.8184H12.1685C13.4192 15.8289 14.3255 16.1895 14.8874 16.8996C15.4493 17.6097 15.6347 18.5796 15.4439 19.8093C15.3698 20.3712 15.2054 20.9223 14.951 21.4629C14.7071 22.0035 14.3681 22.491 13.9334 22.9257C13.4033 23.4768 12.8363 23.8266 12.2321 23.9751C11.6279 24.1236 11.0024 24.1977 10.3559 24.1977H8.44791L7.84371 27.2187H5.63361L7.90731 15.8184ZM9.76761 17.631L8.81361 22.401C8.87721 22.4115 8.94081 22.4169 9.00441 22.4169C9.07851 22.4169 9.15291 22.4169 9.22701 22.4169C10.2446 22.4274 11.0927 22.3269 11.771 22.1148C12.4493 21.8922 12.9053 21.1185 13.1384 19.7934C13.3292 18.6804 13.1384 18.039 12.566 17.8695C12.0041 17.7 11.2994 17.6205 10.4513 17.631C10.3241 17.6415 10.2023 17.6469 10.0856 17.6469C9.97971 17.6469 9.86841 17.6469 9.75171 17.6469L9.76761 17.631Z" fill="white"/>
<path id="Vector_2" d="M17.9615 12.7812H20.1557L19.5356 15.8182H21.5072C22.5884 15.8395 23.3939 16.0621 23.924 16.486C24.4646 16.9099 24.6236 17.7157 24.401 18.9028L23.3357 24.1975H21.1097L22.1273 19.1413C22.2332 18.6112 22.2014 18.235 22.0319 18.0124C21.8624 17.7898 21.4967 17.6785 20.9348 17.6785L19.1699 17.6625L17.8661 24.1975H15.6719L17.9615 12.7812Z" fill="white"/>
<path id="Vector_3" d="M26.7572 15.8184H31.0184C32.2691 15.8289 33.1754 16.1895 33.7373 16.8996C34.2992 17.6097 34.4846 18.5796 34.2938 19.8093C34.2197 20.3712 34.0553 20.9223 33.8009 21.4629C33.557 22.0035 33.218 22.491 32.7833 22.9257C32.2532 23.4768 31.6862 23.8266 31.082 23.9751C30.4778 24.1236 29.8523 24.1977 29.2058 24.1977H27.2978L26.6936 27.2187H24.4835L26.7572 15.8184ZM28.6175 17.631L27.6635 22.401C27.7271 22.4115 27.7907 22.4169 27.8543 22.4169C27.9284 22.4169 28.0028 22.4169 28.0769 22.4169C29.0945 22.4274 29.9426 22.3269 30.6209 22.1148C31.2992 21.8922 31.7552 21.1185 31.9883 19.7934C32.1791 18.6804 31.9883 18.039 31.4159 17.8695C30.854 17.7 30.1493 17.6205 29.3012 17.631C29.174 17.6415 29.0522 17.6469 28.9355 17.6469C28.8296 17.6469 28.7183 17.6469 28.6016 17.6469L28.6175 17.631Z" fill="white"/>
</g>
</svg>
