<svg width="886" height="164" viewBox="0 0 886 164" fill="none" xmlns="http://www.w3.org/2000/svg">
<g opacity="0.5">
<mask id="path-1-outside-1_2789_8375" maskUnits="userSpaceOnUse" x="0.665283" y="0.399902" width="885" height="164" fill="black">
<rect fill="white" x="0.665283" y="0.399902" width="885" height="164"/>
<path d="M1.66528 161V1.3999H67.3293C81.4653 1.3999 93.5493 3.6799 103.581 8.23991C113.765 12.7999 121.593 19.3359 127.065 27.8479C132.537 36.3599 135.273 46.4679 135.273 58.1719C135.273 69.8759 132.537 79.9839 127.065 88.4959C121.593 97.0079 113.765 103.544 103.581 108.104C93.5493 112.664 81.4653 114.944 67.3293 114.944H18.0813L31.3053 101.036V161H1.66528ZM31.3053 104.228L18.0813 89.8639H65.9613C79.0333 89.8639 88.8373 87.1279 95.3733 81.6559C102.061 76.0319 105.405 68.2039 105.405 58.1719C105.405 47.9879 102.061 40.1599 95.3733 34.6879C88.8373 29.2159 79.0333 26.4799 65.9613 26.4799H18.0813L31.3053 11.8879V104.228ZM161.023 161V39.2479H188.155V72.7639L184.963 62.9599C188.611 54.7519 194.311 48.5199 202.063 44.2639C209.967 40.0079 219.771 37.8799 231.475 37.8799V65.0119C230.259 64.7079 229.119 64.5559 228.055 64.5559C226.991 64.4039 225.927 64.3279 224.863 64.3279C214.071 64.3279 205.483 67.5199 199.099 73.9039C192.715 80.1359 189.523 89.4839 189.523 101.948V161H161.023ZM309.259 162.596C296.795 162.596 285.699 159.936 275.971 154.616C266.243 149.144 258.567 141.696 252.943 132.272C247.319 122.848 244.507 112.132 244.507 100.124C244.507 87.9639 247.319 77.2479 252.943 67.9759C258.567 58.5519 266.243 51.1799 275.971 45.8599C285.699 40.5399 296.795 37.8799 309.259 37.8799C321.875 37.8799 333.047 40.5399 342.775 45.8599C352.655 51.1799 360.331 58.4759 365.803 67.7479C371.427 77.0199 374.239 87.8119 374.239 100.124C374.239 112.132 371.427 122.848 365.803 132.272C360.331 141.696 352.655 149.144 342.775 154.616C333.047 159.936 321.875 162.596 309.259 162.596ZM309.259 138.2C316.251 138.2 322.483 136.68 327.955 133.64C333.427 130.6 337.683 126.192 340.723 120.416C343.915 114.64 345.511 107.876 345.511 100.124C345.511 92.2199 343.915 85.4559 340.723 79.8319C337.683 74.0559 333.427 69.6479 327.955 66.6079C322.483 63.5679 316.327 62.0479 309.487 62.0479C302.495 62.0479 296.263 63.5679 290.791 66.6079C285.471 69.6479 281.215 74.0559 278.023 79.8319C274.831 85.4559 273.235 92.2199 273.235 100.124C273.235 107.876 274.831 114.64 278.023 120.416C281.215 126.192 285.471 130.6 290.791 133.64C296.263 136.68 302.419 138.2 309.259 138.2ZM457.352 162.596C444.584 162.596 433.184 159.936 423.152 154.616C413.272 149.144 405.52 141.696 399.896 132.272C394.272 122.848 391.46 112.132 391.46 100.124C391.46 87.9639 394.272 77.2479 399.896 67.9759C405.52 58.5519 413.272 51.1799 423.152 45.8599C433.184 40.5399 444.584 37.8799 457.352 37.8799C469.208 37.8799 479.62 40.3119 488.588 45.1759C497.708 49.8879 504.624 56.8799 509.336 66.1519L487.448 78.9199C483.8 73.1439 479.316 68.8879 473.996 66.1519C468.828 63.4159 463.204 62.0479 457.124 62.0479C450.132 62.0479 443.824 63.5679 438.2 66.6079C432.576 69.6479 428.168 74.0559 424.976 79.8319C421.784 85.4559 420.188 92.2199 420.188 100.124C420.188 108.028 421.784 114.868 424.976 120.644C428.168 126.268 432.576 130.6 438.2 133.64C443.824 136.68 450.132 138.2 457.124 138.2C463.204 138.2 468.828 136.832 473.996 134.096C479.316 131.36 483.8 127.104 487.448 121.328L509.336 134.096C504.624 143.216 497.708 150.284 488.588 155.3C479.62 160.164 469.208 162.596 457.352 162.596ZM589.419 162.596C575.891 162.596 564.035 159.936 553.851 154.616C543.819 149.144 535.991 141.696 530.367 132.272C524.895 122.848 522.159 112.132 522.159 100.124C522.159 87.9639 524.819 77.2479 530.139 67.9759C535.611 58.5519 543.059 51.1799 552.483 45.8599C562.059 40.5399 572.927 37.8799 585.087 37.8799C596.943 37.8799 607.507 40.4639 616.779 45.6319C626.051 50.7999 633.347 58.0959 638.667 67.5199C643.987 76.9439 646.647 88.0399 646.647 100.808C646.647 102.024 646.571 103.392 646.419 104.912C646.419 106.432 646.343 107.876 646.191 109.244H544.731V90.3199H631.143L619.971 96.2479C620.123 89.2559 618.679 83.0999 615.639 77.7799C612.599 72.4599 608.419 68.2799 603.099 65.2399C597.931 62.1999 591.927 60.6799 585.087 60.6799C578.095 60.6799 571.939 62.1999 566.619 65.2399C561.451 68.2799 557.347 72.5359 554.307 78.0079C551.419 83.3279 549.975 89.6359 549.975 96.9319V101.492C549.975 108.788 551.647 115.248 554.991 120.872C558.335 126.496 563.047 130.828 569.127 133.868C575.207 136.908 582.199 138.428 590.103 138.428C596.943 138.428 603.099 137.364 608.571 135.236C614.043 133.108 618.907 129.764 623.163 125.204L638.439 142.76C632.967 149.144 626.051 154.084 617.691 157.58C609.483 160.924 600.059 162.596 589.419 162.596ZM711.643 162.596C701.459 162.596 691.655 161.304 682.231 158.72C672.959 155.984 665.587 152.716 660.115 148.916L671.059 127.256C676.531 130.752 683.067 133.64 690.667 135.92C698.267 138.2 705.867 139.34 713.467 139.34C722.435 139.34 728.895 138.124 732.847 135.692C736.951 133.26 739.003 129.992 739.003 125.888C739.003 122.544 737.635 120.036 734.899 118.364C732.163 116.54 728.591 115.172 724.183 114.26C719.775 113.348 714.835 112.512 709.363 111.752C704.043 110.992 698.647 110.004 693.175 108.788C687.855 107.42 682.991 105.52 678.583 103.088C674.175 100.504 670.603 97.0839 667.867 92.8279C665.131 88.5719 663.763 82.9479 663.763 75.9559C663.763 68.2039 665.967 61.5159 670.375 55.8919C674.783 50.1159 680.939 45.7079 688.843 42.6679C696.899 39.4759 706.399 37.8799 717.343 37.8799C725.551 37.8799 733.835 38.7919 742.195 40.6159C750.555 42.4399 757.471 45.0239 762.943 48.3679L751.999 70.0279C746.223 66.5319 740.371 64.1759 734.443 62.9599C728.667 61.5919 722.891 60.9079 717.115 60.9079C708.451 60.9079 701.991 62.1999 697.735 64.7839C693.631 67.3679 691.579 70.6359 691.579 74.5879C691.579 78.2359 692.947 80.9719 695.683 82.7959C698.419 84.6199 701.991 86.0639 706.399 87.1279C710.807 88.1919 715.671 89.1039 720.991 89.8639C726.463 90.4719 731.859 91.4599 737.179 92.8279C742.499 94.1959 747.363 96.0959 751.771 98.5279C756.331 100.808 759.979 104.076 762.715 108.332C765.451 112.588 766.819 118.136 766.819 124.976C766.819 132.576 764.539 139.188 759.979 144.812C755.571 150.436 749.263 154.844 741.055 158.036C732.847 161.076 723.043 162.596 711.643 162.596ZM828.983 162.596C818.799 162.596 808.995 161.304 799.571 158.72C790.299 155.984 782.927 152.716 777.455 148.916L788.399 127.256C793.871 130.752 800.407 133.64 808.007 135.92C815.607 138.2 823.207 139.34 830.807 139.34C839.775 139.34 846.235 138.124 850.187 135.692C854.291 133.26 856.343 129.992 856.343 125.888C856.343 122.544 854.975 120.036 852.239 118.364C849.503 116.54 845.931 115.172 841.523 114.26C837.115 113.348 832.175 112.512 826.703 111.752C821.383 110.992 815.987 110.004 810.515 108.788C805.195 107.42 800.331 105.52 795.923 103.088C791.515 100.504 787.943 97.0839 785.207 92.8279C782.471 88.5719 781.103 82.9479 781.103 75.9559C781.103 68.2039 783.307 61.5159 787.715 55.8919C792.123 50.1159 798.279 45.7079 806.183 42.6679C814.239 39.4759 823.739 37.8799 834.683 37.8799C842.891 37.8799 851.175 38.7919 859.535 40.6159C867.895 42.4399 874.811 45.0239 880.283 48.3679L869.339 70.0279C863.563 66.5319 857.711 64.1759 851.783 62.9599C846.007 61.5919 840.231 60.9079 834.455 60.9079C825.791 60.9079 819.331 62.1999 815.075 64.7839C810.971 67.3679 808.919 70.6359 808.919 74.5879C808.919 78.2359 810.287 80.9719 813.023 82.7959C815.759 84.6199 819.331 86.0639 823.739 87.1279C828.147 88.1919 833.011 89.1039 838.331 89.8639C843.803 90.4719 849.199 91.4599 854.519 92.8279C859.839 94.1959 864.703 96.0959 869.111 98.5279C873.671 100.808 877.319 104.076 880.055 108.332C882.791 112.588 884.159 118.136 884.159 124.976C884.159 132.576 881.879 139.188 877.319 144.812C872.911 150.436 866.603 154.844 858.395 158.036C850.187 161.076 840.383 162.596 828.983 162.596Z"/>
</mask>
<path d="M1.66528 161V1.3999H67.3293C81.4653 1.3999 93.5493 3.6799 103.581 8.23991C113.765 12.7999 121.593 19.3359 127.065 27.8479C132.537 36.3599 135.273 46.4679 135.273 58.1719C135.273 69.8759 132.537 79.9839 127.065 88.4959C121.593 97.0079 113.765 103.544 103.581 108.104C93.5493 112.664 81.4653 114.944 67.3293 114.944H18.0813L31.3053 101.036V161H1.66528ZM31.3053 104.228L18.0813 89.8639H65.9613C79.0333 89.8639 88.8373 87.1279 95.3733 81.6559C102.061 76.0319 105.405 68.2039 105.405 58.1719C105.405 47.9879 102.061 40.1599 95.3733 34.6879C88.8373 29.2159 79.0333 26.4799 65.9613 26.4799H18.0813L31.3053 11.8879V104.228ZM161.023 161V39.2479H188.155V72.7639L184.963 62.9599C188.611 54.7519 194.311 48.5199 202.063 44.2639C209.967 40.0079 219.771 37.8799 231.475 37.8799V65.0119C230.259 64.7079 229.119 64.5559 228.055 64.5559C226.991 64.4039 225.927 64.3279 224.863 64.3279C214.071 64.3279 205.483 67.5199 199.099 73.9039C192.715 80.1359 189.523 89.4839 189.523 101.948V161H161.023ZM309.259 162.596C296.795 162.596 285.699 159.936 275.971 154.616C266.243 149.144 258.567 141.696 252.943 132.272C247.319 122.848 244.507 112.132 244.507 100.124C244.507 87.9639 247.319 77.2479 252.943 67.9759C258.567 58.5519 266.243 51.1799 275.971 45.8599C285.699 40.5399 296.795 37.8799 309.259 37.8799C321.875 37.8799 333.047 40.5399 342.775 45.8599C352.655 51.1799 360.331 58.4759 365.803 67.7479C371.427 77.0199 374.239 87.8119 374.239 100.124C374.239 112.132 371.427 122.848 365.803 132.272C360.331 141.696 352.655 149.144 342.775 154.616C333.047 159.936 321.875 162.596 309.259 162.596ZM309.259 138.2C316.251 138.2 322.483 136.68 327.955 133.64C333.427 130.6 337.683 126.192 340.723 120.416C343.915 114.64 345.511 107.876 345.511 100.124C345.511 92.2199 343.915 85.4559 340.723 79.8319C337.683 74.0559 333.427 69.6479 327.955 66.6079C322.483 63.5679 316.327 62.0479 309.487 62.0479C302.495 62.0479 296.263 63.5679 290.791 66.6079C285.471 69.6479 281.215 74.0559 278.023 79.8319C274.831 85.4559 273.235 92.2199 273.235 100.124C273.235 107.876 274.831 114.64 278.023 120.416C281.215 126.192 285.471 130.6 290.791 133.64C296.263 136.68 302.419 138.2 309.259 138.2ZM457.352 162.596C444.584 162.596 433.184 159.936 423.152 154.616C413.272 149.144 405.52 141.696 399.896 132.272C394.272 122.848 391.46 112.132 391.46 100.124C391.46 87.9639 394.272 77.2479 399.896 67.9759C405.52 58.5519 413.272 51.1799 423.152 45.8599C433.184 40.5399 444.584 37.8799 457.352 37.8799C469.208 37.8799 479.62 40.3119 488.588 45.1759C497.708 49.8879 504.624 56.8799 509.336 66.1519L487.448 78.9199C483.8 73.1439 479.316 68.8879 473.996 66.1519C468.828 63.4159 463.204 62.0479 457.124 62.0479C450.132 62.0479 443.824 63.5679 438.2 66.6079C432.576 69.6479 428.168 74.0559 424.976 79.8319C421.784 85.4559 420.188 92.2199 420.188 100.124C420.188 108.028 421.784 114.868 424.976 120.644C428.168 126.268 432.576 130.6 438.2 133.64C443.824 136.68 450.132 138.2 457.124 138.2C463.204 138.2 468.828 136.832 473.996 134.096C479.316 131.36 483.8 127.104 487.448 121.328L509.336 134.096C504.624 143.216 497.708 150.284 488.588 155.3C479.62 160.164 469.208 162.596 457.352 162.596ZM589.419 162.596C575.891 162.596 564.035 159.936 553.851 154.616C543.819 149.144 535.991 141.696 530.367 132.272C524.895 122.848 522.159 112.132 522.159 100.124C522.159 87.9639 524.819 77.2479 530.139 67.9759C535.611 58.5519 543.059 51.1799 552.483 45.8599C562.059 40.5399 572.927 37.8799 585.087 37.8799C596.943 37.8799 607.507 40.4639 616.779 45.6319C626.051 50.7999 633.347 58.0959 638.667 67.5199C643.987 76.9439 646.647 88.0399 646.647 100.808C646.647 102.024 646.571 103.392 646.419 104.912C646.419 106.432 646.343 107.876 646.191 109.244H544.731V90.3199H631.143L619.971 96.2479C620.123 89.2559 618.679 83.0999 615.639 77.7799C612.599 72.4599 608.419 68.2799 603.099 65.2399C597.931 62.1999 591.927 60.6799 585.087 60.6799C578.095 60.6799 571.939 62.1999 566.619 65.2399C561.451 68.2799 557.347 72.5359 554.307 78.0079C551.419 83.3279 549.975 89.6359 549.975 96.9319V101.492C549.975 108.788 551.647 115.248 554.991 120.872C558.335 126.496 563.047 130.828 569.127 133.868C575.207 136.908 582.199 138.428 590.103 138.428C596.943 138.428 603.099 137.364 608.571 135.236C614.043 133.108 618.907 129.764 623.163 125.204L638.439 142.76C632.967 149.144 626.051 154.084 617.691 157.58C609.483 160.924 600.059 162.596 589.419 162.596ZM711.643 162.596C701.459 162.596 691.655 161.304 682.231 158.72C672.959 155.984 665.587 152.716 660.115 148.916L671.059 127.256C676.531 130.752 683.067 133.64 690.667 135.92C698.267 138.2 705.867 139.34 713.467 139.34C722.435 139.34 728.895 138.124 732.847 135.692C736.951 133.26 739.003 129.992 739.003 125.888C739.003 122.544 737.635 120.036 734.899 118.364C732.163 116.54 728.591 115.172 724.183 114.26C719.775 113.348 714.835 112.512 709.363 111.752C704.043 110.992 698.647 110.004 693.175 108.788C687.855 107.42 682.991 105.52 678.583 103.088C674.175 100.504 670.603 97.0839 667.867 92.8279C665.131 88.5719 663.763 82.9479 663.763 75.9559C663.763 68.2039 665.967 61.5159 670.375 55.8919C674.783 50.1159 680.939 45.7079 688.843 42.6679C696.899 39.4759 706.399 37.8799 717.343 37.8799C725.551 37.8799 733.835 38.7919 742.195 40.6159C750.555 42.4399 757.471 45.0239 762.943 48.3679L751.999 70.0279C746.223 66.5319 740.371 64.1759 734.443 62.9599C728.667 61.5919 722.891 60.9079 717.115 60.9079C708.451 60.9079 701.991 62.1999 697.735 64.7839C693.631 67.3679 691.579 70.6359 691.579 74.5879C691.579 78.2359 692.947 80.9719 695.683 82.7959C698.419 84.6199 701.991 86.0639 706.399 87.1279C710.807 88.1919 715.671 89.1039 720.991 89.8639C726.463 90.4719 731.859 91.4599 737.179 92.8279C742.499 94.1959 747.363 96.0959 751.771 98.5279C756.331 100.808 759.979 104.076 762.715 108.332C765.451 112.588 766.819 118.136 766.819 124.976C766.819 132.576 764.539 139.188 759.979 144.812C755.571 150.436 749.263 154.844 741.055 158.036C732.847 161.076 723.043 162.596 711.643 162.596ZM828.983 162.596C818.799 162.596 808.995 161.304 799.571 158.72C790.299 155.984 782.927 152.716 777.455 148.916L788.399 127.256C793.871 130.752 800.407 133.64 808.007 135.92C815.607 138.2 823.207 139.34 830.807 139.34C839.775 139.34 846.235 138.124 850.187 135.692C854.291 133.26 856.343 129.992 856.343 125.888C856.343 122.544 854.975 120.036 852.239 118.364C849.503 116.54 845.931 115.172 841.523 114.26C837.115 113.348 832.175 112.512 826.703 111.752C821.383 110.992 815.987 110.004 810.515 108.788C805.195 107.42 800.331 105.52 795.923 103.088C791.515 100.504 787.943 97.0839 785.207 92.8279C782.471 88.5719 781.103 82.9479 781.103 75.9559C781.103 68.2039 783.307 61.5159 787.715 55.8919C792.123 50.1159 798.279 45.7079 806.183 42.6679C814.239 39.4759 823.739 37.8799 834.683 37.8799C842.891 37.8799 851.175 38.7919 859.535 40.6159C867.895 42.4399 874.811 45.0239 880.283 48.3679L869.339 70.0279C863.563 66.5319 857.711 64.1759 851.783 62.9599C846.007 61.5919 840.231 60.9079 834.455 60.9079C825.791 60.9079 819.331 62.1999 815.075 64.7839C810.971 67.3679 808.919 70.6359 808.919 74.5879C808.919 78.2359 810.287 80.9719 813.023 82.7959C815.759 84.6199 819.331 86.0639 823.739 87.1279C828.147 88.1919 833.011 89.1039 838.331 89.8639C843.803 90.4719 849.199 91.4599 854.519 92.8279C859.839 94.1959 864.703 96.0959 869.111 98.5279C873.671 100.808 877.319 104.076 880.055 108.332C882.791 112.588 884.159 118.136 884.159 124.976C884.159 132.576 881.879 139.188 877.319 144.812C872.911 150.436 866.603 154.844 858.395 158.036C850.187 161.076 840.383 162.596 828.983 162.596Z" stroke="#56CCF2" stroke-width="2" mask="url(#path-1-outside-1_2789_8375)"/>
</g>
</svg>
