<svg width="16" height="17" viewBox="0 0 16 17" fill="none" xmlns="http://www.w3.org/2000/svg">
<path d="M1.33334 9.34106L11.4533 9.34106L7.05334 13.7277C6.80227 13.9788 6.66122 14.3193 6.66122 14.6744C6.66122 15.0295 6.80227 15.37 7.05334 15.6211C7.30442 15.8721 7.64494 16.0132 8.00001 16.0132C8.35508 16.0132 8.69561 15.8721 8.94668 15.6211L15.6133 8.9544C15.7347 8.82759 15.8299 8.67806 15.8933 8.5144C16.0267 8.18978 16.0267 7.82568 15.8933 7.50106C15.8299 7.33739 15.7347 7.18787 15.6133 7.06106L8.94668 0.394398C8.82273 0.269427 8.67526 0.170232 8.51278 0.10254C8.3503 0.0348485 8.17603 -1.90735e-06 8.00001 -1.90735e-06C7.82399 -1.90735e-06 7.64972 0.0348485 7.48724 0.10254C7.32476 0.170232 7.17729 0.269427 7.05334 0.394398C6.92837 0.518348 6.82918 0.665815 6.76149 0.828294C6.6938 0.990773 6.65895 1.16505 6.65895 1.34106C6.65895 1.51708 6.6938 1.69135 6.76149 1.85383C6.82918 2.01631 6.92837 2.16378 7.05334 2.28773L11.4533 6.6744L1.33334 6.6744C0.979722 6.6744 0.640583 6.81487 0.390534 7.06492C0.140486 7.31497 1.04904e-05 7.65411 1.04904e-05 8.00773C1.04904e-05 8.36135 0.140486 8.70049 0.390534 8.95054C0.640583 9.20059 0.979722 9.34106 1.33334 9.34106Z" fill="white"/>
</svg>
