<svg width="961" height="182" viewBox="0 0 961 182" fill="none" xmlns="http://www.w3.org/2000/svg">
<g opacity="0.5">
<mask id="path-1-outside-1_2789_8371" maskUnits="userSpaceOnUse" x="-0.752197" y="0.984009" width="962" height="181" fill="black">
<rect fill="white" x="-0.752197" y="0.984009" width="962" height="181"/>
<path d="M64.1758 180.28C51.7118 180.28 39.7798 178.532 28.3798 175.036C16.9798 171.388 7.9358 166.752 1.2478 161.128L11.5078 138.1C17.8918 143.116 25.7958 147.296 35.2198 150.64C44.6438 153.984 54.2958 155.656 64.1758 155.656C72.5358 155.656 79.2998 154.744 84.4678 152.92C89.6358 151.096 93.4358 148.664 95.8678 145.624C98.2998 142.432 99.5158 138.86 99.5158 134.908C99.5158 130.044 97.7678 126.168 94.2718 123.28C90.7758 120.24 86.2158 117.884 80.5918 116.212C75.1198 114.388 68.9638 112.716 62.1238 111.196C55.4358 109.676 48.6718 107.928 41.8318 105.952C35.1438 103.824 28.9878 101.164 23.3638 97.972C17.8918 94.628 13.4078 90.22 9.9118 84.748C6.4158 79.276 4.6678 72.284 4.6678 63.772C4.6678 55.108 6.9478 47.204 11.5078 40.06C16.2198 32.764 23.2878 26.988 32.7118 22.732C42.2878 18.324 54.3718 16.12 68.9638 16.12C78.5398 16.12 88.0398 17.336 97.4638 19.768C106.888 22.2 115.096 25.696 122.088 30.256L112.74 53.284C105.596 49.028 98.2238 45.912 90.6238 43.936C83.0238 41.808 75.7278 40.744 68.7358 40.744C60.5278 40.744 53.8398 41.732 48.6718 43.708C43.6558 45.684 39.9318 48.268 37.4998 51.46C35.2198 54.652 34.0798 58.3 34.0798 62.404C34.0798 67.268 35.7518 71.22 39.0958 74.26C42.5918 77.148 47.0758 79.428 52.5478 81.1C58.1718 82.772 64.4038 84.444 71.2438 86.116C78.0838 87.636 84.8478 89.384 91.5358 91.36C98.3758 93.336 104.532 95.92 110.004 99.112C115.628 102.304 120.112 106.636 123.456 112.108C126.952 117.58 128.7 124.496 128.7 132.856C128.7 141.368 126.344 149.272 121.632 156.568C117.072 163.712 110.004 169.488 100.428 173.896C90.8518 178.152 78.7678 180.28 64.1758 180.28ZM212.582 179.596C199.054 179.596 187.198 176.936 177.014 171.616C166.982 166.144 159.154 158.696 153.53 149.272C148.058 139.848 145.322 129.132 145.322 117.124C145.322 104.964 147.982 94.248 153.302 84.976C158.774 75.552 166.222 68.18 175.646 62.86C185.222 57.54 196.09 54.88 208.25 54.88C220.106 54.88 230.67 57.464 239.942 62.632C249.214 67.8 256.51 75.096 261.83 84.52C267.15 93.944 269.81 105.04 269.81 117.808C269.81 119.024 269.734 120.392 269.582 121.912C269.582 123.432 269.506 124.876 269.354 126.244H167.894V107.32H254.306L243.134 113.248C243.286 106.256 241.842 100.1 238.802 94.78C235.762 89.46 231.582 85.28 226.262 82.24C221.094 79.2 215.09 77.68 208.25 77.68C201.258 77.68 195.102 79.2 189.782 82.24C184.614 85.28 180.51 89.536 177.47 95.008C174.582 100.328 173.138 106.636 173.138 113.932V118.492C173.138 125.788 174.81 132.248 178.154 137.872C181.498 143.496 186.21 147.828 192.29 150.868C198.37 153.908 205.362 155.428 213.266 155.428C220.106 155.428 226.262 154.364 231.734 152.236C237.206 150.108 242.07 146.764 246.326 142.204L261.602 159.76C256.13 166.144 249.214 171.084 240.854 174.58C232.646 177.924 223.222 179.596 212.582 179.596ZM297.186 178V56.248H324.318V89.764L321.126 79.96C324.774 71.752 330.474 65.52 338.226 61.264C346.13 57.008 355.934 54.88 367.638 54.88V82.012C366.422 81.708 365.282 81.556 364.218 81.556C363.154 81.404 362.09 81.328 361.026 81.328C350.234 81.328 341.646 84.52 335.262 90.904C328.878 97.136 325.686 106.484 325.686 118.948V178H297.186ZM428.645 178L376.432 56.248H406.072L450.988 163.636H436.396L482.908 56.248H510.268L458.056 178H428.645ZM528.081 178V56.248H556.581V178H528.081ZM542.445 36.184C537.125 36.184 532.717 34.512 529.221 31.168C525.877 27.824 524.205 23.796 524.205 19.084C524.205 14.22 525.877 10.192 529.221 7C532.717 3.65601 537.125 1.98401 542.445 1.98401C547.765 1.98401 552.097 3.58001 555.441 6.772C558.937 9.81201 560.685 13.688 560.685 18.4C560.685 23.416 559.013 27.672 555.669 31.168C552.325 34.512 547.917 36.184 542.445 36.184ZM649.847 179.596C637.079 179.596 625.679 176.936 615.647 171.616C605.767 166.144 598.015 158.696 592.391 149.272C586.767 139.848 583.955 129.132 583.955 117.124C583.955 104.964 586.767 94.248 592.391 84.976C598.015 75.552 605.767 68.18 615.647 62.86C625.679 57.54 637.079 54.88 649.847 54.88C661.703 54.88 672.115 57.312 681.083 62.176C690.203 66.888 697.119 73.88 701.831 83.152L679.943 95.92C676.295 90.144 671.811 85.888 666.491 83.152C661.323 80.416 655.699 79.048 649.619 79.048C642.627 79.048 636.319 80.568 630.695 83.608C625.071 86.648 620.663 91.056 617.471 96.832C614.279 102.456 612.683 109.22 612.683 117.124C612.683 125.028 614.279 131.868 617.471 137.644C620.663 143.268 625.071 147.6 630.695 150.64C636.319 153.68 642.627 155.2 649.619 155.2C655.699 155.2 661.323 153.832 666.491 151.096C671.811 148.36 676.295 144.104 679.943 138.328L701.831 151.096C697.119 160.216 690.203 167.284 681.083 172.3C672.115 177.164 661.703 179.596 649.847 179.596ZM781.914 179.596C768.386 179.596 756.53 176.936 746.346 171.616C736.314 166.144 728.487 158.696 722.862 149.272C717.391 139.848 714.654 129.132 714.654 117.124C714.654 104.964 717.314 94.248 722.634 84.976C728.106 75.552 735.554 68.18 744.978 62.86C754.554 57.54 765.422 54.88 777.582 54.88C789.438 54.88 800.003 57.464 809.274 62.632C818.546 67.8 825.842 75.096 831.162 84.52C836.482 93.944 839.142 105.04 839.142 117.808C839.142 119.024 839.066 120.392 838.914 121.912C838.914 123.432 838.838 124.876 838.686 126.244H737.226V107.32H823.638L812.466 113.248C812.618 106.256 811.174 100.1 808.134 94.78C805.094 89.46 800.914 85.28 795.594 82.24C790.427 79.2 784.422 77.68 777.582 77.68C770.59 77.68 764.434 79.2 759.114 82.24C753.946 85.28 749.842 89.536 746.802 95.008C743.914 100.328 742.47 106.636 742.47 113.932V118.492C742.47 125.788 744.142 132.248 747.486 137.872C750.83 143.496 755.542 147.828 761.622 150.868C767.702 153.908 774.694 155.428 782.598 155.428C789.438 155.428 795.594 154.364 801.066 152.236C806.538 150.108 811.402 146.764 815.658 142.204L830.934 159.76C825.462 166.144 818.546 171.084 810.186 174.58C801.978 177.924 792.555 179.596 781.914 179.596ZM904.138 179.596C893.954 179.596 884.151 178.304 874.727 175.72C865.455 172.984 858.082 169.716 852.61 165.916L863.555 144.256C869.026 147.752 875.562 150.64 883.162 152.92C890.762 155.2 898.363 156.34 905.963 156.34C914.931 156.34 921.39 155.124 925.342 152.692C929.446 150.26 931.498 146.992 931.498 142.888C931.498 139.544 930.13 137.036 927.394 135.364C924.658 133.54 921.086 132.172 916.678 131.26C912.27 130.348 907.331 129.512 901.859 128.752C896.539 127.992 891.142 127.004 885.67 125.788C880.35 124.42 875.487 122.52 871.078 120.088C866.67 117.504 863.099 114.084 860.362 109.828C857.626 105.572 856.258 99.948 856.258 92.956C856.258 85.204 858.462 78.516 862.87 72.892C867.279 67.116 873.435 62.708 881.339 59.668C889.395 56.476 898.894 54.88 909.839 54.88C918.047 54.88 926.331 55.792 934.69 57.616C943.05 59.44 949.966 62.024 955.438 65.368L944.495 87.028C938.719 83.532 932.866 81.176 926.938 79.96C921.162 78.592 915.386 77.908 909.61 77.908C900.946 77.908 894.486 79.2 890.23 81.784C886.126 84.368 884.074 87.636 884.074 91.588C884.074 95.236 885.442 97.972 888.178 99.796C890.914 101.62 894.486 103.064 898.894 104.128C903.302 105.192 908.167 106.104 913.487 106.864C918.958 107.472 924.354 108.46 929.674 109.828C934.995 111.196 939.858 113.096 944.266 115.528C948.826 117.808 952.474 121.076 955.211 125.332C957.947 129.588 959.315 135.136 959.315 141.976C959.315 149.576 957.034 156.188 952.474 161.812C948.066 167.436 941.758 171.844 933.55 175.036C925.342 178.076 915.539 179.596 904.138 179.596Z"/>
</mask>
<path d="M64.1758 180.28C51.7118 180.28 39.7798 178.532 28.3798 175.036C16.9798 171.388 7.9358 166.752 1.2478 161.128L11.5078 138.1C17.8918 143.116 25.7958 147.296 35.2198 150.64C44.6438 153.984 54.2958 155.656 64.1758 155.656C72.5358 155.656 79.2998 154.744 84.4678 152.92C89.6358 151.096 93.4358 148.664 95.8678 145.624C98.2998 142.432 99.5158 138.86 99.5158 134.908C99.5158 130.044 97.7678 126.168 94.2718 123.28C90.7758 120.24 86.2158 117.884 80.5918 116.212C75.1198 114.388 68.9638 112.716 62.1238 111.196C55.4358 109.676 48.6718 107.928 41.8318 105.952C35.1438 103.824 28.9878 101.164 23.3638 97.972C17.8918 94.628 13.4078 90.22 9.9118 84.748C6.4158 79.276 4.6678 72.284 4.6678 63.772C4.6678 55.108 6.9478 47.204 11.5078 40.06C16.2198 32.764 23.2878 26.988 32.7118 22.732C42.2878 18.324 54.3718 16.12 68.9638 16.12C78.5398 16.12 88.0398 17.336 97.4638 19.768C106.888 22.2 115.096 25.696 122.088 30.256L112.74 53.284C105.596 49.028 98.2238 45.912 90.6238 43.936C83.0238 41.808 75.7278 40.744 68.7358 40.744C60.5278 40.744 53.8398 41.732 48.6718 43.708C43.6558 45.684 39.9318 48.268 37.4998 51.46C35.2198 54.652 34.0798 58.3 34.0798 62.404C34.0798 67.268 35.7518 71.22 39.0958 74.26C42.5918 77.148 47.0758 79.428 52.5478 81.1C58.1718 82.772 64.4038 84.444 71.2438 86.116C78.0838 87.636 84.8478 89.384 91.5358 91.36C98.3758 93.336 104.532 95.92 110.004 99.112C115.628 102.304 120.112 106.636 123.456 112.108C126.952 117.58 128.7 124.496 128.7 132.856C128.7 141.368 126.344 149.272 121.632 156.568C117.072 163.712 110.004 169.488 100.428 173.896C90.8518 178.152 78.7678 180.28 64.1758 180.28ZM212.582 179.596C199.054 179.596 187.198 176.936 177.014 171.616C166.982 166.144 159.154 158.696 153.53 149.272C148.058 139.848 145.322 129.132 145.322 117.124C145.322 104.964 147.982 94.248 153.302 84.976C158.774 75.552 166.222 68.18 175.646 62.86C185.222 57.54 196.09 54.88 208.25 54.88C220.106 54.88 230.67 57.464 239.942 62.632C249.214 67.8 256.51 75.096 261.83 84.52C267.15 93.944 269.81 105.04 269.81 117.808C269.81 119.024 269.734 120.392 269.582 121.912C269.582 123.432 269.506 124.876 269.354 126.244H167.894V107.32H254.306L243.134 113.248C243.286 106.256 241.842 100.1 238.802 94.78C235.762 89.46 231.582 85.28 226.262 82.24C221.094 79.2 215.09 77.68 208.25 77.68C201.258 77.68 195.102 79.2 189.782 82.24C184.614 85.28 180.51 89.536 177.47 95.008C174.582 100.328 173.138 106.636 173.138 113.932V118.492C173.138 125.788 174.81 132.248 178.154 137.872C181.498 143.496 186.21 147.828 192.29 150.868C198.37 153.908 205.362 155.428 213.266 155.428C220.106 155.428 226.262 154.364 231.734 152.236C237.206 150.108 242.07 146.764 246.326 142.204L261.602 159.76C256.13 166.144 249.214 171.084 240.854 174.58C232.646 177.924 223.222 179.596 212.582 179.596ZM297.186 178V56.248H324.318V89.764L321.126 79.96C324.774 71.752 330.474 65.52 338.226 61.264C346.13 57.008 355.934 54.88 367.638 54.88V82.012C366.422 81.708 365.282 81.556 364.218 81.556C363.154 81.404 362.09 81.328 361.026 81.328C350.234 81.328 341.646 84.52 335.262 90.904C328.878 97.136 325.686 106.484 325.686 118.948V178H297.186ZM428.645 178L376.432 56.248H406.072L450.988 163.636H436.396L482.908 56.248H510.268L458.056 178H428.645ZM528.081 178V56.248H556.581V178H528.081ZM542.445 36.184C537.125 36.184 532.717 34.512 529.221 31.168C525.877 27.824 524.205 23.796 524.205 19.084C524.205 14.22 525.877 10.192 529.221 7C532.717 3.65601 537.125 1.98401 542.445 1.98401C547.765 1.98401 552.097 3.58001 555.441 6.772C558.937 9.81201 560.685 13.688 560.685 18.4C560.685 23.416 559.013 27.672 555.669 31.168C552.325 34.512 547.917 36.184 542.445 36.184ZM649.847 179.596C637.079 179.596 625.679 176.936 615.647 171.616C605.767 166.144 598.015 158.696 592.391 149.272C586.767 139.848 583.955 129.132 583.955 117.124C583.955 104.964 586.767 94.248 592.391 84.976C598.015 75.552 605.767 68.18 615.647 62.86C625.679 57.54 637.079 54.88 649.847 54.88C661.703 54.88 672.115 57.312 681.083 62.176C690.203 66.888 697.119 73.88 701.831 83.152L679.943 95.92C676.295 90.144 671.811 85.888 666.491 83.152C661.323 80.416 655.699 79.048 649.619 79.048C642.627 79.048 636.319 80.568 630.695 83.608C625.071 86.648 620.663 91.056 617.471 96.832C614.279 102.456 612.683 109.22 612.683 117.124C612.683 125.028 614.279 131.868 617.471 137.644C620.663 143.268 625.071 147.6 630.695 150.64C636.319 153.68 642.627 155.2 649.619 155.2C655.699 155.2 661.323 153.832 666.491 151.096C671.811 148.36 676.295 144.104 679.943 138.328L701.831 151.096C697.119 160.216 690.203 167.284 681.083 172.3C672.115 177.164 661.703 179.596 649.847 179.596ZM781.914 179.596C768.386 179.596 756.53 176.936 746.346 171.616C736.314 166.144 728.487 158.696 722.862 149.272C717.391 139.848 714.654 129.132 714.654 117.124C714.654 104.964 717.314 94.248 722.634 84.976C728.106 75.552 735.554 68.18 744.978 62.86C754.554 57.54 765.422 54.88 777.582 54.88C789.438 54.88 800.003 57.464 809.274 62.632C818.546 67.8 825.842 75.096 831.162 84.52C836.482 93.944 839.142 105.04 839.142 117.808C839.142 119.024 839.066 120.392 838.914 121.912C838.914 123.432 838.838 124.876 838.686 126.244H737.226V107.32H823.638L812.466 113.248C812.618 106.256 811.174 100.1 808.134 94.78C805.094 89.46 800.914 85.28 795.594 82.24C790.427 79.2 784.422 77.68 777.582 77.68C770.59 77.68 764.434 79.2 759.114 82.24C753.946 85.28 749.842 89.536 746.802 95.008C743.914 100.328 742.47 106.636 742.47 113.932V118.492C742.47 125.788 744.142 132.248 747.486 137.872C750.83 143.496 755.542 147.828 761.622 150.868C767.702 153.908 774.694 155.428 782.598 155.428C789.438 155.428 795.594 154.364 801.066 152.236C806.538 150.108 811.402 146.764 815.658 142.204L830.934 159.76C825.462 166.144 818.546 171.084 810.186 174.58C801.978 177.924 792.555 179.596 781.914 179.596ZM904.138 179.596C893.954 179.596 884.151 178.304 874.727 175.72C865.455 172.984 858.082 169.716 852.61 165.916L863.555 144.256C869.026 147.752 875.562 150.64 883.162 152.92C890.762 155.2 898.363 156.34 905.963 156.34C914.931 156.34 921.39 155.124 925.342 152.692C929.446 150.26 931.498 146.992 931.498 142.888C931.498 139.544 930.13 137.036 927.394 135.364C924.658 133.54 921.086 132.172 916.678 131.26C912.27 130.348 907.331 129.512 901.859 128.752C896.539 127.992 891.142 127.004 885.67 125.788C880.35 124.42 875.487 122.52 871.078 120.088C866.67 117.504 863.099 114.084 860.362 109.828C857.626 105.572 856.258 99.948 856.258 92.956C856.258 85.204 858.462 78.516 862.87 72.892C867.279 67.116 873.435 62.708 881.339 59.668C889.395 56.476 898.894 54.88 909.839 54.88C918.047 54.88 926.331 55.792 934.69 57.616C943.05 59.44 949.966 62.024 955.438 65.368L944.495 87.028C938.719 83.532 932.866 81.176 926.938 79.96C921.162 78.592 915.386 77.908 909.61 77.908C900.946 77.908 894.486 79.2 890.23 81.784C886.126 84.368 884.074 87.636 884.074 91.588C884.074 95.236 885.442 97.972 888.178 99.796C890.914 101.62 894.486 103.064 898.894 104.128C903.302 105.192 908.167 106.104 913.487 106.864C918.958 107.472 924.354 108.46 929.674 109.828C934.995 111.196 939.858 113.096 944.266 115.528C948.826 117.808 952.474 121.076 955.211 125.332C957.947 129.588 959.315 135.136 959.315 141.976C959.315 149.576 957.034 156.188 952.474 161.812C948.066 167.436 941.758 171.844 933.55 175.036C925.342 178.076 915.539 179.596 904.138 179.596Z" stroke="#56CCF2" stroke-width="2" mask="url(#path-1-outside-1_2789_8371)"/>
</g>
</svg>
