<svg width="1364" height="218" viewBox="0 0 1364 218" fill="none" xmlns="http://www.w3.org/2000/svg">
<g opacity="0.5">
<mask id="path-1-outside-1_2789_8379" maskUnits="userSpaceOnUse" x="0.640381" y="0.824219" width="1363" height="218" fill="black">
<rect fill="white" x="0.640381" y="0.824219" width="1363" height="218"/>
<path d="M54.5364 171V36.4802H1.64038V11.4002H137.072V36.4802H84.1764V171H54.5364ZM201.34 172.596C187.812 172.596 175.956 169.936 165.772 164.616C155.74 159.144 147.912 151.696 142.288 142.272C136.816 132.848 134.08 122.132 134.08 110.124C134.08 97.9642 136.74 87.2482 142.06 77.9762C147.532 68.5522 154.98 61.1802 164.404 55.8602C173.98 50.5402 184.848 47.8802 197.008 47.8802C208.864 47.8802 219.428 50.4642 228.7 55.6322C237.972 60.8002 245.268 68.0962 250.588 77.5202C255.908 86.9442 258.568 98.0402 258.568 110.808C258.568 112.024 258.492 113.392 258.34 114.912C258.34 116.432 258.264 117.876 258.112 119.244H156.652V100.32H243.064L231.892 106.248C232.044 99.2562 230.6 93.1002 227.56 87.7802C224.52 82.4602 220.34 78.2802 215.02 75.2402C209.852 72.2002 203.848 70.6802 197.008 70.6802C190.016 70.6802 183.86 72.2002 178.54 75.2402C173.372 78.2802 169.268 82.5362 166.228 88.0082C163.34 93.3282 161.896 99.6362 161.896 106.932V111.492C161.896 118.788 163.568 125.248 166.912 130.872C170.256 136.496 174.968 140.828 181.048 143.868C187.128 146.908 194.12 148.428 202.024 148.428C208.864 148.428 215.02 147.364 220.492 145.236C225.964 143.108 230.828 139.764 235.084 135.204L250.36 152.76C244.888 159.144 237.972 164.084 229.612 167.58C221.404 170.924 211.98 172.596 201.34 172.596ZM341.804 172.596C329.036 172.596 317.636 169.936 307.604 164.616C297.724 159.144 289.972 151.696 284.348 142.272C278.724 132.848 275.912 122.132 275.912 110.124C275.912 97.9642 278.724 87.2482 284.348 77.9762C289.972 68.5522 297.724 61.1802 307.604 55.8602C317.636 50.5402 329.036 47.8802 341.804 47.8802C353.66 47.8802 364.072 50.3122 373.04 55.1762C382.16 59.8882 389.076 66.8802 393.788 76.1522L371.9 88.9202C368.252 83.1442 363.768 78.8882 358.448 76.1522C353.28 73.4162 347.656 72.0482 341.576 72.0482C334.584 72.0482 328.276 73.5682 322.652 76.6082C317.028 79.6482 312.62 84.0562 309.428 89.8322C306.236 95.4562 304.64 102.22 304.64 110.124C304.64 118.028 306.236 124.868 309.428 130.644C312.62 136.268 317.028 140.6 322.652 143.64C328.276 146.68 334.584 148.2 341.576 148.2C347.656 148.2 353.28 146.832 358.448 144.096C363.768 141.36 368.252 137.104 371.9 131.328L393.788 144.096C389.076 153.216 382.16 160.284 373.04 165.3C364.072 170.164 353.66 172.596 341.804 172.596ZM486.395 47.8802C496.123 47.8802 504.787 49.7802 512.387 53.5802C520.139 57.3802 526.219 63.2322 530.627 71.1362C535.035 78.8882 537.239 88.9202 537.239 101.232V171H508.739V104.88C508.739 94.0882 506.155 86.0322 500.987 80.7122C495.971 75.3922 488.903 72.7322 479.783 72.7322C473.095 72.7322 467.167 74.1002 461.999 76.8362C456.831 79.5722 452.803 83.6762 449.915 89.1482C447.179 94.4682 445.811 101.232 445.811 109.44V171H417.311V1.82422H445.811V82.0802L439.655 72.0482C443.911 64.2962 450.067 58.3682 458.123 54.2642C466.331 50.0082 475.755 47.8802 486.395 47.8802ZM642.477 47.8802C652.205 47.8802 660.869 49.7802 668.469 53.5802C676.221 57.3802 682.301 63.2322 686.709 71.1362C691.117 78.8882 693.321 88.9202 693.321 101.232V171H664.821V104.88C664.821 94.0882 662.237 86.0322 657.069 80.7122C652.053 75.3922 644.985 72.7322 635.865 72.7322C629.177 72.7322 623.249 74.1002 618.081 76.8362C612.913 79.5722 608.885 83.6762 605.997 89.1482C603.261 94.4682 601.893 101.232 601.893 109.44V171H573.393V49.2482H600.525V82.0802L595.737 72.0482C599.993 64.2962 606.149 58.3682 614.205 54.2642C622.413 50.0082 631.837 47.8802 642.477 47.8802ZM784.418 172.596C771.954 172.596 760.858 169.936 751.13 164.616C741.402 159.144 733.726 151.696 728.102 142.272C722.478 132.848 719.666 122.132 719.666 110.124C719.666 97.9642 722.478 87.2482 728.102 77.9762C733.726 68.5522 741.402 61.1802 751.13 55.8602C760.858 50.5402 771.954 47.8802 784.418 47.8802C797.034 47.8802 808.206 50.5402 817.934 55.8602C827.814 61.1802 835.49 68.4762 840.962 77.7482C846.586 87.0202 849.398 97.8122 849.398 110.124C849.398 122.132 846.586 132.848 840.962 142.272C835.49 151.696 827.814 159.144 817.934 164.616C808.206 169.936 797.034 172.596 784.418 172.596ZM784.418 148.2C791.41 148.2 797.642 146.68 803.114 143.64C808.586 140.6 812.842 136.192 815.882 130.416C819.074 124.64 820.67 117.876 820.67 110.124C820.67 102.22 819.074 95.4562 815.882 89.8322C812.842 84.0562 808.586 79.6482 803.114 76.6082C797.642 73.5682 791.486 72.0482 784.646 72.0482C777.654 72.0482 771.422 73.5682 765.95 76.6082C760.63 79.6482 756.374 84.0562 753.182 89.8322C749.99 95.4562 748.394 102.22 748.394 110.124C748.394 117.876 749.99 124.64 753.182 130.416C756.374 136.192 760.63 140.6 765.95 143.64C771.422 146.68 777.578 148.2 784.418 148.2ZM876.651 171V1.82422H905.151V171H876.651ZM997.277 172.596C984.813 172.596 973.717 169.936 963.989 164.616C954.261 159.144 946.585 151.696 940.961 142.272C935.337 132.848 932.525 122.132 932.525 110.124C932.525 97.9642 935.337 87.2482 940.961 77.9762C946.585 68.5522 954.261 61.1802 963.989 55.8602C973.717 50.5402 984.813 47.8802 997.277 47.8802C1009.89 47.8802 1021.07 50.5402 1030.79 55.8602C1040.67 61.1802 1048.35 68.4762 1053.82 77.7482C1059.45 87.0202 1062.26 97.8122 1062.26 110.124C1062.26 122.132 1059.45 132.848 1053.82 142.272C1048.35 151.696 1040.67 159.144 1030.79 164.616C1021.07 169.936 1009.89 172.596 997.277 172.596ZM997.277 148.2C1004.27 148.2 1010.5 146.68 1015.97 143.64C1021.45 140.6 1025.7 136.192 1028.74 130.416C1031.93 124.64 1033.53 117.876 1033.53 110.124C1033.53 102.22 1031.93 95.4562 1028.74 89.8322C1025.7 84.0562 1021.45 79.6482 1015.97 76.6082C1010.5 73.5682 1004.35 72.0482 997.505 72.0482C990.513 72.0482 984.281 73.5682 978.809 76.6082C973.489 79.6482 969.233 84.0562 966.041 89.8322C962.849 95.4562 961.253 102.22 961.253 110.124C961.253 117.876 962.849 124.64 966.041 130.416C969.233 136.192 973.489 140.6 978.809 143.64C984.281 146.68 990.437 148.2 997.277 148.2ZM1144.69 216.828C1133.44 216.828 1122.42 215.308 1111.63 212.268C1100.99 209.38 1092.25 205.124 1085.41 199.5L1098.17 178.068C1103.49 182.476 1110.18 185.972 1118.24 188.556C1126.45 191.292 1134.73 192.66 1143.09 192.66C1156.47 192.66 1166.27 189.544 1172.5 183.312C1178.73 177.232 1181.85 168.036 1181.85 155.724V134.064L1184.13 106.476L1183.22 78.8882V49.2482H1210.35V152.532C1210.35 174.572 1204.73 190.76 1193.48 201.096C1182.23 211.584 1165.97 216.828 1144.69 216.828ZM1141.04 165.528C1129.49 165.528 1119 163.096 1109.57 158.232C1100.3 153.216 1092.93 146.3 1087.46 137.484C1082.14 128.668 1079.48 118.332 1079.48 106.476C1079.48 94.7722 1082.14 84.5122 1087.46 75.6962C1092.93 66.8802 1100.3 60.0402 1109.57 55.1762C1119 50.3122 1129.49 47.8802 1141.04 47.8802C1151.37 47.8802 1160.65 49.9322 1168.85 54.0362C1177.06 58.1402 1183.6 64.5242 1188.46 73.1882C1193.48 81.8522 1195.99 92.9482 1195.99 106.476C1195.99 120.004 1193.48 131.176 1188.46 139.992C1183.6 148.656 1177.06 155.116 1168.85 159.372C1160.65 163.476 1151.37 165.528 1141.04 165.528ZM1145.37 141.36C1152.51 141.36 1158.9 139.916 1164.52 137.028C1170.15 133.988 1174.48 129.884 1177.52 124.716C1180.71 119.396 1182.31 113.316 1182.31 106.476C1182.31 99.6362 1180.71 93.6322 1177.52 88.4642C1174.48 83.1442 1170.15 79.1162 1164.52 76.3802C1158.9 73.4922 1152.51 72.0482 1145.37 72.0482C1138.23 72.0482 1131.77 73.4922 1125.99 76.3802C1120.37 79.1162 1115.96 83.1442 1112.77 88.4642C1109.73 93.6322 1108.21 99.6362 1108.21 106.476C1108.21 113.316 1109.73 119.396 1112.77 124.716C1115.96 129.884 1120.37 133.988 1125.99 137.028C1131.77 139.916 1138.23 141.36 1145.37 141.36ZM1257.85 216.828C1251.92 216.828 1245.99 215.84 1240.07 213.864C1234.14 211.888 1229.2 209.152 1225.25 205.656L1236.65 184.68C1239.53 187.264 1242.8 189.316 1246.45 190.836C1250.1 192.356 1253.82 193.116 1257.62 193.116C1262.79 193.116 1266.97 191.824 1270.16 189.24C1273.35 186.656 1276.32 182.324 1279.05 176.244L1286.12 160.284L1288.4 156.864L1334.46 49.2482H1361.82L1304.82 180.804C1301.02 189.924 1296.76 197.144 1292.05 202.464C1287.49 207.784 1282.32 211.508 1276.55 213.636C1270.92 215.764 1264.69 216.828 1257.85 216.828ZM1282.93 175.332L1227.98 49.2482H1257.62L1302.31 154.356L1282.93 175.332Z"/>
</mask>
<path d="M54.5364 171V36.4802H1.64038V11.4002H137.072V36.4802H84.1764V171H54.5364ZM201.34 172.596C187.812 172.596 175.956 169.936 165.772 164.616C155.74 159.144 147.912 151.696 142.288 142.272C136.816 132.848 134.08 122.132 134.08 110.124C134.08 97.9642 136.74 87.2482 142.06 77.9762C147.532 68.5522 154.98 61.1802 164.404 55.8602C173.98 50.5402 184.848 47.8802 197.008 47.8802C208.864 47.8802 219.428 50.4642 228.7 55.6322C237.972 60.8002 245.268 68.0962 250.588 77.5202C255.908 86.9442 258.568 98.0402 258.568 110.808C258.568 112.024 258.492 113.392 258.34 114.912C258.34 116.432 258.264 117.876 258.112 119.244H156.652V100.32H243.064L231.892 106.248C232.044 99.2562 230.6 93.1002 227.56 87.7802C224.52 82.4602 220.34 78.2802 215.02 75.2402C209.852 72.2002 203.848 70.6802 197.008 70.6802C190.016 70.6802 183.86 72.2002 178.54 75.2402C173.372 78.2802 169.268 82.5362 166.228 88.0082C163.34 93.3282 161.896 99.6362 161.896 106.932V111.492C161.896 118.788 163.568 125.248 166.912 130.872C170.256 136.496 174.968 140.828 181.048 143.868C187.128 146.908 194.12 148.428 202.024 148.428C208.864 148.428 215.02 147.364 220.492 145.236C225.964 143.108 230.828 139.764 235.084 135.204L250.36 152.76C244.888 159.144 237.972 164.084 229.612 167.58C221.404 170.924 211.98 172.596 201.34 172.596ZM341.804 172.596C329.036 172.596 317.636 169.936 307.604 164.616C297.724 159.144 289.972 151.696 284.348 142.272C278.724 132.848 275.912 122.132 275.912 110.124C275.912 97.9642 278.724 87.2482 284.348 77.9762C289.972 68.5522 297.724 61.1802 307.604 55.8602C317.636 50.5402 329.036 47.8802 341.804 47.8802C353.66 47.8802 364.072 50.3122 373.04 55.1762C382.16 59.8882 389.076 66.8802 393.788 76.1522L371.9 88.9202C368.252 83.1442 363.768 78.8882 358.448 76.1522C353.28 73.4162 347.656 72.0482 341.576 72.0482C334.584 72.0482 328.276 73.5682 322.652 76.6082C317.028 79.6482 312.62 84.0562 309.428 89.8322C306.236 95.4562 304.64 102.22 304.64 110.124C304.64 118.028 306.236 124.868 309.428 130.644C312.62 136.268 317.028 140.6 322.652 143.64C328.276 146.68 334.584 148.2 341.576 148.2C347.656 148.2 353.28 146.832 358.448 144.096C363.768 141.36 368.252 137.104 371.9 131.328L393.788 144.096C389.076 153.216 382.16 160.284 373.04 165.3C364.072 170.164 353.66 172.596 341.804 172.596ZM486.395 47.8802C496.123 47.8802 504.787 49.7802 512.387 53.5802C520.139 57.3802 526.219 63.2322 530.627 71.1362C535.035 78.8882 537.239 88.9202 537.239 101.232V171H508.739V104.88C508.739 94.0882 506.155 86.0322 500.987 80.7122C495.971 75.3922 488.903 72.7322 479.783 72.7322C473.095 72.7322 467.167 74.1002 461.999 76.8362C456.831 79.5722 452.803 83.6762 449.915 89.1482C447.179 94.4682 445.811 101.232 445.811 109.44V171H417.311V1.82422H445.811V82.0802L439.655 72.0482C443.911 64.2962 450.067 58.3682 458.123 54.2642C466.331 50.0082 475.755 47.8802 486.395 47.8802ZM642.477 47.8802C652.205 47.8802 660.869 49.7802 668.469 53.5802C676.221 57.3802 682.301 63.2322 686.709 71.1362C691.117 78.8882 693.321 88.9202 693.321 101.232V171H664.821V104.88C664.821 94.0882 662.237 86.0322 657.069 80.7122C652.053 75.3922 644.985 72.7322 635.865 72.7322C629.177 72.7322 623.249 74.1002 618.081 76.8362C612.913 79.5722 608.885 83.6762 605.997 89.1482C603.261 94.4682 601.893 101.232 601.893 109.44V171H573.393V49.2482H600.525V82.0802L595.737 72.0482C599.993 64.2962 606.149 58.3682 614.205 54.2642C622.413 50.0082 631.837 47.8802 642.477 47.8802ZM784.418 172.596C771.954 172.596 760.858 169.936 751.13 164.616C741.402 159.144 733.726 151.696 728.102 142.272C722.478 132.848 719.666 122.132 719.666 110.124C719.666 97.9642 722.478 87.2482 728.102 77.9762C733.726 68.5522 741.402 61.1802 751.13 55.8602C760.858 50.5402 771.954 47.8802 784.418 47.8802C797.034 47.8802 808.206 50.5402 817.934 55.8602C827.814 61.1802 835.49 68.4762 840.962 77.7482C846.586 87.0202 849.398 97.8122 849.398 110.124C849.398 122.132 846.586 132.848 840.962 142.272C835.49 151.696 827.814 159.144 817.934 164.616C808.206 169.936 797.034 172.596 784.418 172.596ZM784.418 148.2C791.41 148.2 797.642 146.68 803.114 143.64C808.586 140.6 812.842 136.192 815.882 130.416C819.074 124.64 820.67 117.876 820.67 110.124C820.67 102.22 819.074 95.4562 815.882 89.8322C812.842 84.0562 808.586 79.6482 803.114 76.6082C797.642 73.5682 791.486 72.0482 784.646 72.0482C777.654 72.0482 771.422 73.5682 765.95 76.6082C760.63 79.6482 756.374 84.0562 753.182 89.8322C749.99 95.4562 748.394 102.22 748.394 110.124C748.394 117.876 749.99 124.64 753.182 130.416C756.374 136.192 760.63 140.6 765.95 143.64C771.422 146.68 777.578 148.2 784.418 148.2ZM876.651 171V1.82422H905.151V171H876.651ZM997.277 172.596C984.813 172.596 973.717 169.936 963.989 164.616C954.261 159.144 946.585 151.696 940.961 142.272C935.337 132.848 932.525 122.132 932.525 110.124C932.525 97.9642 935.337 87.2482 940.961 77.9762C946.585 68.5522 954.261 61.1802 963.989 55.8602C973.717 50.5402 984.813 47.8802 997.277 47.8802C1009.89 47.8802 1021.07 50.5402 1030.79 55.8602C1040.67 61.1802 1048.35 68.4762 1053.82 77.7482C1059.45 87.0202 1062.26 97.8122 1062.26 110.124C1062.26 122.132 1059.45 132.848 1053.82 142.272C1048.35 151.696 1040.67 159.144 1030.79 164.616C1021.07 169.936 1009.89 172.596 997.277 172.596ZM997.277 148.2C1004.27 148.2 1010.5 146.68 1015.97 143.64C1021.45 140.6 1025.7 136.192 1028.74 130.416C1031.93 124.64 1033.53 117.876 1033.53 110.124C1033.53 102.22 1031.93 95.4562 1028.74 89.8322C1025.7 84.0562 1021.45 79.6482 1015.97 76.6082C1010.5 73.5682 1004.35 72.0482 997.505 72.0482C990.513 72.0482 984.281 73.5682 978.809 76.6082C973.489 79.6482 969.233 84.0562 966.041 89.8322C962.849 95.4562 961.253 102.22 961.253 110.124C961.253 117.876 962.849 124.64 966.041 130.416C969.233 136.192 973.489 140.6 978.809 143.64C984.281 146.68 990.437 148.2 997.277 148.2ZM1144.69 216.828C1133.44 216.828 1122.42 215.308 1111.63 212.268C1100.99 209.38 1092.25 205.124 1085.41 199.5L1098.17 178.068C1103.49 182.476 1110.18 185.972 1118.24 188.556C1126.45 191.292 1134.73 192.66 1143.09 192.66C1156.47 192.66 1166.27 189.544 1172.5 183.312C1178.73 177.232 1181.85 168.036 1181.85 155.724V134.064L1184.13 106.476L1183.22 78.8882V49.2482H1210.35V152.532C1210.35 174.572 1204.73 190.76 1193.48 201.096C1182.23 211.584 1165.97 216.828 1144.69 216.828ZM1141.04 165.528C1129.49 165.528 1119 163.096 1109.57 158.232C1100.3 153.216 1092.93 146.3 1087.46 137.484C1082.14 128.668 1079.48 118.332 1079.48 106.476C1079.48 94.7722 1082.14 84.5122 1087.46 75.6962C1092.93 66.8802 1100.3 60.0402 1109.57 55.1762C1119 50.3122 1129.49 47.8802 1141.04 47.8802C1151.37 47.8802 1160.65 49.9322 1168.85 54.0362C1177.06 58.1402 1183.6 64.5242 1188.46 73.1882C1193.48 81.8522 1195.99 92.9482 1195.99 106.476C1195.99 120.004 1193.48 131.176 1188.46 139.992C1183.6 148.656 1177.06 155.116 1168.85 159.372C1160.65 163.476 1151.37 165.528 1141.04 165.528ZM1145.37 141.36C1152.51 141.36 1158.9 139.916 1164.52 137.028C1170.15 133.988 1174.48 129.884 1177.52 124.716C1180.71 119.396 1182.31 113.316 1182.31 106.476C1182.31 99.6362 1180.71 93.6322 1177.52 88.4642C1174.48 83.1442 1170.15 79.1162 1164.52 76.3802C1158.9 73.4922 1152.51 72.0482 1145.37 72.0482C1138.23 72.0482 1131.77 73.4922 1125.99 76.3802C1120.37 79.1162 1115.96 83.1442 1112.77 88.4642C1109.73 93.6322 1108.21 99.6362 1108.21 106.476C1108.21 113.316 1109.73 119.396 1112.77 124.716C1115.96 129.884 1120.37 133.988 1125.99 137.028C1131.77 139.916 1138.23 141.36 1145.37 141.36ZM1257.85 216.828C1251.92 216.828 1245.99 215.84 1240.07 213.864C1234.14 211.888 1229.2 209.152 1225.25 205.656L1236.65 184.68C1239.53 187.264 1242.8 189.316 1246.45 190.836C1250.1 192.356 1253.82 193.116 1257.62 193.116C1262.79 193.116 1266.97 191.824 1270.16 189.24C1273.35 186.656 1276.32 182.324 1279.05 176.244L1286.12 160.284L1288.4 156.864L1334.46 49.2482H1361.82L1304.82 180.804C1301.02 189.924 1296.76 197.144 1292.05 202.464C1287.49 207.784 1282.32 211.508 1276.55 213.636C1270.92 215.764 1264.69 216.828 1257.85 216.828ZM1282.93 175.332L1227.98 49.2482H1257.62L1302.31 154.356L1282.93 175.332Z" stroke="#56CCF2" stroke-width="2" mask="url(#path-1-outside-1_2789_8379)"/>
</g>
</svg>
