<svg width="1473" height="181" viewBox="0 0 1473 181" fill="none" xmlns="http://www.w3.org/2000/svg">
<g opacity="0.5">
<mask id="path-1-outside-1_2789_8383" maskUnits="userSpaceOnUse" x="0.0202637" y="0.984375" width="1473" height="180" fill="black">
<rect fill="white" x="0.0202637" y="0.984375" width="1473" height="180"/>
<path d="M53.9163 178V43.4804H1.02026V18.4004H136.452V43.4804H83.5563V178H53.9163ZM200.72 179.596C187.192 179.596 175.336 176.936 165.152 171.616C155.12 166.144 147.292 158.696 141.668 149.272C136.196 139.848 133.46 129.132 133.46 117.124C133.46 104.964 136.12 94.2484 141.44 84.9764C146.912 75.5524 154.36 68.1804 163.784 62.8604C173.36 57.5404 184.228 54.8804 196.388 54.8804C208.244 54.8804 218.808 57.4644 228.08 62.6324C237.352 67.8004 244.648 75.0964 249.968 84.5204C255.288 93.9444 257.948 105.04 257.948 117.808C257.948 119.024 257.872 120.392 257.72 121.912C257.72 123.432 257.644 124.876 257.492 126.244H156.032V107.32H242.444L231.272 113.248C231.424 106.256 229.98 100.1 226.94 94.7804C223.9 89.4604 219.72 85.2804 214.4 82.2404C209.232 79.2004 203.228 77.6804 196.388 77.6804C189.396 77.6804 183.24 79.2004 177.92 82.2404C172.752 85.2804 168.648 89.5364 165.608 95.0084C162.72 100.328 161.276 106.636 161.276 113.932V118.492C161.276 125.788 162.948 132.248 166.292 137.872C169.636 143.496 174.348 147.828 180.428 150.868C186.508 153.908 193.5 155.428 201.404 155.428C208.244 155.428 214.4 154.364 219.872 152.236C225.344 150.108 230.208 146.764 234.464 142.204L249.74 159.76C244.268 166.144 237.352 171.084 228.992 174.58C220.784 177.924 211.36 179.596 200.72 179.596ZM322.944 179.596C312.76 179.596 302.956 178.304 293.532 175.72C284.26 172.984 276.888 169.716 271.416 165.916L282.36 144.256C287.832 147.752 294.368 150.64 301.968 152.92C309.568 155.2 317.168 156.34 324.768 156.34C333.736 156.34 340.196 155.124 344.148 152.692C348.252 150.26 350.304 146.992 350.304 142.888C350.304 139.544 348.936 137.036 346.2 135.364C343.464 133.54 339.892 132.172 335.484 131.26C331.076 130.348 326.136 129.512 320.664 128.752C315.344 127.992 309.948 127.004 304.476 125.788C299.156 124.42 294.292 122.52 289.884 120.088C285.476 117.504 281.904 114.084 279.168 109.828C276.432 105.572 275.064 99.9484 275.064 92.9564C275.064 85.2044 277.268 78.5164 281.676 72.8924C286.084 67.1164 292.24 62.7084 300.144 59.6684C308.2 56.4764 317.7 54.8804 328.644 54.8804C336.852 54.8804 345.136 55.7924 353.496 57.6164C361.856 59.4404 368.772 62.0244 374.244 65.3684L363.3 87.0284C357.524 83.5324 351.672 81.1764 345.744 79.9604C339.968 78.5924 334.192 77.9084 328.416 77.9084C319.752 77.9084 313.292 79.2004 309.036 81.7844C304.932 84.3684 302.88 87.6364 302.88 91.5884C302.88 95.2364 304.248 97.9724 306.984 99.7964C309.72 101.62 313.292 103.064 317.7 104.128C322.108 105.192 326.972 106.104 332.292 106.864C337.764 107.472 343.16 108.46 348.48 109.828C353.8 111.196 358.664 113.096 363.072 115.528C367.632 117.808 371.28 121.076 374.016 125.332C376.752 129.588 378.12 135.136 378.12 141.976C378.12 149.576 375.84 156.188 371.28 161.812C366.872 167.436 360.564 171.844 352.356 175.036C344.148 178.076 334.344 179.596 322.944 179.596ZM448.492 179.596C435.116 179.596 424.78 176.176 417.484 169.336C410.188 162.344 406.54 152.084 406.54 138.556V29.3444H435.04V137.872C435.04 143.648 436.484 148.132 439.372 151.324C442.412 154.516 446.592 156.112 451.912 156.112C458.296 156.112 463.616 154.44 467.872 151.096L475.852 171.388C472.508 174.124 468.404 176.176 463.54 177.544C458.676 178.912 453.66 179.596 448.492 179.596ZM386.476 79.9604V57.1604H467.644V79.9604H386.476ZM499.296 178V56.2484H527.796V178H499.296ZM513.66 36.1844C508.34 36.1844 503.932 34.5124 500.436 31.1684C497.092 27.8244 495.42 23.7964 495.42 19.0844C495.42 14.2204 497.092 10.1924 500.436 7.00036C503.932 3.65637 508.34 1.98438 513.66 1.98438C518.98 1.98438 523.312 3.58037 526.656 6.77237C530.152 9.81237 531.9 13.6884 531.9 18.4004C531.9 23.4164 530.228 27.6724 526.884 31.1684C523.54 34.5124 519.132 36.1844 513.66 36.1844ZM718.875 54.8804C728.603 54.8804 737.191 56.7804 744.639 60.5804C752.239 64.3804 758.167 70.2324 762.423 78.1364C766.679 85.8884 768.807 95.9204 768.807 108.232V178H740.307V111.88C740.307 101.088 737.951 93.0324 733.239 87.7124C728.527 82.3924 721.763 79.7324 712.947 79.7324C706.715 79.7324 701.167 81.1004 696.303 83.8364C691.591 86.5724 687.867 90.6004 685.131 95.9204C682.547 101.24 681.255 108.004 681.255 116.212V178H652.755V111.88C652.755 101.088 650.399 93.0324 645.687 87.7124C640.975 82.3924 634.211 79.7324 625.395 79.7324C619.163 79.7324 613.615 81.1004 608.751 83.8364C604.039 86.5724 600.315 90.6004 597.579 95.9204C594.995 101.24 593.703 108.004 593.703 116.212V178H565.203V56.2484H592.335V88.6244L587.547 79.0484C591.651 71.1444 597.579 65.1404 605.331 61.0364C613.235 56.9324 622.203 54.8804 632.235 54.8804C643.635 54.8804 653.515 57.6924 661.875 63.3164C670.387 68.9404 676.011 77.4524 678.747 88.8524L667.575 84.9764C671.527 75.8564 678.063 68.5604 687.183 63.0884C696.303 57.6164 706.867 54.8804 718.875 54.8804ZM860.169 179.596C847.705 179.596 836.609 176.936 826.881 171.616C817.153 166.144 809.477 158.696 803.853 149.272C798.229 139.848 795.417 129.132 795.417 117.124C795.417 104.964 798.229 94.2484 803.853 84.9764C809.477 75.5524 817.153 68.1804 826.881 62.8604C836.609 57.5404 847.705 54.8804 860.169 54.8804C872.785 54.8804 883.957 57.5404 893.685 62.8604C903.565 68.1804 911.241 75.4764 916.713 84.7484C922.337 94.0204 925.149 104.812 925.149 117.124C925.149 129.132 922.337 139.848 916.713 149.272C911.241 158.696 903.565 166.144 893.685 171.616C883.957 176.936 872.785 179.596 860.169 179.596ZM860.169 155.2C867.161 155.2 873.393 153.68 878.865 150.64C884.337 147.6 888.593 143.192 891.633 137.416C894.825 131.64 896.421 124.876 896.421 117.124C896.421 109.22 894.825 102.456 891.633 96.8324C888.593 91.0564 884.337 86.6484 878.865 83.6084C873.393 80.5684 867.237 79.0484 860.397 79.0484C853.405 79.0484 847.173 80.5684 841.701 83.6084C836.381 86.6484 832.125 91.0564 828.933 96.8324C825.741 102.456 824.145 109.22 824.145 117.124C824.145 124.876 825.741 131.64 828.933 137.416C832.125 143.192 836.381 147.6 841.701 150.64C847.173 153.68 853.329 155.2 860.169 155.2ZM1021.49 54.8804C1031.21 54.8804 1039.88 56.7804 1047.48 60.5804C1055.23 64.3804 1061.31 70.2324 1065.72 78.1364C1070.13 85.8884 1072.33 95.9204 1072.33 108.232V178H1043.83V111.88C1043.83 101.088 1041.25 93.0324 1036.08 87.7124C1031.06 82.3924 1023.99 79.7324 1014.87 79.7324C1008.19 79.7324 1002.26 81.1004 997.09 83.8364C991.922 86.5724 987.894 90.6764 985.006 96.1484C982.27 101.468 980.902 108.232 980.902 116.44V178H952.402V56.2484H979.534V89.0804L974.746 79.0484C979.002 71.2964 985.158 65.3684 993.214 61.2644C1001.42 57.0084 1010.85 54.8804 1021.49 54.8804ZM1108.48 178V56.2484H1136.98V178H1108.48ZM1122.85 36.1844C1117.53 36.1844 1113.12 34.5124 1109.62 31.1684C1106.28 27.8244 1104.61 23.7964 1104.61 19.0844C1104.61 14.2204 1106.28 10.1924 1109.62 7.00036C1113.12 3.65637 1117.53 1.98438 1122.85 1.98438C1128.17 1.98438 1132.5 3.58037 1135.84 6.77237C1139.34 9.81237 1141.09 13.6884 1141.09 18.4004C1141.09 23.4164 1139.42 27.6724 1136.07 31.1684C1132.73 34.5124 1128.32 36.1844 1122.85 36.1844ZM1249.4 178V153.376L1247.81 148.132V105.04C1247.81 96.6804 1245.3 90.2204 1240.28 85.6604C1235.27 80.9484 1227.67 78.5924 1217.48 78.5924C1210.64 78.5924 1203.88 79.6564 1197.19 81.7844C1190.65 83.9124 1185.11 86.8764 1180.55 90.6764L1169.37 69.9284C1175.91 64.9124 1183.66 61.1884 1192.63 58.7564C1201.75 56.1724 1211.17 54.8804 1220.9 54.8804C1238.53 54.8804 1252.14 59.1364 1261.71 67.6484C1271.44 76.0084 1276.31 89.0044 1276.31 106.636V178H1249.4ZM1211.1 179.596C1201.98 179.596 1194 178.076 1187.16 175.036C1180.32 171.844 1175 167.512 1171.2 162.04C1167.55 156.416 1165.73 150.108 1165.73 143.116C1165.73 136.276 1167.32 130.12 1170.51 124.648C1173.86 119.176 1179.25 114.844 1186.7 111.652C1194.15 108.46 1204.03 106.864 1216.34 106.864H1251.68V125.788H1218.39C1208.67 125.788 1202.13 127.384 1198.79 130.576C1195.44 133.616 1193.77 137.416 1193.77 141.976C1193.77 147.144 1195.82 151.248 1199.93 154.288C1204.03 157.328 1209.73 158.848 1217.03 158.848C1224.02 158.848 1230.25 157.252 1235.72 154.06C1241.35 150.868 1245.37 146.156 1247.81 139.924L1252.59 157.024C1249.86 164.168 1244.92 169.716 1237.77 173.668C1230.78 177.62 1221.89 179.596 1211.1 179.596ZM1312.88 178V8.82437H1341.38V178H1312.88ZM1416.41 179.596C1406.22 179.596 1396.42 178.304 1387 175.72C1377.72 172.984 1370.35 169.716 1364.88 165.916L1375.82 144.256C1381.3 147.752 1387.83 150.64 1395.43 152.92C1403.03 155.2 1410.63 156.34 1418.23 156.34C1427.2 156.34 1433.66 155.124 1437.61 152.692C1441.72 150.26 1443.77 146.992 1443.77 142.888C1443.77 139.544 1442.4 137.036 1439.66 135.364C1436.93 133.54 1433.36 132.172 1428.95 131.26C1424.54 130.348 1419.6 129.512 1414.13 128.752C1408.81 127.992 1403.41 127.004 1397.94 125.788C1392.62 124.42 1387.76 122.52 1383.35 120.088C1378.94 117.504 1375.37 114.084 1372.63 109.828C1369.9 105.572 1368.53 99.9484 1368.53 92.9564C1368.53 85.2044 1370.73 78.5164 1375.14 72.8924C1379.55 67.1164 1385.7 62.7084 1393.61 59.6684C1401.66 56.4764 1411.16 54.8804 1422.11 54.8804C1430.32 54.8804 1438.6 55.7924 1446.96 57.6164C1455.32 59.4404 1462.24 62.0244 1467.71 65.3684L1456.76 87.0284C1450.99 83.5324 1445.14 81.1764 1439.21 79.9604C1433.43 78.5924 1427.66 77.9084 1421.88 77.9084C1413.22 77.9084 1406.76 79.2004 1402.5 81.7844C1398.4 84.3684 1396.34 87.6364 1396.34 91.5884C1396.34 95.2364 1397.71 97.9724 1400.45 99.7964C1403.18 101.62 1406.76 103.064 1411.16 104.128C1415.57 105.192 1420.44 106.104 1425.76 106.864C1431.23 107.472 1436.62 108.46 1441.94 109.828C1447.26 111.196 1452.13 113.096 1456.54 115.528C1461.1 117.808 1464.74 121.076 1467.48 125.332C1470.22 129.588 1471.58 135.136 1471.58 141.976C1471.58 149.576 1469.3 156.188 1464.74 161.812C1460.34 167.436 1454.03 171.844 1445.82 175.036C1437.61 178.076 1427.81 179.596 1416.41 179.596Z"/>
</mask>
<path d="M53.9163 178V43.4804H1.02026V18.4004H136.452V43.4804H83.5563V178H53.9163ZM200.72 179.596C187.192 179.596 175.336 176.936 165.152 171.616C155.12 166.144 147.292 158.696 141.668 149.272C136.196 139.848 133.46 129.132 133.46 117.124C133.46 104.964 136.12 94.2484 141.44 84.9764C146.912 75.5524 154.36 68.1804 163.784 62.8604C173.36 57.5404 184.228 54.8804 196.388 54.8804C208.244 54.8804 218.808 57.4644 228.08 62.6324C237.352 67.8004 244.648 75.0964 249.968 84.5204C255.288 93.9444 257.948 105.04 257.948 117.808C257.948 119.024 257.872 120.392 257.72 121.912C257.72 123.432 257.644 124.876 257.492 126.244H156.032V107.32H242.444L231.272 113.248C231.424 106.256 229.98 100.1 226.94 94.7804C223.9 89.4604 219.72 85.2804 214.4 82.2404C209.232 79.2004 203.228 77.6804 196.388 77.6804C189.396 77.6804 183.24 79.2004 177.92 82.2404C172.752 85.2804 168.648 89.5364 165.608 95.0084C162.72 100.328 161.276 106.636 161.276 113.932V118.492C161.276 125.788 162.948 132.248 166.292 137.872C169.636 143.496 174.348 147.828 180.428 150.868C186.508 153.908 193.5 155.428 201.404 155.428C208.244 155.428 214.4 154.364 219.872 152.236C225.344 150.108 230.208 146.764 234.464 142.204L249.74 159.76C244.268 166.144 237.352 171.084 228.992 174.58C220.784 177.924 211.36 179.596 200.72 179.596ZM322.944 179.596C312.76 179.596 302.956 178.304 293.532 175.72C284.26 172.984 276.888 169.716 271.416 165.916L282.36 144.256C287.832 147.752 294.368 150.64 301.968 152.92C309.568 155.2 317.168 156.34 324.768 156.34C333.736 156.34 340.196 155.124 344.148 152.692C348.252 150.26 350.304 146.992 350.304 142.888C350.304 139.544 348.936 137.036 346.2 135.364C343.464 133.54 339.892 132.172 335.484 131.26C331.076 130.348 326.136 129.512 320.664 128.752C315.344 127.992 309.948 127.004 304.476 125.788C299.156 124.42 294.292 122.52 289.884 120.088C285.476 117.504 281.904 114.084 279.168 109.828C276.432 105.572 275.064 99.9484 275.064 92.9564C275.064 85.2044 277.268 78.5164 281.676 72.8924C286.084 67.1164 292.24 62.7084 300.144 59.6684C308.2 56.4764 317.7 54.8804 328.644 54.8804C336.852 54.8804 345.136 55.7924 353.496 57.6164C361.856 59.4404 368.772 62.0244 374.244 65.3684L363.3 87.0284C357.524 83.5324 351.672 81.1764 345.744 79.9604C339.968 78.5924 334.192 77.9084 328.416 77.9084C319.752 77.9084 313.292 79.2004 309.036 81.7844C304.932 84.3684 302.88 87.6364 302.88 91.5884C302.88 95.2364 304.248 97.9724 306.984 99.7964C309.72 101.62 313.292 103.064 317.7 104.128C322.108 105.192 326.972 106.104 332.292 106.864C337.764 107.472 343.16 108.46 348.48 109.828C353.8 111.196 358.664 113.096 363.072 115.528C367.632 117.808 371.28 121.076 374.016 125.332C376.752 129.588 378.12 135.136 378.12 141.976C378.12 149.576 375.84 156.188 371.28 161.812C366.872 167.436 360.564 171.844 352.356 175.036C344.148 178.076 334.344 179.596 322.944 179.596ZM448.492 179.596C435.116 179.596 424.78 176.176 417.484 169.336C410.188 162.344 406.54 152.084 406.54 138.556V29.3444H435.04V137.872C435.04 143.648 436.484 148.132 439.372 151.324C442.412 154.516 446.592 156.112 451.912 156.112C458.296 156.112 463.616 154.44 467.872 151.096L475.852 171.388C472.508 174.124 468.404 176.176 463.54 177.544C458.676 178.912 453.66 179.596 448.492 179.596ZM386.476 79.9604V57.1604H467.644V79.9604H386.476ZM499.296 178V56.2484H527.796V178H499.296ZM513.66 36.1844C508.34 36.1844 503.932 34.5124 500.436 31.1684C497.092 27.8244 495.42 23.7964 495.42 19.0844C495.42 14.2204 497.092 10.1924 500.436 7.00036C503.932 3.65637 508.34 1.98438 513.66 1.98438C518.98 1.98438 523.312 3.58037 526.656 6.77237C530.152 9.81237 531.9 13.6884 531.9 18.4004C531.9 23.4164 530.228 27.6724 526.884 31.1684C523.54 34.5124 519.132 36.1844 513.66 36.1844ZM718.875 54.8804C728.603 54.8804 737.191 56.7804 744.639 60.5804C752.239 64.3804 758.167 70.2324 762.423 78.1364C766.679 85.8884 768.807 95.9204 768.807 108.232V178H740.307V111.88C740.307 101.088 737.951 93.0324 733.239 87.7124C728.527 82.3924 721.763 79.7324 712.947 79.7324C706.715 79.7324 701.167 81.1004 696.303 83.8364C691.591 86.5724 687.867 90.6004 685.131 95.9204C682.547 101.24 681.255 108.004 681.255 116.212V178H652.755V111.88C652.755 101.088 650.399 93.0324 645.687 87.7124C640.975 82.3924 634.211 79.7324 625.395 79.7324C619.163 79.7324 613.615 81.1004 608.751 83.8364C604.039 86.5724 600.315 90.6004 597.579 95.9204C594.995 101.24 593.703 108.004 593.703 116.212V178H565.203V56.2484H592.335V88.6244L587.547 79.0484C591.651 71.1444 597.579 65.1404 605.331 61.0364C613.235 56.9324 622.203 54.8804 632.235 54.8804C643.635 54.8804 653.515 57.6924 661.875 63.3164C670.387 68.9404 676.011 77.4524 678.747 88.8524L667.575 84.9764C671.527 75.8564 678.063 68.5604 687.183 63.0884C696.303 57.6164 706.867 54.8804 718.875 54.8804ZM860.169 179.596C847.705 179.596 836.609 176.936 826.881 171.616C817.153 166.144 809.477 158.696 803.853 149.272C798.229 139.848 795.417 129.132 795.417 117.124C795.417 104.964 798.229 94.2484 803.853 84.9764C809.477 75.5524 817.153 68.1804 826.881 62.8604C836.609 57.5404 847.705 54.8804 860.169 54.8804C872.785 54.8804 883.957 57.5404 893.685 62.8604C903.565 68.1804 911.241 75.4764 916.713 84.7484C922.337 94.0204 925.149 104.812 925.149 117.124C925.149 129.132 922.337 139.848 916.713 149.272C911.241 158.696 903.565 166.144 893.685 171.616C883.957 176.936 872.785 179.596 860.169 179.596ZM860.169 155.2C867.161 155.2 873.393 153.68 878.865 150.64C884.337 147.6 888.593 143.192 891.633 137.416C894.825 131.64 896.421 124.876 896.421 117.124C896.421 109.22 894.825 102.456 891.633 96.8324C888.593 91.0564 884.337 86.6484 878.865 83.6084C873.393 80.5684 867.237 79.0484 860.397 79.0484C853.405 79.0484 847.173 80.5684 841.701 83.6084C836.381 86.6484 832.125 91.0564 828.933 96.8324C825.741 102.456 824.145 109.22 824.145 117.124C824.145 124.876 825.741 131.64 828.933 137.416C832.125 143.192 836.381 147.6 841.701 150.64C847.173 153.68 853.329 155.2 860.169 155.2ZM1021.49 54.8804C1031.21 54.8804 1039.88 56.7804 1047.48 60.5804C1055.23 64.3804 1061.31 70.2324 1065.72 78.1364C1070.13 85.8884 1072.33 95.9204 1072.33 108.232V178H1043.83V111.88C1043.83 101.088 1041.25 93.0324 1036.08 87.7124C1031.06 82.3924 1023.99 79.7324 1014.87 79.7324C1008.19 79.7324 1002.26 81.1004 997.09 83.8364C991.922 86.5724 987.894 90.6764 985.006 96.1484C982.27 101.468 980.902 108.232 980.902 116.44V178H952.402V56.2484H979.534V89.0804L974.746 79.0484C979.002 71.2964 985.158 65.3684 993.214 61.2644C1001.42 57.0084 1010.85 54.8804 1021.49 54.8804ZM1108.48 178V56.2484H1136.98V178H1108.48ZM1122.85 36.1844C1117.53 36.1844 1113.12 34.5124 1109.62 31.1684C1106.28 27.8244 1104.61 23.7964 1104.61 19.0844C1104.61 14.2204 1106.28 10.1924 1109.62 7.00036C1113.12 3.65637 1117.53 1.98438 1122.85 1.98438C1128.17 1.98438 1132.5 3.58037 1135.84 6.77237C1139.34 9.81237 1141.09 13.6884 1141.09 18.4004C1141.09 23.4164 1139.42 27.6724 1136.07 31.1684C1132.73 34.5124 1128.32 36.1844 1122.85 36.1844ZM1249.4 178V153.376L1247.81 148.132V105.04C1247.81 96.6804 1245.3 90.2204 1240.28 85.6604C1235.27 80.9484 1227.67 78.5924 1217.48 78.5924C1210.64 78.5924 1203.88 79.6564 1197.19 81.7844C1190.65 83.9124 1185.11 86.8764 1180.55 90.6764L1169.37 69.9284C1175.91 64.9124 1183.66 61.1884 1192.63 58.7564C1201.75 56.1724 1211.17 54.8804 1220.9 54.8804C1238.53 54.8804 1252.14 59.1364 1261.71 67.6484C1271.44 76.0084 1276.31 89.0044 1276.31 106.636V178H1249.4ZM1211.1 179.596C1201.98 179.596 1194 178.076 1187.16 175.036C1180.32 171.844 1175 167.512 1171.2 162.04C1167.55 156.416 1165.73 150.108 1165.73 143.116C1165.73 136.276 1167.32 130.12 1170.51 124.648C1173.86 119.176 1179.25 114.844 1186.7 111.652C1194.15 108.46 1204.03 106.864 1216.34 106.864H1251.68V125.788H1218.39C1208.67 125.788 1202.13 127.384 1198.79 130.576C1195.44 133.616 1193.77 137.416 1193.77 141.976C1193.77 147.144 1195.82 151.248 1199.93 154.288C1204.03 157.328 1209.73 158.848 1217.03 158.848C1224.02 158.848 1230.25 157.252 1235.72 154.06C1241.35 150.868 1245.37 146.156 1247.81 139.924L1252.59 157.024C1249.86 164.168 1244.92 169.716 1237.77 173.668C1230.78 177.62 1221.89 179.596 1211.1 179.596ZM1312.88 178V8.82437H1341.38V178H1312.88ZM1416.41 179.596C1406.22 179.596 1396.42 178.304 1387 175.72C1377.72 172.984 1370.35 169.716 1364.88 165.916L1375.82 144.256C1381.3 147.752 1387.83 150.64 1395.43 152.92C1403.03 155.2 1410.63 156.34 1418.23 156.34C1427.2 156.34 1433.66 155.124 1437.61 152.692C1441.72 150.26 1443.77 146.992 1443.77 142.888C1443.77 139.544 1442.4 137.036 1439.66 135.364C1436.93 133.54 1433.36 132.172 1428.95 131.26C1424.54 130.348 1419.6 129.512 1414.13 128.752C1408.81 127.992 1403.41 127.004 1397.94 125.788C1392.62 124.42 1387.76 122.52 1383.35 120.088C1378.94 117.504 1375.37 114.084 1372.63 109.828C1369.9 105.572 1368.53 99.9484 1368.53 92.9564C1368.53 85.2044 1370.73 78.5164 1375.14 72.8924C1379.55 67.1164 1385.7 62.7084 1393.61 59.6684C1401.66 56.4764 1411.16 54.8804 1422.11 54.8804C1430.32 54.8804 1438.6 55.7924 1446.96 57.6164C1455.32 59.4404 1462.24 62.0244 1467.71 65.3684L1456.76 87.0284C1450.99 83.5324 1445.14 81.1764 1439.21 79.9604C1433.43 78.5924 1427.66 77.9084 1421.88 77.9084C1413.22 77.9084 1406.76 79.2004 1402.5 81.7844C1398.4 84.3684 1396.34 87.6364 1396.34 91.5884C1396.34 95.2364 1397.71 97.9724 1400.45 99.7964C1403.18 101.62 1406.76 103.064 1411.16 104.128C1415.57 105.192 1420.44 106.104 1425.76 106.864C1431.23 107.472 1436.62 108.46 1441.94 109.828C1447.26 111.196 1452.13 113.096 1456.54 115.528C1461.1 117.808 1464.74 121.076 1467.48 125.332C1470.22 129.588 1471.58 135.136 1471.58 141.976C1471.58 149.576 1469.3 156.188 1464.74 161.812C1460.34 167.436 1454.03 171.844 1445.82 175.036C1437.61 178.076 1427.81 179.596 1416.41 179.596Z" stroke="#56CCF2" stroke-width="2" mask="url(#path-1-outside-1_2789_8383)"/>
</g>
</svg>
