<svg width="19" height="20" viewBox="0 0 19 20" fill="none" xmlns="http://www.w3.org/2000/svg">
<path d="M16.0987 10.4202L9.91871 16.6102C9.10853 17.3302 8.05386 17.7135 6.97044 17.6816C5.88701 17.6497 4.85671 17.2051 4.09029 16.4386C3.32386 15.6722 2.87922 14.6419 2.84733 13.5585C2.81544 12.4751 3.1987 11.4204 3.91871 10.6102L11.9187 2.61021C12.3963 2.15651 13.03 1.90354 13.6887 1.90354C14.3475 1.90354 14.9811 2.15651 15.4587 2.61021C15.9241 3.0818 16.185 3.71768 16.185 4.38021C16.185 5.04274 15.9241 5.67862 15.4587 6.15021L8.55871 13.0402C8.49043 13.1138 8.40832 13.1731 8.31709 13.2149C8.22586 13.2567 8.12729 13.2802 8.027 13.2839C7.92671 13.2876 7.82667 13.2715 7.7326 13.2366C7.63853 13.2016 7.55225 13.1485 7.47871 13.0802C7.40517 13.0119 7.3458 12.9298 7.30399 12.8386C7.26218 12.7474 7.23875 12.6488 7.23504 12.5485C7.23132 12.4482 7.2474 12.3482 7.28235 12.2541C7.31729 12.16 7.37043 12.0738 7.43871 12.0002L12.5687 6.88021C12.757 6.69191 12.8628 6.43651 12.8628 6.17021C12.8628 5.90391 12.757 5.64852 12.5687 5.46021C12.3804 5.27191 12.125 5.16612 11.8587 5.16612C11.5924 5.16612 11.337 5.27191 11.1487 5.46021L6.01871 10.6002C5.76202 10.8549 5.55828 11.1579 5.41925 11.4917C5.28021 11.8256 5.20863 12.1836 5.20863 12.5452C5.20863 12.9068 5.28021 13.2649 5.41925 13.5987C5.55828 13.9325 5.76202 14.2355 6.01871 14.4902C6.54309 14.9897 7.23952 15.2683 7.96371 15.2683C8.68791 15.2683 9.38434 14.9897 9.90872 14.4902L16.7987 7.59021C17.5936 6.73716 18.0263 5.60888 18.0058 4.44308C17.9852 3.27727 17.5129 2.16496 16.6884 1.34048C15.864 0.516003 14.7517 0.0437313 13.5858 0.023162C12.42 0.00259272 11.2918 0.435332 10.4387 1.23021L2.43871 9.23021C1.35991 10.425 0.783743 11.9901 0.830248 13.5992C0.876753 15.2083 1.54235 16.7374 2.68835 17.868C3.83436 18.9985 5.37239 19.6433 6.982 19.6679C8.59161 19.6925 10.1487 19.0951 11.3287 18.0002L17.5187 11.8202C17.612 11.727 17.6859 11.6163 17.7364 11.4945C17.7868 11.3726 17.8128 11.2421 17.8128 11.1102C17.8128 10.9784 17.7868 10.8478 17.7364 10.726C17.6859 10.6041 17.612 10.4935 17.5187 10.4002C17.4255 10.307 17.3148 10.233 17.193 10.1826C17.0711 10.1321 16.9406 10.1061 16.8087 10.1061C16.6769 10.1061 16.5463 10.1321 16.4245 10.1826C16.3026 10.233 16.192 10.307 16.0987 10.4002V10.4202Z" fill="white"/>
</svg>
