<svg width="1418" height="174" viewBox="0 0 1418 174" fill="none" xmlns="http://www.w3.org/2000/svg">
<g opacity="0.5">
<mask id="path-1-outside-1_2789_8377" maskUnits="userSpaceOnUse" x="0.156006" y="0.824219" width="1418" height="173" fill="black">
<rect fill="white" x="0.156006" y="0.824219" width="1418" height="173"/>
<path d="M55.052 171L2.15601 11.4002H32.936L80.132 155.724H64.856L113.876 11.4002H141.236L188.888 155.724H174.068L222.404 11.4002H250.676L197.78 171H166.316L122.768 40.8122H130.976L86.744 171H55.052ZM344.51 47.8802C354.238 47.8802 362.902 49.7802 370.502 53.5802C378.254 57.3802 384.334 63.2322 388.742 71.1362C393.15 78.8882 395.354 88.9202 395.354 101.232V171H366.854V104.88C366.854 94.0882 364.27 86.0322 359.102 80.7122C354.086 75.3922 347.018 72.7322 337.898 72.7322C331.21 72.7322 325.282 74.1002 320.114 76.8362C314.946 79.5722 310.918 83.6762 308.03 89.1482C305.294 94.4682 303.926 101.232 303.926 109.44V171H275.426V1.82422H303.926V82.0802L297.77 72.0482C302.026 64.2962 308.182 58.3682 316.238 54.2642C324.446 50.0082 333.87 47.8802 344.51 47.8802ZM506.521 171V146.376L504.924 141.132V98.0402C504.924 89.6802 502.417 83.2202 497.401 78.6602C492.385 73.9482 484.785 71.5922 474.601 71.5922C467.761 71.5922 460.996 72.6562 454.309 74.7842C447.772 76.9122 442.225 79.8762 437.665 83.6762L426.492 62.9282C433.029 57.9122 440.781 54.1882 449.749 51.7562C458.868 49.1722 468.293 47.8802 478.021 47.8802C495.652 47.8802 509.257 52.1362 518.833 60.6482C528.561 69.0082 533.424 82.0042 533.424 99.6362V171H506.521ZM468.217 172.596C459.097 172.596 451.117 171.076 444.277 168.036C437.437 164.844 432.116 160.512 428.316 155.04C424.668 149.416 422.845 143.108 422.845 136.116C422.845 129.276 424.441 123.12 427.633 117.648C430.977 112.176 436.372 107.844 443.82 104.652C451.268 101.46 461.148 99.8642 473.461 99.8642H508.801V118.788H475.513C465.785 118.788 459.249 120.384 455.905 123.576C452.561 126.616 450.889 130.416 450.889 134.976C450.889 140.144 452.94 144.248 457.044 147.288C461.148 150.328 466.849 151.848 474.145 151.848C481.137 151.848 487.369 150.252 492.841 147.06C498.465 143.868 502.492 139.156 504.924 132.924L509.712 150.024C506.977 157.168 502.037 162.716 494.893 166.668C487.901 170.62 479.009 172.596 468.217 172.596ZM615.829 172.596C602.453 172.596 592.117 169.176 584.821 162.336C577.525 155.344 573.877 145.084 573.877 131.556V22.3442H602.377V130.872C602.377 136.648 603.821 141.132 606.709 144.324C609.749 147.516 613.929 149.112 619.249 149.112C625.633 149.112 630.953 147.44 635.209 144.096L643.189 164.388C639.845 167.124 635.741 169.176 630.877 170.544C626.013 171.912 620.997 172.596 615.829 172.596ZM553.813 72.9602V50.1602H634.981V72.9602H553.813ZM756.549 171L711.861 49.2482H738.765L777.069 156.636H764.301L804.429 49.2482H828.369L867.357 156.636H854.817L894.261 49.2482H919.569L874.653 171H847.293L811.725 75.9242H820.161L783.909 171H756.549ZM993.053 172.596C979.525 172.596 967.669 169.936 957.485 164.616C947.453 159.144 939.625 151.696 934.001 142.272C928.529 132.848 925.793 122.132 925.793 110.124C925.793 97.9642 928.453 87.2482 933.773 77.9762C939.245 68.5522 946.693 61.1802 956.117 55.8602C965.693 50.5402 976.561 47.8802 988.721 47.8802C1000.58 47.8802 1011.14 50.4642 1020.41 55.6322C1029.68 60.8002 1036.98 68.0962 1042.3 77.5202C1047.62 86.9442 1050.28 98.0402 1050.28 110.808C1050.28 112.024 1050.2 113.392 1050.05 114.912C1050.05 116.432 1049.98 117.876 1049.82 119.244H948.365V100.32H1034.78L1023.6 106.248C1023.76 99.2562 1022.31 93.1002 1019.27 87.7802C1016.23 82.4602 1012.05 78.2802 1006.73 75.2402C1001.56 72.2002 995.561 70.6802 988.721 70.6802C981.729 70.6802 975.573 72.2002 970.253 75.2402C965.085 78.2802 960.981 82.5362 957.941 88.0082C955.053 93.3282 953.609 99.6362 953.609 106.932V111.492C953.609 118.788 955.281 125.248 958.625 130.872C961.969 136.496 966.681 140.828 972.761 143.868C978.841 146.908 985.833 148.428 993.737 148.428C1000.58 148.428 1006.73 147.364 1012.2 145.236C1017.68 143.108 1022.54 139.764 1026.8 135.204L1042.07 152.76C1036.6 159.144 1029.68 164.084 1021.32 167.58C1013.12 170.924 1003.69 172.596 993.053 172.596ZM1192.2 172.596C1180.49 172.596 1169.93 170.012 1160.5 164.844C1151.23 159.524 1143.94 152.228 1138.62 142.956C1133.3 133.684 1130.64 122.74 1130.64 110.124C1130.64 97.5082 1133.3 86.5642 1138.62 77.2922C1143.94 68.0202 1151.23 60.8002 1160.5 55.6322C1169.93 50.4642 1180.49 47.8802 1192.2 47.8802C1202.38 47.8802 1211.5 50.1602 1219.56 54.7202C1227.61 59.1282 1234 65.8922 1238.71 75.0122C1243.42 84.1322 1245.78 95.8362 1245.78 110.124C1245.78 124.26 1243.5 135.964 1238.94 145.236C1234.38 154.356 1228.07 161.196 1220.01 165.756C1211.96 170.316 1202.68 172.596 1192.2 172.596ZM1195.62 148.2C1202.46 148.2 1208.54 146.68 1213.86 143.64C1219.33 140.6 1223.66 136.192 1226.85 130.416C1230.2 124.64 1231.87 117.876 1231.87 110.124C1231.87 102.22 1230.2 95.4562 1226.85 89.8322C1223.66 84.0562 1219.33 79.6482 1213.86 76.6082C1208.54 73.5682 1202.46 72.0482 1195.62 72.0482C1188.78 72.0482 1182.62 73.5682 1177.15 76.6082C1171.83 79.6482 1167.5 84.0562 1164.15 89.8322C1160.96 95.4562 1159.36 102.22 1159.36 110.124C1159.36 117.876 1160.96 124.64 1164.15 130.416C1167.5 136.192 1171.83 140.6 1177.15 143.64C1182.62 146.68 1188.78 148.2 1195.62 148.2ZM1232.55 171V142.272L1233.69 109.896L1231.41 77.5202V1.82422H1259.68V171H1232.55ZM1351.92 172.596C1339.45 172.596 1328.36 169.936 1318.63 164.616C1308.9 159.144 1301.22 151.696 1295.6 142.272C1289.98 132.848 1287.16 122.132 1287.16 110.124C1287.16 97.9642 1289.98 87.2482 1295.6 77.9762C1301.22 68.5522 1308.9 61.1802 1318.63 55.8602C1328.36 50.5402 1339.45 47.8802 1351.92 47.8802C1364.53 47.8802 1375.7 50.5402 1385.43 55.8602C1395.31 61.1802 1402.99 68.4762 1408.46 77.7482C1414.08 87.0202 1416.9 97.8122 1416.9 110.124C1416.9 122.132 1414.08 132.848 1408.46 142.272C1402.99 151.696 1395.31 159.144 1385.43 164.616C1375.7 169.936 1364.53 172.596 1351.92 172.596ZM1351.92 148.2C1358.91 148.2 1365.14 146.68 1370.61 143.64C1376.08 140.6 1380.34 136.192 1383.38 130.416C1386.57 124.64 1388.17 117.876 1388.17 110.124C1388.17 102.22 1386.57 95.4562 1383.38 89.8322C1380.34 84.0562 1376.08 79.6482 1370.61 76.6082C1365.14 73.5682 1358.98 72.0482 1352.14 72.0482C1345.15 72.0482 1338.92 73.5682 1333.45 76.6082C1328.13 79.6482 1323.87 84.0562 1320.68 89.8322C1317.49 95.4562 1315.89 102.22 1315.89 110.124C1315.89 117.876 1317.49 124.64 1320.68 130.416C1323.87 136.192 1328.13 140.6 1333.45 143.64C1338.92 146.68 1345.08 148.2 1351.92 148.2Z"/>
</mask>
<path d="M55.052 171L2.15601 11.4002H32.936L80.132 155.724H64.856L113.876 11.4002H141.236L188.888 155.724H174.068L222.404 11.4002H250.676L197.78 171H166.316L122.768 40.8122H130.976L86.744 171H55.052ZM344.51 47.8802C354.238 47.8802 362.902 49.7802 370.502 53.5802C378.254 57.3802 384.334 63.2322 388.742 71.1362C393.15 78.8882 395.354 88.9202 395.354 101.232V171H366.854V104.88C366.854 94.0882 364.27 86.0322 359.102 80.7122C354.086 75.3922 347.018 72.7322 337.898 72.7322C331.21 72.7322 325.282 74.1002 320.114 76.8362C314.946 79.5722 310.918 83.6762 308.03 89.1482C305.294 94.4682 303.926 101.232 303.926 109.44V171H275.426V1.82422H303.926V82.0802L297.77 72.0482C302.026 64.2962 308.182 58.3682 316.238 54.2642C324.446 50.0082 333.87 47.8802 344.51 47.8802ZM506.521 171V146.376L504.924 141.132V98.0402C504.924 89.6802 502.417 83.2202 497.401 78.6602C492.385 73.9482 484.785 71.5922 474.601 71.5922C467.761 71.5922 460.996 72.6562 454.309 74.7842C447.772 76.9122 442.225 79.8762 437.665 83.6762L426.492 62.9282C433.029 57.9122 440.781 54.1882 449.749 51.7562C458.868 49.1722 468.293 47.8802 478.021 47.8802C495.652 47.8802 509.257 52.1362 518.833 60.6482C528.561 69.0082 533.424 82.0042 533.424 99.6362V171H506.521ZM468.217 172.596C459.097 172.596 451.117 171.076 444.277 168.036C437.437 164.844 432.116 160.512 428.316 155.04C424.668 149.416 422.845 143.108 422.845 136.116C422.845 129.276 424.441 123.12 427.633 117.648C430.977 112.176 436.372 107.844 443.82 104.652C451.268 101.46 461.148 99.8642 473.461 99.8642H508.801V118.788H475.513C465.785 118.788 459.249 120.384 455.905 123.576C452.561 126.616 450.889 130.416 450.889 134.976C450.889 140.144 452.94 144.248 457.044 147.288C461.148 150.328 466.849 151.848 474.145 151.848C481.137 151.848 487.369 150.252 492.841 147.06C498.465 143.868 502.492 139.156 504.924 132.924L509.712 150.024C506.977 157.168 502.037 162.716 494.893 166.668C487.901 170.62 479.009 172.596 468.217 172.596ZM615.829 172.596C602.453 172.596 592.117 169.176 584.821 162.336C577.525 155.344 573.877 145.084 573.877 131.556V22.3442H602.377V130.872C602.377 136.648 603.821 141.132 606.709 144.324C609.749 147.516 613.929 149.112 619.249 149.112C625.633 149.112 630.953 147.44 635.209 144.096L643.189 164.388C639.845 167.124 635.741 169.176 630.877 170.544C626.013 171.912 620.997 172.596 615.829 172.596ZM553.813 72.9602V50.1602H634.981V72.9602H553.813ZM756.549 171L711.861 49.2482H738.765L777.069 156.636H764.301L804.429 49.2482H828.369L867.357 156.636H854.817L894.261 49.2482H919.569L874.653 171H847.293L811.725 75.9242H820.161L783.909 171H756.549ZM993.053 172.596C979.525 172.596 967.669 169.936 957.485 164.616C947.453 159.144 939.625 151.696 934.001 142.272C928.529 132.848 925.793 122.132 925.793 110.124C925.793 97.9642 928.453 87.2482 933.773 77.9762C939.245 68.5522 946.693 61.1802 956.117 55.8602C965.693 50.5402 976.561 47.8802 988.721 47.8802C1000.58 47.8802 1011.14 50.4642 1020.41 55.6322C1029.68 60.8002 1036.98 68.0962 1042.3 77.5202C1047.62 86.9442 1050.28 98.0402 1050.28 110.808C1050.28 112.024 1050.2 113.392 1050.05 114.912C1050.05 116.432 1049.98 117.876 1049.82 119.244H948.365V100.32H1034.78L1023.6 106.248C1023.76 99.2562 1022.31 93.1002 1019.27 87.7802C1016.23 82.4602 1012.05 78.2802 1006.73 75.2402C1001.56 72.2002 995.561 70.6802 988.721 70.6802C981.729 70.6802 975.573 72.2002 970.253 75.2402C965.085 78.2802 960.981 82.5362 957.941 88.0082C955.053 93.3282 953.609 99.6362 953.609 106.932V111.492C953.609 118.788 955.281 125.248 958.625 130.872C961.969 136.496 966.681 140.828 972.761 143.868C978.841 146.908 985.833 148.428 993.737 148.428C1000.58 148.428 1006.73 147.364 1012.2 145.236C1017.68 143.108 1022.54 139.764 1026.8 135.204L1042.07 152.76C1036.6 159.144 1029.68 164.084 1021.32 167.58C1013.12 170.924 1003.69 172.596 993.053 172.596ZM1192.2 172.596C1180.49 172.596 1169.93 170.012 1160.5 164.844C1151.23 159.524 1143.94 152.228 1138.62 142.956C1133.3 133.684 1130.64 122.74 1130.64 110.124C1130.64 97.5082 1133.3 86.5642 1138.62 77.2922C1143.94 68.0202 1151.23 60.8002 1160.5 55.6322C1169.93 50.4642 1180.49 47.8802 1192.2 47.8802C1202.38 47.8802 1211.5 50.1602 1219.56 54.7202C1227.61 59.1282 1234 65.8922 1238.71 75.0122C1243.42 84.1322 1245.78 95.8362 1245.78 110.124C1245.78 124.26 1243.5 135.964 1238.94 145.236C1234.38 154.356 1228.07 161.196 1220.01 165.756C1211.96 170.316 1202.68 172.596 1192.2 172.596ZM1195.62 148.2C1202.46 148.2 1208.54 146.68 1213.86 143.64C1219.33 140.6 1223.66 136.192 1226.85 130.416C1230.2 124.64 1231.87 117.876 1231.87 110.124C1231.87 102.22 1230.2 95.4562 1226.85 89.8322C1223.66 84.0562 1219.33 79.6482 1213.86 76.6082C1208.54 73.5682 1202.46 72.0482 1195.62 72.0482C1188.78 72.0482 1182.62 73.5682 1177.15 76.6082C1171.83 79.6482 1167.5 84.0562 1164.15 89.8322C1160.96 95.4562 1159.36 102.22 1159.36 110.124C1159.36 117.876 1160.96 124.64 1164.15 130.416C1167.5 136.192 1171.83 140.6 1177.15 143.64C1182.62 146.68 1188.78 148.2 1195.62 148.2ZM1232.55 171V142.272L1233.69 109.896L1231.41 77.5202V1.82422H1259.68V171H1232.55ZM1351.92 172.596C1339.45 172.596 1328.36 169.936 1318.63 164.616C1308.9 159.144 1301.22 151.696 1295.6 142.272C1289.98 132.848 1287.16 122.132 1287.16 110.124C1287.16 97.9642 1289.98 87.2482 1295.6 77.9762C1301.22 68.5522 1308.9 61.1802 1318.63 55.8602C1328.36 50.5402 1339.45 47.8802 1351.92 47.8802C1364.53 47.8802 1375.7 50.5402 1385.43 55.8602C1395.31 61.1802 1402.99 68.4762 1408.46 77.7482C1414.08 87.0202 1416.9 97.8122 1416.9 110.124C1416.9 122.132 1414.08 132.848 1408.46 142.272C1402.99 151.696 1395.31 159.144 1385.43 164.616C1375.7 169.936 1364.53 172.596 1351.92 172.596ZM1351.92 148.2C1358.91 148.2 1365.14 146.68 1370.61 143.64C1376.08 140.6 1380.34 136.192 1383.38 130.416C1386.57 124.64 1388.17 117.876 1388.17 110.124C1388.17 102.22 1386.57 95.4562 1383.38 89.8322C1380.34 84.0562 1376.08 79.6482 1370.61 76.6082C1365.14 73.5682 1358.98 72.0482 1352.14 72.0482C1345.15 72.0482 1338.92 73.5682 1333.45 76.6082C1328.13 79.6482 1323.87 84.0562 1320.68 89.8322C1317.49 95.4562 1315.89 102.22 1315.89 110.124C1315.89 117.876 1317.49 124.64 1320.68 130.416C1323.87 136.192 1328.13 140.6 1333.45 143.64C1338.92 146.68 1345.08 148.2 1351.92 148.2Z" stroke="#56CCF2" stroke-width="2" mask="url(#path-1-outside-1_2789_8377)"/>
</g>
</svg>
